SplineFontDB: 3.2
FontName: Mikhak-Black
FullName: Mikhak Black
FamilyName: Mikhak Black
Weight: Black
Copyright: Copyright (c) 2019, Amin Abedi (www.fontamin.com|aminabedi68@gmail.com),\nwith Reserved Font Name Mikhak.\n\nThis Font Software is licensed under the SIL Open Font License, Version 1.1.\nThis license is available with a FAQ at: http://scripts.sil.org/OFL
Version: 2.2
ItalicAngle: 0
UnderlinePosition: -450
UnderlineWidth: 100
Ascent: 1638
Descent: 410
InvalidEm: 0
sfntRevision: 0x00023cac
UFOAscent: 1638
UFODescent: -410
LayerCount: 2
Layer: 0 0 "Back" 1
Layer: 1 0 "public.default" 0
StyleMap: 0x0000
FSType: 0
OS2Version: 0
OS2_WeightWidthSlopeOnly: 0
OS2_UseTypoMetrics: 0
CreationTime: 1569500434
ModificationTime: 1587466176
PfmFamily: 17
TTFWeight: 900
TTFWidth: 5
LineGap: 0
VLineGap: 0
OS2TypoAscent: 2200
OS2TypoAOffset: 0
OS2TypoDescent: -1200
OS2TypoDOffset: 0
OS2TypoLinegap: 0
OS2WinAscent: 2200
OS2WinAOffset: 0
OS2WinDescent: 1200
OS2WinDOffset: 0
HheadAscent: 2200
HheadAOffset: 0
HheadDescent: -1200
HheadDOffset: 0
OS2SubXSize: 1277
OS2SubYSize: 1185
OS2SubXOff: 0
OS2SubYOff: 256
OS2SupXSize: 1277
OS2SupYSize: 1185
OS2SupXOff: 0
OS2SupYOff: 870
OS2StrikeYSize: 91
OS2StrikeYPos: 766
OS2CapHeight: 1400
OS2XHeight: 1012
OS2Vendor: 'AA68'
Lookup: 4 1 0 "'ccmp' Glyph Composition/Decomposition in Arabic lookup 0" { "'ccmp' Glyph Composition/Decomposition in Arabic lookup 0 subtable 0"  } ['ccmp' ('arab' <'FAR ' 'dflt' > ) ]
Lookup: 1 9 0 "Single Substitution 1" { "Single Substitution 1 subtable"  } []
Lookup: 2 9 0 "Multiple Substitution 2" { "Multiple Substitution 2 subtable"  } []
Lookup: 2 9 0 "Multiple Substitution 3" { "Multiple Substitution 3 subtable"  } []
Lookup: 1 9 0 "'fina' Terminal Forms in Arabic lookup 4" { "'fina' Terminal Forms in Arabic lookup 4 subtable"  } ['fina' ('arab' <'FAR ' 'dflt' > ) ]

StartChar: A
Encoding: 65 65 0
Width: 1416
GlyphClass: 2
Flags: HW
LayerCount: 2
Fore
SplineSet
95 -112 m 256
 17 -77 -19 19 16 97 c 258
 594 1381 l 258
 631 1464 735 1498 814 1454 c 256
 846 1436 873 1405 885 1374 c 258
 1403 58 l 258
 1434 -22 1394 -116 1314 -147 c 256
 1234 -178 1140 -138 1109 -58 c 258
 728 911 l 257
 304 -33 l 258
 269 -111 173 -147 95 -112 c 256
1245 288 m 256
 1237 203 1160 137 1074 145 c 258
 324 213 l 258
 239 221 173 298 181 384 c 256
 189 470 267 535 352 527 c 258
 1102 459 l 258
 1188 451 1253 373 1245 288 c 256
EndSplineSet
EndChar

StartChar: AE
Encoding: 198 198 1
Width: 1908
GlyphClass: 2
Flags: HW
LayerCount: 2
Fore
SplineSet
1022 1473 m 256
 1108 1475 1180 1405 1182 1319 c 256
 1183 1262 1184 1192 1184 1119 c 256
 1184 824 1183 469 1143 232 c 256
 1138 201 1137 190 1137 182 c 256
 1137 168 1199 160 1255 157 c 256
 1381 149 1478 144 1602 144 c 256
 1644 144 1682 144 1722 145 c 256
 1808 147 1882 78 1884 -8 c 256
 1886 -94 1816 -167 1730 -169 c 256
 1686 -170 1644 -170 1602 -170 c 256
 1470 -170 1365 -165 1237 -157 c 256
 1082 -148 820 -79 820 173 c 256
 820 201 823 221 828 246 c 256
 864 456 870 831 870 1119 c 256
 870 1190 869 1256 868 1313 c 256
 866 1399 936 1471 1022 1473 c 256
1901 1410 m 256
 1921 1326 1868 1241 1784 1221 c 256
 1604 1179 1417 1160 1224 1160 c 256
 1170 1160 848 1161 647 1164 c 257
 632 744 561 231 280 -102 c 256
 225 -168 124 -175 58 -120 c 256
 -8 -65 -15 36 40 102 c 256
 261 363 334 899 334 1325 c 256
 334 1408 408 1487 500 1482 c 256
 562 1479 1157 1474 1224 1474 c 256
 1397 1474 1560 1491 1712 1527 c 256
 1796 1547 1881 1494 1901 1410 c 256
231 679 m 256
 224 765 289 842 375 849 c 256
 547 863 918 868 1119 868 c 256
 1322 868 1522 863 1676 850 c 256
 1762 843 1827 766 1820 680 c 256
 1813 594 1736 529 1650 536 c 256
 1510 547 1316 554 1119 554 c 256
 926 554 549 547 401 535 c 256
 315 528 238 593 231 679 c 256
EndSplineSet
EndChar

StartChar: B
Encoding: 66 66 8
Width: 1138
GlyphClass: 2
Flags: HW
LayerCount: 2
Fore
SplineSet
85 690 m 256
 80 776 147 851 233 856 c 256
 303 860 457 876 536 876 c 256
 859 876 1136 726 1136 376 c 256
 1136 -23 767 -142 501 -142 c 256
 382 -142 262 -125 156 -91 c 256
 74 -65 27 24 53 106 c 256
 79 188 168 235 250 209 c 256
 321 187 414 172 501 172 c 256
 721 172 820 241 820 376 c 256
 820 516 765 567 536 567 c 256
 477 567 317 546 251 542 c 256
 165 537 90 604 85 690 c 256
191 -98 m 256
 105 -92 40 -15 46 71 c 256
 61 264 68 499 68 686 c 256
 68 919 58 1084 43 1267 c 256
 36 1353 101 1430 187 1437 c 256
 273 1444 350 1379 357 1293 c 256
 372 1108 382 947 382 706 c 256
 382 511 375 252 360 47 c 256
 354 -39 277 -104 191 -98 c 256
53 1223 m 256
 22 1303 63 1396 143 1427 c 256
 263 1473 399 1504 533 1504 c 256
 784 1504 1054 1343 1054 1028 c 256
 1054 548 330 553 248 549 c 256
 162 545 89 607 85 693 c 256
 81 779 149 852 235 857 c 256
 604 878 740 938 740 1064 c 256
 740 1142 674 1188 533 1188 c 256
 447 1188 343 1167 257 1133 c 256
 177 1102 84 1143 53 1223 c 256
EndSplineSet
EndChar

StartChar: C
Encoding: 67 67 9
Width: 1271
GlyphClass: 2
Flags: HW
LayerCount: 2
Fore
SplineSet
1220 1228 m 256
 1185 1150 1090 1113 1012 1148 c 256
 951 1175 884 1188 814 1188 c 256
 529 1188 318 961 318 662 c 256
 318 375 518 172 810 172 c 256
 889 172 968 191 1038 228 c 256
 1114 268 1210 238 1250 162 c 256
 1290 86 1260 -10 1184 -50 c 256
 1068 -111 939 -142 810 -142 c 256
 350 -142 2 207 2 662 c 256
 2 1115 341 1504 814 1504 c 256
 924 1504 1035 1483 1140 1436 c 256
 1218 1401 1255 1306 1220 1228 c 256
EndSplineSet
EndChar

StartChar: D
Encoding: 68 68 11
Width: 1279
GlyphClass: 2
Flags: HW
LayerCount: 2
Fore
SplineSet
388 1188 m 257
 398 1066 402 956 402 811 c 256
 402 604 392 383 372 179 c 257
 398 175 425 172 452 172 c 256
 743 172 962 397 962 701 c 256
 962 1035 774 1188 406 1188 c 256
 400 1188 394 1188 388 1188 c 257
182 1479 m 256
 256 1496 331 1504 406 1504 c 256
 892 1504 1276 1227 1276 701 c 256
 1276 235 923 -142 452 -142 c 256
 346 -142 241 -123 143 -85 c 256
 73 -58 36 18 44 82 c 256
 72 299 88 570 88 811 c 256
 88 1005 80 1118 60 1309 c 256
 51 1392 115 1464 182 1479 c 256
EndSplineSet
EndChar

StartChar: E
Encoding: 69 69 12
Width: 1098
GlyphClass: 2
Flags: HW
LayerCount: 2
Fore
SplineSet
4 716 m 256
 -6 801 56 881 141 891 c 256
 264 906 378 912 500 912 c 256
 628 912 754 904 878 889 c 256
 963 879 1026 799 1016 714 c 256
 1006 629 926 567 841 577 c 256
 729 590 616 596 500 596 c 256
 386 596 288 592 179 579 c 256
 94 569 14 631 4 716 c 256
1091 1394 m 256
 1110 1310 1057 1225 973 1206 c 256
 819 1170 638 1158 472 1158 c 256
 446 1158 418 1159 393 1160 c 257
 397 1099 400 1036 400 960 c 256
 400 740 385 522 357 325 c 256
 355 312 354 307 354 295 c 256
 354 233 413 202 768 202 c 256
 821 202 871 202 919 203 c 256
 1005 205 1078 135 1080 49 c 256
 1082 -37 1011 -109 925 -111 c 256
 873 -112 821 -112 768 -112 c 256
 535 -112 40 -139 40 295 c 256
 40 318 41 343 45 371 c 256
 70 548 84 756 84 960 c 256
 84 1100 79 1174 62 1305 c 256
 54 1371 112 1489 227 1482 c 256
 310 1477 392 1474 472 1474 c 256
 622 1474 789 1486 903 1512 c 256
 987 1531 1072 1478 1091 1394 c 256
EndSplineSet
EndChar

StartChar: Eth
Encoding: 208 208 17
Width: 1341
GlyphClass: 2
Flags: HW
LayerCount: 2
Fore
SplineSet
-43 689 m 256
 -49 761 7 825 79 831 c 256
 305 849 513 845 674 831 c 256
 745 825 801 760 795 688 c 256
 789 616 723 561 652 567 c 256
 505 579 310 583 99 567 c 256
 27 561 -37 617 -43 689 c 256
EndSplineSet
Refer: 11 68 N 1 0 0 1 150 0 2
EndChar

StartChar: F
Encoding: 70 70 18
Width: 1092
GlyphClass: 2
Flags: HW
LayerCount: 2
Fore
SplineSet
4 702 m 256
 -6 787 56 867 141 877 c 256
 256 891 372 898 489 898 c 256
 614 898 739 890 862 875 c 256
 947 865 1009 785 999 700 c 256
 989 615 909 553 824 563 c 256
 712 576 600 584 489 584 c 256
 386 584 282 577 179 565 c 256
 94 555 14 617 4 702 c 256
1085 1373 m 256
 1104 1289 1051 1204 967 1185 c 256
 813 1149 632 1138 466 1138 c 256
 440 1138 413 1139 388 1139 c 257
 402 959 406 787 406 583 c 256
 406 372 395 168 374 -17 c 256
 364 -102 285 -167 200 -157 c 256
 115 -147 51 -68 61 17 c 256
 80 188 90 384 90 583 c 256
 90 851 85 1052 57 1285 c 256
 49 1350 107 1468 222 1461 c 256
 302 1456 385 1454 466 1454 c 256
 616 1454 783 1465 897 1491 c 256
 981 1510 1066 1457 1085 1373 c 256
EndSplineSet
EndChar

StartChar: G
Encoding: 71 71 19
Width: 1349
GlyphClass: 2
Flags: HW
LayerCount: 2
Fore
SplineSet
490 649 m 256
 490 735 562 806 648 806 c 258
 1184 806 l 258
 1271 806 1336 730 1341 660 c 256
 1344 618 1346 577 1346 537 c 256
 1346 190 1182 -142 716 -142 c 256
 325 -142 2 136 2 639 c 256
 2 1075 240 1504 763 1504 c 256
 895 1504 1025 1461 1131 1382 c 256
 1200 1331 1215 1231 1164 1162 c 256
 1113 1093 1012 1079 943 1130 c 256
 893 1167 827 1188 763 1188 c 256
 462 1188 318 981 318 639 c 256
 318 288 489 172 716 172 c 256
 968 172 1020 266 1030 492 c 257
 648 492 l 258
 562 492 490 563 490 649 c 256
EndSplineSet
EndChar

StartChar: H
Encoding: 72 72 20
Width: 1319
GlyphClass: 2
Flags: HW
LayerCount: 2
Fore
SplineSet
1000 1473 m 256
 1086 1477 1160 1409 1164 1323 c 258
 1223 -14 l 258
 1227 -100 1159 -174 1073 -178 c 256
 987 -182 913 -114 909 -28 c 258
 850 1309 l 258
 846 1395 914 1469 1000 1473 c 256
1276 647 m 256
 1272 561 1198 493 1112 497 c 256
 850 509 426 518 200 518 c 256
 114 518 43 590 43 676 c 256
 43 762 114 834 200 834 c 256
 434 834 858 823 1126 811 c 256
 1212 807 1280 733 1276 647 c 256
273 1473 m 256
 359 1472 430 1401 429 1315 c 256
 425 869 409 417 365 -16 c 256
 356 -101 277 -166 192 -157 c 256
 107 -148 42 -69 51 16 c 256
 93 435 111 877 115 1317 c 256
 116 1403 187 1474 273 1473 c 256
EndSplineSet
EndChar

StartChar: I
Encoding: 73 73 28
Width: 435
GlyphClass: 2
Flags: HW
LayerCount: 2
Fore
SplineSet
196 -157 m 256
 110 -155 41 -82 43 4 c 258
 78 1365 l 258
 80 1451 153 1520 239 1518 c 256
 325 1516 394 1443 392 1357 c 258
 357 -4 l 258
 355 -90 282 -159 196 -157 c 256
EndSplineSet
EndChar

StartChar: J
Encoding: 74 74 33
Width: 680
GlyphClass: 2
Flags: HW
LayerCount: 2
Fore
SplineSet
16 1317 m 256
 16 1403 87 1474 173 1474 c 258
 550 1474 l 258
 636 1474 708 1403 708 1317 c 256
 708 1231 636 1160 550 1160 c 258
 173 1160 l 258
 87 1160 16 1231 16 1317 c 256
389 1471 m 256
 474 1482 555 1421 566 1336 c 256
 612 989 632 672 632 300 c 256
 632 83 520 -142 233 -142 c 256
 205 -142 176 -141 147 -139 c 256
 62 -132 -4 -55 3 31 c 256
 10 117 88 182 173 175 c 256
 192 173 213 172 233 172 c 256
 314 172 318 161 318 300 c 256
 318 660 298 959 254 1294 c 256
 243 1379 304 1460 389 1471 c 256
EndSplineSet
EndChar

StartChar: K
Encoding: 75 75 34
Width: 1217
GlyphClass: 2
Flags: HW
LayerCount: 2
Fore
SplineSet
196 -157 m 256
 110 -155 41 -82 43 4 c 258
 78 1364 l 258
 80 1450 153 1519 239 1517 c 256
 325 1515 394 1442 392 1356 c 258
 357 -4 l 258
 355 -90 282 -159 196 -157 c 256
1080 1488 m 256
 1149 1437 1164 1336 1113 1267 c 256
 931 1022 684 832 447 683 c 257
 645 481 907 283 1142 132 c 256
 1214 85 1236 -13 1189 -85 c 256
 1142 -157 1044 -179 972 -132 c 256
 667 64 315 330 80 621 c 256
 31 682 33 805 125 857 c 256
 394 1010 677 1210 859 1455 c 256
 910 1524 1011 1539 1080 1488 c 256
EndSplineSet
EndChar

StartChar: L
Encoding: 76 76 35
Width: 1166
GlyphClass: 2
Flags: HW
LayerCount: 2
Fore
SplineSet
208 1473 m 256
 294 1479 369 1412 375 1326 c 256
 386 1155 392 991 392 830 c 256
 392 616 383 407 369 198 c 257
 1010 179 l 258
 1096 177 1165 104 1163 18 c 256
 1161 -68 1088 -137 1002 -135 c 258
 196 -112 l 258
 115 -110 36 -35 43 57 c 256
 63 319 76 572 76 830 c 256
 76 985 72 1143 61 1306 c 256
 55 1392 122 1467 208 1473 c 256
EndSplineSet
EndChar

StartChar: M
Encoding: 77 77 36
Width: 1599
GlyphClass: 2
Flags: HW
LayerCount: 2
Fore
SplineSet
173 -157 m 256
 88 -148 24 -68 33 17 c 258
 170 1317 l 258
 179 1407 267 1472 356 1455 c 256
 419 1443 467 1387 479 1342 c 256
 538 1126 673 834 765 661 c 256
 774 644 780 635 787 635 c 257
 795 635 799 640 807 653 c 256
 920 836 1043 1183 1076 1347 c 256
 1094 1436 1186 1492 1273 1467 c 256
 1345 1447 1385 1372 1387 1322 c 256
 1405 816 1459 488 1562 48 c 256
 1582 -36 1529 -121 1445 -141 c 256
 1361 -161 1276 -108 1256 -24 c 256
 1204 199 1162 399 1132 609 c 257
 1110 565 1086 520 1063 481 c 256
 1011 393 938 272 787 272 c 256
 621 272 547 412 502 498 c 256
 477 546 446 606 417 664 c 257
 347 -17 l 258
 338 -102 258 -166 173 -157 c 256
EndSplineSet
EndChar

StartChar: N
Encoding: 78 78 37
Width: 1307
GlyphClass: 2
Flags: HW
LayerCount: 2
Fore
SplineSet
192 -157 m 256
 106 -153 39 -78 43 8 c 256
 65 452 82 868 88 1318 c 256
 89 1409 169 1481 259 1473 c 256
 304 1469 349 1439 370 1411 c 256
 574 1143 766 859 941 575 c 257
 950 1363 l 258
 951 1449 1023 1519 1109 1518 c 256
 1195 1517 1265 1445 1264 1359 c 258
 1249 2 l 258
 1248 -46 1223 -98 1179 -127 c 256
 1104 -177 998 -151 954 -72 c 256
 784 234 596 544 392 843 c 257
 384 561 371 280 357 -8 c 256
 353 -94 278 -161 192 -157 c 256
EndSplineSet
EndChar

StartChar: O
Encoding: 79 79 39
Width: 1485
GlyphClass: 2
Flags: HW
LayerCount: 2
Fore
SplineSet
713 172 m 256
 967 172 1168 369 1168 684 c 256
 1168 982 1002 1188 799 1188 c 256
 538 1188 318 935 318 613 c 256
 318 333 485 172 713 172 c 256
713 -142 m 256
 301 -142 2 185 2 613 c 256
 2 1063 318 1504 799 1504 c 256
 1248 1504 1482 1074 1482 684 c 256
 1482 223 1157 -142 713 -142 c 256
EndSplineSet
EndChar

StartChar: OE
Encoding: 338 338 40
Width: 2327
GlyphClass: 2
Flags: HW
LayerCount: 2
Fore
SplineSet
1112 755 m 256
 1124 840 1206 900 1291 888 c 256
 1391 873 1548 862 1701 862 c 256
 1801 862 1899 866 1982 877 c 256
 2067 888 2147 826 2158 741 c 256
 2169 656 2107 576 2022 565 c 256
 1920 552 1811 546 1701 546 c 256
 1532 546 1365 559 1245 576 c 256
 1160 588 1100 670 1112 755 c 256
1165 140 m 256
 1184 224 1269 279 1353 260 c 256
 1515 224 1685 206 1849 206 c 256
 1951 206 2051 213 2144 227 c 256
 2229 240 2310 179 2323 94 c 256
 2336 9 2275 -72 2190 -85 c 256
 2081 -101 1967 -110 1849 -110 c 256
 1663 -110 1471 -90 1285 -48 c 256
 1201 -29 1146 56 1165 140 c 256
696 172 m 256
 1020 172 1132 474 1132 1065 c 256
 1132 1148 1130 1236 1126 1322 c 256
 1121 1427 1222 1496 1304 1485 c 256
 1536 1454 1727 1430 1889 1430 c 256
 1972 1430 2045 1436 2113 1452 c 256
 2197 1471 2283 1417 2302 1333 c 256
 2321 1249 2267 1163 2183 1144 c 256
 2085 1122 1988 1114 1889 1114 c 256
 1749 1114 1605 1129 1447 1149 c 257
 1447 1123 1448 1093 1448 1065 c 256
 1448 510 1340 -142 696 -142 c 256
 290 -142 2 221 2 643 c 256
 2 1035 250 1504 699 1504 c 256
 896 1504 1048 1399 1140 1274 c 256
 1191 1205 1175 1105 1106 1054 c 256
 1037 1003 937 1019 886 1088 c 256
 840 1151 780 1188 699 1188 c 256
 512 1188 318 947 318 643 c 256
 318 351 502 172 696 172 c 256
EndSplineSet
EndChar

StartChar: Oslash
Encoding: 216 216 45
Width: 1494
GlyphClass: 2
Flags: HW
LayerCount: 2
Fore
SplineSet
75 -119 m 256
 37 -94 27 -41 51 -5 c 256
 406 527 885 1025 1328 1427 c 256
 1361 1457 1415 1455 1445 1422 c 256
 1475 1389 1473 1335 1440 1305 c 256
 1003 909 534 423 189 -95 c 256
 164 -132 110 -143 75 -119 c 256
EndSplineSet
Refer: 39 79 N 1 0 0 1 0 0 2
EndChar

StartChar: P
Encoding: 80 80 47
Width: 1269
GlyphClass: 2
Flags: HW
LayerCount: 2
Fore
SplineSet
56 1049 m 256
 -8 1106 -15 1206 42 1271 c 256
 181 1430 426 1504 636 1504 c 256
 995 1504 1266 1213 1266 862 c 256
 1266 468 878 252 560 252 c 256
 474 252 330 256 219 300 c 256
 139 331 99 425 131 505 c 256
 163 585 255 625 335 594 c 256
 356 586 506 566 560 566 c 256
 774 566 952 714 952 862 c 256
 952 1049 815 1188 636 1188 c 256
 498 1188 325 1116 278 1063 c 256
 221 998 120 992 56 1049 c 256
358 1396 m 256
 444 1390 510 1314 504 1228 c 258
 415 -11 l 258
 409 -97 333 -163 247 -157 c 256
 161 -151 95 -75 101 11 c 258
 190 1250 l 258
 196 1336 272 1402 358 1396 c 256
EndSplineSet
EndChar

StartChar: Q
Encoding: 81 81 48
Width: 1485
GlyphClass: 2
Flags: HW
LayerCount: 2
Fore
SplineSet
791 567 m 256
 861 617 961 601 1011 531 c 256
 1140 353 1250 225 1412 83 c 256
 1477 26 1484 -74 1427 -139 c 256
 1370 -204 1269 -210 1204 -153 c 256
 1024 5 892 157 755 347 c 256
 705 417 721 517 791 567 c 256
EndSplineSet
Refer: 39 79 N 1 0 0 1 0 0 2
EndChar

StartChar: R
Encoding: 82 82 49
Width: 1270
GlyphClass: 2
Flags: HW
LayerCount: 2
Fore
SplineSet
56 1049 m 256
 -8 1106 -15 1206 42 1271 c 256
 178 1426 410 1504 622 1504 c 256
 987 1504 1234 1204 1234 862 c 256
 1234 503 908 250 560 250 c 256
 440 250 314 279 194 345 c 256
 119 386 90 484 132 559 c 256
 174 634 271 662 346 621 c 256
 418 581 492 564 560 564 c 256
 770 564 920 715 920 862 c 256
 920 1058 795 1188 622 1188 c 256
 486 1188 328 1120 278 1063 c 256
 221 998 120 992 56 1049 c 256
133 562 m 256
 176 636 275 663 349 620 c 258
 1189 137 l 258
 1263 94 1290 -5 1247 -79 c 256
 1204 -153 1105 -180 1031 -137 c 258
 191 346 l 258
 117 389 90 488 133 562 c 256
362 1401 m 256
 448 1396 515 1321 510 1235 c 258
 439 -9 l 258
 434 -95 359 -162 273 -157 c 256
 187 -152 120 -77 125 9 c 258
 196 1253 l 258
 201 1339 276 1406 362 1401 c 256
EndSplineSet
EndChar

StartChar: S
Encoding: 83 83 50
Width: 1182
GlyphClass: 2
Flags: HW
LayerCount: 2
Fore
SplineSet
1098 1183 m 256
 1056 1108 959 1081 884 1123 c 256
 808 1166 715 1188 619 1188 c 256
 425 1188 322 1088 322 996 c 256
 322 935 387 890 628 817 c 256
 809 762 1180 680 1180 343 c 256
 1180 -10 835 -142 578 -142 c 256
 398 -142 218 -105 84 -30 c 256
 9 12 -20 109 22 184 c 256
 64 259 162 288 237 246 c 256
 304 209 446 172 578 172 c 256
 775 172 864 258 864 315 c 256
 864 380 791 438 536 515 c 256
 358 569 8 653 8 996 c 256
 8 1342 343 1504 619 1504 c 256
 765 1504 910 1468 1038 1397 c 256
 1113 1355 1140 1258 1098 1183 c 256
EndSplineSet
EndChar

StartChar: T
Encoding: 84 84 51
Width: 1423
GlyphClass: 2
Flags: HW
LayerCount: 2
Fore
SplineSet
713 -154 m 256
 627 -157 554 -88 551 -2 c 256
 545 182 540 366 540 551 c 256
 540 805 547 1053 559 1303 c 256
 563 1389 638 1456 724 1452 c 256
 810 1448 877 1373 873 1287 c 256
 861 1041 856 801 856 551 c 256
 856 370 859 190 865 8 c 256
 868 -78 799 -151 713 -154 c 256
3 1319 m 256
 4 1405 77 1474 163 1473 c 258
 1266 1454 l 258
 1352 1453 1421 1380 1420 1294 c 256
 1419 1208 1346 1139 1260 1140 c 258
 157 1159 l 258
 71 1160 2 1233 3 1319 c 256
EndSplineSet
EndChar

StartChar: U
Encoding: 85 85 60
Width: 1310
GlyphClass: 2
Flags: HW
LayerCount: 2
Fore
SplineSet
307 1488 m 256
 391 1470 446 1385 428 1301 c 256
 387 1113 358 935 358 734 c 256
 358 354 431 172 631 172 c 256
 882 172 952 607 952 1095 c 256
 952 1179 949 1267 945 1354 c 256
 941 1440 1009 1514 1095 1518 c 256
 1181 1522 1254 1454 1259 1368 c 256
 1264 1281 1268 1189 1268 1095 c 256
 1268 729 1259 -142 631 -142 c 256
 113 -142 42 386 42 734 c 256
 42 967 77 1169 120 1367 c 256
 138 1451 223 1506 307 1488 c 256
EndSplineSet
EndChar

StartChar: V
Encoding: 86 86 65
Width: 1368
GlyphClass: 2
Flags: HW
LayerCount: 2
Fore
SplineSet
108 1465 m 256
 189 1493 281 1449 309 1368 c 258
 623 459 l 257
 1066 1384 l 258
 1103 1461 1199 1495 1276 1458 c 256
 1353 1421 1387 1325 1350 1248 c 258
 742 -23 l 258
 729 -51 698 -84 663 -99 c 256
 580 -135 481 -93 451 -7 c 258
 11 1264 l 258
 -17 1345 27 1437 108 1465 c 256
EndSplineSet
EndChar

StartChar: W
Encoding: 87 87 66
Width: 2006
GlyphClass: 2
Flags: HW
LayerCount: 2
Fore
SplineSet
115 1500 m 256
 197 1525 286 1476 311 1394 c 258
 578 509 l 257
 885 1240 l 258
 920 1323 1022 1361 1102 1319 c 256
 1139 1300 1167 1264 1179 1230 c 258
 1415 535 l 257
 1697 1367 l 258
 1725 1448 1816 1493 1897 1465 c 256
 1978 1437 2023 1346 1995 1265 c 258
 1564 -6 l 258
 1551 -45 1518 -82 1477 -100 c 256
 1394 -136 1295 -92 1266 -6 c 258
 1014 735 l 257
 698 -16 l 258
 684 -49 650 -86 610 -102 c 256
 526 -135 428 -87 402 0 c 258
 9 1304 l 258
 -16 1386 33 1475 115 1500 c 256
EndSplineSet
EndChar

StartChar: X
Encoding: 88 88 67
Width: 1267
GlyphClass: 2
Flags: HW
LayerCount: 2
Fore
SplineSet
71 -130 m 256
 0 -82 -18 18 30 89 c 258
 940 1427 l 258
 988 1498 1088 1516 1159 1468 c 256
 1230 1420 1248 1320 1200 1249 c 258
 290 -89 l 258
 242 -160 142 -178 71 -130 c 256
112 1406 m 256
 182 1455 282 1438 332 1368 c 258
 1236 87 l 258
 1285 17 1268 -83 1198 -133 c 256
 1128 -183 1027 -165 978 -95 c 258
 74 1186 l 258
 24 1256 42 1357 112 1406 c 256
EndSplineSet
EndChar

StartChar: Y
Encoding: 89 89 68
Width: 1267
GlyphClass: 2
Flags: HW
LayerCount: 2
Fore
SplineSet
69 1415 m 256
 139 1465 238 1448 288 1378 c 258
 622 908 l 257
 977 1427 l 258
 1025 1498 1125 1516 1196 1468 c 256
 1267 1420 1285 1320 1237 1249 c 258
 755 544 l 258
 748 534 737 521 726 512 c 256
 657 454 549 468 497 542 c 258
 32 1196 l 258
 -18 1266 -1 1365 69 1415 c 256
639 -157 m 256
 553 -158 480 -89 479 -3 c 258
 468 630 l 258
 467 716 536 789 622 790 c 256
 708 791 781 722 782 636 c 258
 793 3 l 258
 794 -83 725 -156 639 -157 c 256
EndSplineSet
EndChar

StartChar: Z
Encoding: 90 90 70
Width: 1422
GlyphClass: 2
Flags: HW
LayerCount: 2
Fore
SplineSet
7 1232 m 256
 -14 1315 39 1402 122 1423 c 256
 444 1503 904 1516 1197 1450 c 256
 1331 1420 1375 1272 1286 1183 c 256
 993 889 731 558 513 234 c 257
 756 253 1001 262 1262 262 c 256
 1348 262 1420 190 1420 104 c 256
 1420 18 1348 -54 1262 -54 c 256
 895 -54 560 -72 223 -110 c 256
 86 -125 9 28 71 129 c 256
 282 476 542 837 845 1175 c 257
 630 1182 369 1160 198 1117 c 256
 115 1096 28 1149 7 1232 c 256
EndSplineSet
EndChar

StartChar: a
Encoding: 97 97 71
Width: 1269
GlyphClass: 2
Flags: HW
LayerCount: 2
Fore
SplineSet
521 172 m 256
 675 172 761 307 793 541 c 258
 857 1007 l 258
 869 1092 949 1154 1034 1142 c 256
 1119 1130 1181 1050 1169 965 c 258
 1105 497 l 258
 1069 241 933 -142 521 -142 c 256
 175 -142 2 148 2 419 c 256
 2 727 217 1158 650 1158 c 256
 777 1158 874 1112 932 1073 c 256
 1003 1025 1023 925 975 854 c 256
 927 783 827 763 756 811 c 256
 734 826 699 844 650 844 c 256
 469 844 318 627 318 419 c 256
 318 260 389 172 521 172 c 256
1034 1142 m 256
 1119 1130 1181 1050 1169 965 c 258
 1097 442 l 258
 1090 390 1086 345 1086 293 c 256
 1086 225 1090 202 1117 202 c 256
 1195 202 1267 131 1267 45 c 256
 1267 -41 1195 -112 1109 -112 c 256
 866 -112 772 114 772 293 c 256
 772 363 777 424 785 484 c 258
 857 1007 l 258
 869 1092 949 1154 1034 1142 c 256
EndSplineSet
EndChar

StartChar: acute
Encoding: 180 180 74
Width: 522
GlyphClass: 2
Flags: HW
LayerCount: 2
Fore
SplineSet
413 1546 m 256
 448 1518 454 1464 426 1430 c 256
 351 1336 290 1254 236 1135 c 256
 218 1095 166 1075 126 1093 c 256
 87 1110 67 1162 85 1203 c 256
 147 1340 222 1438 297 1532 c 256
 325 1567 379 1573 413 1546 c 256
EndSplineSet
EndChar

StartChar: ae
Encoding: 230 230 76
Width: 1885
GlyphClass: 2
Flags: HW
LayerCount: 2
Fore
SplineSet
529 -142 m 256
 205 -142 2 136 2 419 c 256
 2 718 204 1158 604 1158 c 256
 728 1158 846 1112 937 1032 c 256
 1001 975 1008 874 951 810 c 256
 894 746 793 739 729 796 c 256
 697 824 646 844 604 844 c 256
 480 844 318 636 318 419 c 256
 318 272 411 172 529 172 c 256
 691 172 775 318 811 504 c 256
 834 626 865 845 882 975 c 256
 893 1060 973 1122 1058 1111 c 256
 1143 1100 1205 1020 1194 935 c 256
 1177 801 1148 582 1121 444 c 256
 1081 234 938 -142 529 -142 c 256
1851 784 m 256
 1850 383 1338 302 1153 302 c 256
 1085 302 1026 308 958 316 c 256
 873 326 811 406 821 491 c 256
 831 576 911 638 996 628 c 256
 1057 620 1099 618 1153 618 c 256
 1350 618 1536 737 1536 784 c 256
 1536 802 1505 844 1457 844 c 256
 1291 844 1124 645 1124 419 c 256
 1124 237 1212 172 1372 172 c 256
 1467 172 1573 210 1633 264 c 256
 1697 322 1798 317 1856 253 c 256
 1914 189 1909 88 1845 30 c 256
 1713 -90 1535 -142 1372 -142 c 256
 1072 -142 810 59 810 419 c 256
 810 759 1051 1158 1457 1158 c 256
 1651 1158 1851 1010 1851 784 c 256
EndSplineSet
EndChar

StartChar: ampersand
Encoding: 38 38 78
Width: 1374
GlyphClass: 2
Flags: HW
LayerCount: 2
Fore
SplineSet
659 1518 m 256
 866 1518 1110 1375 1110 1095 c 256
 1110 762 820 645 659 580 c 256
 465 502 398 415 398 318 c 256
 398 201 494 172 639 172 c 256
 798 172 944 254 976 314 c 256
 1016 390 1113 419 1189 379 c 256
 1265 339 1294 242 1254 166 c 256
 1138 -54 866 -142 639 -142 c 256
 378 -142 82 11 82 344 c 256
 82 668 373 804 537 870 c 256
 731 948 796 992 796 1095 c 256
 796 1157 748 1204 659 1204 c 256
 569 1204 504 1154 504 1063 c 256
 504 820 960 372 1242 148 c 256
 1309 95 1320 -6 1267 -73 c 256
 1214 -140 1113 -151 1046 -98 c 256
 778 114 190 586 190 1063 c 256
 190 1362 441 1518 659 1518 c 256
EndSplineSet
EndChar

StartChar: asciicircum
Encoding: 94 94 80
Width: 718
GlyphClass: 2
Flags: HW
LayerCount: 2
Fore
SplineSet
136 1099 m 256
 99 1122 87 1175 110 1213 c 258
 276 1482 l 258
 300 1522 383 1523 410 1489 c 258
 602 1248 l 258
 629 1214 624 1160 589 1132 c 256
 555 1105 501 1111 474 1146 c 258
 353 1295 l 257
 250 1125 l 258
 227 1088 174 1076 136 1099 c 256
EndSplineSet
EndChar

StartChar: asciitilde
Encoding: 126 126 81
Width: 870
GlyphClass: 2
Flags: HW
LayerCount: 2
Fore
SplineSet
90 1073 m 256
 47 1087 23 1136 36 1177 c 256
 70 1277 147 1373 279 1373 c 256
 374 1373 445 1329 503 1290 c 256
 534 1270 558 1255 591 1255 c 256
 660 1255 684 1318 696 1350 c 256
 712 1393 764 1411 804 1394 c 256
 845 1376 865 1326 848 1286 c 256
 797 1168 702 1089 591 1089 c 256
 522 1089 461 1113 401 1158 c 256
 365 1185 334 1208 288 1208 c 256
 225 1208 201 1149 194 1127 c 256
 180 1084 131 1059 90 1073 c 256
EndSplineSet
EndChar

StartChar: asterisk
Encoding: 42 42 82
Width: 1108
GlyphClass: 2
Flags: HW
LayerCount: 2
Fore
SplineSet
1004 586 m 256
 957 531 873 522 818 569 c 256
 710 659 597 736 482 802 c 256
 362 872 238 930 109 978 c 256
 42 1003 7 1081 32 1148 c 256
 57 1215 134 1251 201 1226 c 256
 343 1173 482 1110 615 1033 c 256
 742 959 868 874 988 772 c 256
 1043 725 1050 640 1004 586 c 256
102 586 m 256
 56 640 63 725 118 772 c 256
 238 874 364 959 491 1033 c 256
 624 1110 763 1173 905 1226 c 256
 972 1251 1049 1215 1074 1148 c 256
 1099 1081 1064 1003 997 978 c 256
 868 930 744 872 624 802 c 256
 509 736 396 659 288 569 c 256
 233 522 149 531 102 586 c 256
494 1475 m 256
 564 1488 634 1439 647 1368 c 256
 675 1213 687 1062 687 915 c 256
 687 761 672 610 647 460 c 256
 635 389 566 340 495 352 c 256
 424 364 375 433 387 504 c 256
 410 640 421 776 421 915 c 256
 421 1048 411 1183 387 1322 c 256
 374 1393 423 1462 494 1475 c 256
EndSplineSet
EndChar

StartChar: at
Encoding: 64 64 83
Width: 2213
GlyphClass: 2
Flags: HW
LayerCount: 2
Fore
SplineSet
1754 -241 m 256
 1799 -314 1776 -413 1703 -458 c 256
 1536 -562 1340 -622 1129 -622 c 256
 544 -622 42 -211 42 400 c 256
 42 997 553 1552 1162 1552 c 256
 1704 1552 2170 1127 2170 564 c 256
 2170 334 2061 -132 1674 -132 c 256
 1393 -132 1274 166 1274 362 c 256
 1274 398 1276 437 1281 475 c 256
 1293 560 1373 622 1458 610 c 256
 1543 598 1605 518 1593 433 c 256
 1590 411 1591 384 1588 362 c 256
 1564 212 1619 184 1662 184 c 257
 1731 184 1856 348 1856 564 c 256
 1856 943 1542 1238 1162 1238 c 256
 745 1238 358 829 358 400 c 256
 358 -15 688 -308 1129 -308 c 256
 1278 -308 1418 -264 1537 -190 c 256
 1610 -145 1709 -168 1754 -241 c 256
1318 729 m 257
 1263 754 1206 766 1152 766 c 256
 993 766 826 631 826 372 c 256
 826 247 897 172 1021 172 c 256
 1172 172 1256 309 1281 477 c 258
 1318 729 l 257
1645 788 m 258
 1593 431 l 258
 1562 217 1416 -142 1021 -142 c 256
 723 -142 510 87 510 372 c 256
 510 779 799 1082 1152 1082 c 256
 1299 1082 1449 1034 1581 939 c 256
 1629 904 1653 842 1645 788 c 258
EndSplineSet
EndChar

StartChar: b
Encoding: 98 98 85
Width: 1163
GlyphClass: 2
Flags: HW
LayerCount: 2
Fore
SplineSet
247 1518 m 256
 333 1515 402 1442 399 1356 c 258
 357 40 l 258
 354 -46 281 -115 195 -112 c 256
 109 -109 40 -36 43 50 c 258
 85 1366 l 258
 88 1452 161 1521 247 1518 c 256
168 581 m 256
 90 616 53 711 88 789 c 256
 191 1018 384 1158 618 1158 c 256
 1023 1158 1160 776 1160 495 c 256
 1160 147 881 -142 515 -142 c 256
 455 -142 393 -135 334 -119 c 256
 251 -97 200 -10 222 73 c 256
 244 156 331 207 414 185 c 256
 446 177 481 172 515 172 c 256
 709 172 846 319 846 495 c 256
 846 722 759 844 618 844 c 256
 517 844 439 802 376 661 c 256
 341 583 246 546 168 581 c 256
EndSplineSet
EndChar

StartChar: backslash
Encoding: 92 92 86
Width: 1105
GlyphClass: 2
Flags: HW
LayerCount: 2
Fore
SplineSet
86 1442 m 256
 155 1493 255 1479 306 1410 c 256
 620 987 876 617 1074 52 c 256
 1102 -29 1058 -121 977 -149 c 256
 896 -177 804 -133 776 -52 c 256
 592 473 366 803 54 1222 c 256
 3 1291 17 1391 86 1442 c 256
EndSplineSet
EndChar

StartChar: bar
Encoding: 124 124 87
Width: 417
GlyphClass: 2
Flags: HW
LayerCount: 2
Fore
SplineSet
217 1616 m 256
 303 1616 374 1545 374 1459 c 256
 374 1038 365 365 358 -3 c 256
 356 -89 283 -159 197 -157 c 256
 111 -155 41 -83 43 3 c 256
 50 369 60 1042 60 1459 c 256
 60 1545 131 1616 217 1616 c 256
EndSplineSet
EndChar

StartChar: braceleft
Encoding: 123 123 88
Width: 695
GlyphClass: 2
Flags: HW
LayerCount: 2
Fore
SplineSet
-58 752 m 256
 -58 838 14 910 100 910 c 256
 229 910 0 1568 495 1568 c 256
 581 1568 653 1497 653 1411 c 256
 653 1325 581 1254 495 1254 c 256
 333 1254 620 594 100 594 c 256
 14 594 -58 666 -58 752 c 256
652 93 m 256
 652 7 581 -64 495 -64 c 256
 0 -64 216 594 100 594 c 256
 14 594 -57 666 -57 752 c 256
 -57 838 14 910 100 910 c 256
 616 910 310 250 495 250 c 256
 581 250 652 179 652 93 c 256
EndSplineSet
EndChar

StartChar: braceright
Encoding: 125 125 89
Width: 695
GlyphClass: 2
Flags: HW
LayerCount: 2
Fore
SplineSet
43 1411 m 256
 43 1497 114 1568 200 1568 c 256
 695 1568 479 910 595 910 c 256
 681 910 752 838 752 752 c 256
 752 666 681 594 595 594 c 256
 79 594 385 1254 200 1254 c 256
 114 1254 43 1325 43 1411 c 256
753 752 m 256
 753 666 681 594 595 594 c 256
 466 594 695 -64 200 -64 c 256
 114 -64 42 7 42 93 c 256
 42 179 114 250 200 250 c 256
 362 250 75 910 595 910 c 256
 681 910 753 838 753 752 c 256
EndSplineSet
PairPos2: "'kern' Horizontal Kerning in Arabic lookup 2 per glyph data 0" uni0622 dx=300 dy=0 dh=300 dv=0 dx=0 dy=0 dh=0 dv=0
EndChar

StartChar: bracketleft
Encoding: 91 91 90
Width: 715
GlyphClass: 2
Flags: HW
LayerCount: 2
Fore
SplineSet
672 1334 m 256
 679 1248 614 1171 528 1164 c 256
 501 1162 475 1161 448 1160 c 256
 424 1159 399 1159 376 1159 c 257
 380 1096 382 1034 382 972 c 256
 382 823 376 679 367 540 c 256
 359 409 358 390 358 266 c 256
 358 216 398 207 517 202 c 256
 603 198 671 124 667 38 c 256
 663 -48 589 -116 503 -112 c 256
 277 -101 42 -17 42 266 c 256
 42 388 43 427 51 558 c 256
 59 695 66 835 66 972 c 256
 66 1083 61 1192 48 1302 c 256
 40 1371 102 1487 216 1478 c 256
 263 1474 310 1474 361 1474 c 256
 412 1474 458 1475 502 1478 c 256
 588 1485 665 1420 672 1334 c 256
EndSplineSet
EndChar

StartChar: bracketright
Encoding: 93 93 91
Width: 726
GlyphClass: 2
Flags: HW
LayerCount: 2
Fore
SplineSet
44 1368 m 256
 57 1453 140 1512 225 1499 c 256
 313 1485 414 1475 513 1473 c 256
 616 1471 683 1368 664 1282 c 256
 630 1128 630 1064 630 875 c 256
 630 790 640 699 655 603 c 256
 670 501 684 394 684 285 c 256
 684 -40 401 -112 207 -112 c 256
 121 -112 50 -41 50 45 c 256
 50 131 121 202 207 202 c 256
 365 202 368 212 368 285 c 256
 368 368 358 459 343 555 c 256
 328 657 314 764 314 875 c 256
 314 992 315 1075 325 1169 c 257
 275 1174 222 1180 175 1187 c 256
 90 1200 31 1283 44 1368 c 256
EndSplineSet
PairPos2: "'kern' Horizontal Kerning in Arabic lookup 2 per glyph data 0" uni0622 dx=300 dy=0 dh=300 dv=0 dx=0 dy=0 dh=0 dv=0
EndChar

StartChar: brokenbar
Encoding: 166 166 92
Width: 419
GlyphClass: 2
Flags: HW
LayerCount: 2
Fore
SplineSet
204 1518 m 256
 290 1518 362 1447 362 1361 c 256
 362 1215 361 1056 358 892 c 256
 356 806 283 736 197 738 c 256
 111 740 41 812 43 898 c 256
 46 1060 46 1217 46 1361 c 256
 46 1447 118 1518 204 1518 c 256
222 654 m 256
 308 652 378 580 376 494 c 256
 372 313 366 139 358 -9 c 256
 353 -95 279 -162 193 -157 c 256
 107 -152 39 -77 44 9 c 256
 52 153 58 321 62 500 c 256
 64 586 136 656 222 654 c 256
EndSplineSet
EndChar

StartChar: c
Encoding: 99 99 93
Width: 1031
GlyphClass: 2
Flags: HW
LayerCount: 2
Fore
SplineSet
974 804 m 256
 918 739 817 732 752 788 c 256
 708 826 667 844 611 844 c 256
 470 844 318 632 318 411 c 256
 318 262 364 172 528 172 c 256
 637 172 711 200 790 248 c 256
 863 292 962 268 1006 194 c 256
 1050 120 1025 22 952 -22 c 256
 839 -90 699 -142 528 -142 c 256
 146 -142 2 168 2 411 c 256
 2 706 192 1158 611 1158 c 256
 749 1158 868 1104 958 1026 c 256
 1023 970 1030 869 974 804 c 256
EndSplineSet
EndChar

StartChar: cedilla
Encoding: 184 184 95
Width: 717
GlyphClass: 2
Flags: HW
LayerCount: 2
Fore
SplineSet
205 99 m 256
 259 166 359 176 426 122 c 256
 530 38 714 -141 714 -361 c 256
 714 -584 505 -658 319 -658 c 256
 242 -658 173 -649 117 -633 c 256
 34 -610 -14 -521 9 -438 c 256
 32 -355 120 -306 203 -329 c 256
 224 -335 274 -344 319 -344 c 256
 352 -344 394 -344 394 -324 c 257
 394 -289 280 -164 228 -122 c 256
 161 -68 151 32 205 99 c 256
EndSplineSet
EndChar

StartChar: cent
Encoding: 162 162 96
Width: 1031
GlyphClass: 2
Flags: HW
LayerCount: 2
Fore
SplineSet
547 -522 m 256
 461 -522 390 -451 390 -365 c 258
 390 8 l 258
 390 94 461 165 547 165 c 256
 633 165 704 94 704 8 c 258
 704 -365 l 258
 704 -451 633 -522 547 -522 c 256
547 844 m 256
 461 844 390 915 390 1001 c 258
 390 1316 l 258
 390 1402 461 1474 547 1474 c 256
 633 1474 704 1402 704 1316 c 258
 704 1001 l 258
 704 915 633 844 547 844 c 256
EndSplineSet
Refer: 93 99 N 1 0 0 1 0 0 2
EndChar

StartChar: comma
Encoding: 44 44 98
Width: 478
GlyphClass: 2
Flags: HW
LayerCount: 2
Fore
SplineSet
33 -343 m 256
 -41 -300 -67 -202 -24 -128 c 258
 206 268 l 258
 249 342 347 368 421 325 c 256
 495 282 521 184 478 110 c 258
 248 -286 l 258
 205 -360 107 -386 33 -343 c 256
EndSplineSet
EndChar

StartChar: currency
Encoding: 164 164 100
Width: 1109
GlyphClass: 2
Flags: HW
LayerCount: 2
Fore
SplineSet
1062 -74 m 256
 997 -130 896 -123 840 -58 c 258
 722 77 l 258
 666 142 673 243 738 299 c 256
 803 355 904 349 960 284 c 258
 1078 148 l 258
 1134 83 1127 -18 1062 -74 c 256
370 732 m 256
 307 674 205 678 147 741 c 258
 34 863 l 258
 -24 926 -20 1028 43 1086 c 256
 106 1144 208 1140 266 1077 c 258
 379 955 l 258
 437 892 433 790 370 732 c 256
1063 1088 m 256
 1127 1031 1134 930 1077 866 c 258
 976 752 l 258
 919 688 818 681 754 738 c 256
 690 795 683 897 740 961 c 258
 841 1074 l 258
 898 1138 999 1145 1063 1088 c 256
356 272 m 256
 420 215 426 114 368 50 c 258
 268 -61 l 258
 211 -125 109 -130 45 -72 c 256
 -19 -14 -23 87 34 151 c 258
 134 261 l 258
 192 325 292 329 356 272 c 256
EndSplineSet
Refer: 149 111 N 1 0 0 1 0 0 2
EndChar

StartChar: d
Encoding: 100 100 101
Width: 1197
GlyphClass: 2
Flags: HW
LayerCount: 2
Fore
SplineSet
974 1518 m 256
 1060 1516 1129 1443 1127 1357 c 258
 1109 509 l 257
 1109 200 1128 159 1139 145 c 256
 1194 79 1183 -22 1117 -77 c 256
 1051 -132 949 -122 895 -55 c 256
 795 69 794 226 794 513 c 257
 813 1365 l 258
 815 1451 888 1520 974 1518 c 256
942 756 m 256
 879 697 779 701 720 764 c 256
 661 827 611 842 567 842 c 256
 445 842 318 683 318 465 c 256
 318 257 405 172 537 172 c 256
 661 172 754 266 801 407 c 256
 828 488 919 533 1000 506 c 256
 1081 479 1127 388 1100 307 c 256
 1031 99 849 -142 537 -142 c 256
 189 -142 2 151 2 465 c 256
 2 757 177 1156 567 1156 c 256
 703 1156 841 1095 950 978 c 256
 1009 915 1005 815 942 756 c 256
EndSplineSet
EndChar

StartChar: degree
Encoding: 176 176 102
Width: 830
GlyphClass: 2
Flags: HW
LayerCount: 2
Fore
SplineSet
595 1398 m 256
 595 1492 511 1584 414 1584 c 256
 330 1584 235 1490 235 1391 c 256
 235 1304 316 1224 400 1224 c 256
 508 1224 595 1310 595 1398 c 256
705 1398 m 256
 705 1240 562 1114 400 1114 c 256
 252 1114 125 1242 125 1391 c 256
 125 1550 262 1694 414 1694 c 256
 577 1694 705 1550 705 1398 c 256
EndSplineSet
EndChar

StartChar: dieresis
Encoding: 168 168 103
Width: 688
GlyphClass: 2
Flags: HW
LayerCount: 2
Fore
SplineSet
613 1210 m 256
 613 1139 553 1094 493 1094 c 256
 423 1094 374 1151 374 1209 c 256
 374 1276 420 1333 484 1333 c 256
 555 1333 613 1278 613 1210 c 256
314 1225 m 256
 314 1152 256 1094 183 1094 c 256
 115 1094 75 1158 75 1214 c 256
 75 1280 128 1333 194 1333 c 256
 252 1333 314 1293 314 1225 c 256
EndSplineSet
EndChar

StartChar: dollar
Encoding: 36 36 105
Width: 1182
GlyphClass: 2
Flags: HW
LayerCount: 2
Fore
SplineSet
575 1701 m 256
 619 1701 657 1663 657 1619 c 258
 657 -272 l 258
 657 -317 619 -355 575 -355 c 256
 531 -355 493 -317 493 -272 c 258
 493 1619 l 258
 493 1663 531 1701 575 1701 c 256
EndSplineSet
Refer: 50 83 N 1 0 0 1 0 0 2
EndChar

StartChar: dotlessi
Encoding: 305 305 106
Width: 415
GlyphClass: 2
Flags: HW
LayerCount: 2
Fore
SplineSet
222 1128 m 256
 308 1124 376 1050 372 964 c 256
 361 736 358 208 358 0 c 256
 358 -86 286 -157 200 -157 c 256
 114 -157 43 -86 43 0 c 256
 43 212 47 736 58 978 c 256
 62 1064 136 1132 222 1128 c 256
EndSplineSet
EndChar

StartChar: e
Encoding: 101 101 107
Width: 1131
GlyphClass: 2
Flags: HW
LayerCount: 2
Fore
SplineSet
703 844 m 256
 530 844 372 661 372 440 c 256
 372 212 456 172 620 172 c 256
 728 172 822 200 875 248 c 256
 939 306 1040 301 1098 237 c 256
 1156 173 1151 72 1087 14 c 256
 948 -112 770 -142 620 -142 c 256
 324 -142 58 44 58 440 c 256
 58 785 304 1158 703 1158 c 256
 875 1158 1096 1045 1096 805 c 256
 1096 593 922 449 848 405 c 256
 640 281 403 207 161 190 c 256
 75 184 -1 250 -7 336 c 256
 -13 422 53 498 139 504 c 256
 331 517 522 576 688 675 c 256
 762 719 782 761 782 794 c 256
 782 829 754 844 703 844 c 256
EndSplineSet
EndChar

StartChar: eight
Encoding: 56 56 112
Width: 1079
GlyphClass: 2
Flags: HW
LayerCount: 2
Fore
SplineSet
511 800 m 256
 678 733 964 588 964 295 c 256
 964 37 738 -142 488 -142 c 256
 229 -142 7 48 7 324 c 256
 7 759 558 1069 856 1198 c 256
 935 1232 1030 1196 1064 1117 c 256
 1098 1038 1064 936 982 910 c 256
 688 817 322 503 322 324 c 256
 322 232 379 172 488 172 c 256
 598 172 648 241 648 295 c 256
 648 344 558 443 395 508 c 256
 234 572 2 749 2 1024 c 256
 2 1295 223 1504 504 1504 c 256
 790 1504 955 1312 1043 1085 c 256
 1074 1005 1032 913 952 882 c 256
 872 851 779 893 749 973 c 256
 684 1144 616 1188 500 1188 c 256
 369 1188 318 1111 318 1024 c 256
 318 949 417 837 511 800 c 256
EndSplineSet
EndChar

StartChar: equal
Encoding: 61 61 114
Width: 1037
GlyphClass: 2
Flags: HW
LayerCount: 2
Fore
SplineSet
53 885 m 256
 58 942 111 987 170 982 c 256
 278 973 467 968 557 968 c 256
 664 968 778 974 868 982 c 256
 925 987 979 942 984 884 c 256
 989 825 944 773 887 768 c 256
 791 760 672 754 557 754 c 256
 462 754 272 757 150 768 c 256
 93 773 48 827 53 885 c 256
54 491 m 256
 66 549 124 588 180 577 c 256
 215 570 396 564 498 564 c 256
 601 564 742 568 869 578 c 256
 927 583 979 538 984 479 c 256
 989 421 944 369 885 364 c 256
 752 354 608 348 498 348 c 256
 386 348 221 349 140 365 c 256
 83 377 43 435 54 491 c 256
EndSplineSet
EndChar

StartChar: eth
Encoding: 240 240 115
Width: 1089
GlyphClass: 2
Flags: HW
LayerCount: 2
Fore
SplineSet
122 883 m 256
 58 940 53 1042 111 1106 c 256
 246 1255 601 1493 794 1556 c 256
 876 1582 966 1537 992 1455 c 256
 1018 1373 973 1282 891 1256 c 256
 800 1227 414 971 345 894 c 256
 287 830 186 826 122 883 c 256
536 -142 m 256
 159 -142 -8 150 -8 427 c 256
 -8 740 233 1012 565 1012 c 256
 651 1012 722 940 722 854 c 256
 722 768 651 696 565 696 c 256
 417 696 308 582 308 427 c 256
 308 258 361 172 536 172 c 256
 685 172 782 244 782 525 c 256
 782 723 666 1094 201 1273 c 256
 121 1304 79 1396 110 1476 c 256
 141 1556 233 1598 313 1567 c 256
 916 1336 1096 831 1096 525 c 256
 1096 146 895 -142 536 -142 c 256
EndSplineSet
EndChar

StartChar: exclam
Encoding: 33 33 116
Width: 583
GlyphClass: 2
Flags: HW
LayerCount: 2
Fore
SplineSet
229 1517 m 256
 314 1529 394 1467 406 1382 c 256
 443 1108 453 939 453 647 c 256
 453 608 453 565 452 521 c 256
 450 435 380 370 294 370 c 256
 207 370 135 441 137 527 c 256
 138 567 138 608 138 647 c 256
 138 933 129 1086 94 1340 c 256
 82 1425 144 1505 229 1517 c 256
490 85 m 256
 490 11 424 -112 298 -112 c 256
 227 -112 92 -64 92 84 c 256
 92 194 183 286 294 286 c 256
 417 286 490 173 490 85 c 256
EndSplineSet
EndChar

StartChar: f
Encoding: 102 102 118
Width: 773
GlyphClass: 2
Flags: HW
LayerCount: 2
Fore
SplineSet
519 1766 m 256
 614 1766 682 1712 729 1659 c 256
 786 1595 781 1494 717 1437 c 256
 673 1397 627 1386 568 1406 c 256
 563 1408 547 1413 542 1413 c 257
 534 1413 524 1339 520 1295 c 256
 490 960 481 345 481 -4 c 256
 481 -90 409 -161 323 -161 c 256
 237 -161 166 -90 166 -4 c 256
 166 351 174 964 206 1322 c 256
 219 1475 272 1766 519 1766 c 256
3 817 m 256
 -3 903 62 980 148 986 c 256
 208 991 262 992 312 992 c 256
 420 992 523 985 631 972 c 256
 716 962 780 883 770 798 c 256
 760 713 680 650 595 660 c 256
 498 671 408 676 312 676 c 256
 262 676 218 675 172 672 c 256
 86 666 9 731 3 817 c 256
EndSplineSet
EndChar

StartChar: five
Encoding: 53 53 119
Width: 1113
GlyphClass: 2
Flags: HW
LayerCount: 2
Fore
SplineSet
1097 1370 m 256
 1115 1286 1060 1201 976 1183 c 256
 888 1164 776 1158 637 1158 c 256
 555 1158 471 1161 396 1166 c 257
 383 1039 l 257
 429 1049 473 1054 559 1054 c 256
 796 1054 1110 887 1110 470 c 256
 1110 86 813 -142 496 -142 c 256
 344 -142 189 -92 62 9 c 256
 -5 62 -17 163 37 230 c 256
 91 297 191 308 258 255 c 256
 327 200 412 172 496 172 c 256
 667 172 796 272 796 470 c 256
 796 661 688 738 518 738 c 256
 445 738 366 712 304 656 c 256
 280 635 237 616 196 617 c 256
 105 619 33 699 42 789 c 258
 98 1356 l 258
 106 1434 188 1515 286 1495 c 256
 348 1483 499 1474 637 1474 c 256
 764 1474 866 1482 910 1491 c 256
 994 1509 1079 1454 1097 1370 c 256
EndSplineSet
EndChar

StartChar: four
Encoding: 52 52 120
Width: 1268
GlyphClass: 2
Flags: HW
LayerCount: 2
Fore
SplineSet
781 1462 m 256
 861 1430 900 1337 868 1257 c 256
 777 1031 596 712 443 470 c 257
 663 468 903 493 1071 534 c 256
 1154 554 1241 501 1261 418 c 256
 1281 335 1228 248 1145 228 c 256
 855 157 448 132 138 176 c 256
 123 178 95 187 77 198 c 256
 0 246 -21 353 33 426 c 256
 172 614 470 1113 576 1375 c 256
 608 1455 701 1494 781 1462 c 256
842 806 m 256
 927 798 992 719 984 634 c 258
 915 -15 l 258
 905 -100 828 -165 743 -157 c 256
 658 -149 591 -70 601 15 c 258
 670 664 l 258
 678 749 757 814 842 806 c 256
EndSplineSet
EndChar

StartChar: g
Encoding: 103 103 121
Width: 1177
GlyphClass: 2
Flags: HW
LayerCount: 2
Fore
SplineSet
909 872 m 256
 864 799 765 774 692 819 c 256
 674 830 627 844 593 844 c 256
 467 844 326 654 326 420 c 256
 326 221 414 172 524 172 c 256
 684 172 777 317 817 509 c 256
 834 593 919 648 1003 631 c 256
 1087 614 1142 529 1125 445 c 256
 1079 221 924 -142 524 -142 c 256
 242 -142 12 73 12 420 c 256
 12 714 181 1158 593 1158 c 256
 679 1158 772 1140 856 1089 c 256
 929 1044 954 945 909 872 c 256
967 1128 m 256
 1053 1132 1127 1064 1131 978 c 256
 1133 926 1134 843 1134 764 c 256
 1134 337 1139 2 1043 -249 c 256
 952 -487 717 -598 503 -598 c 256
 334 -598 157 -531 38 -385 c 256
 -16 -318 -6 -218 61 -164 c 256
 128 -110 228 -120 282 -187 c 256
 331 -247 414 -282 503 -282 c 256
 621 -282 716 -225 749 -137 c 256
 809 20 820 337 820 764 c 256
 820 839 819 922 817 964 c 256
 813 1050 881 1124 967 1128 c 256
EndSplineSet
EndChar

StartChar: germandbls
Encoding: 223 223 122
Width: 1124
GlyphClass: 2
Flags: HW
LayerCount: 2
Fore
SplineSet
561 1504 m 256
 845 1504 990 1254 990 1060 c 256
 990 899 927 782 823 699 c 256
 787 670 769 648 769 634 c 257
 769 617 789 607 810 596 c 256
 915 543 1122 429 1122 182 c 256
 1122 -73 834 -144 672 -144 c 256
 590 -144 500 -131 416 -84 c 256
 341 -42 314 55 356 130 c 256
 398 205 466 222 547 194 c 256
 579 183 633 168 674 168 c 256
 722 168 804 176 804 211 c 257
 804 235 755 270 667 316 c 256
 581 361 454 450 454 619 c 256
 454 769 543 878 625 945 c 256
 659 973 674 1015 674 1060 c 256
 674 1128 627 1188 561 1188 c 256
 514 1188 464 1161 442 991 c 256
 405 703 382 365 357 -7 c 256
 351 -93 275 -159 189 -153 c 256
 103 -147 37 -71 43 15 c 256
 68 387 91 729 130 1031 c 256
 167 1318 327 1504 561 1504 c 256
EndSplineSet
EndChar

StartChar: grave
Encoding: 96 96 123
Width: 539
GlyphClass: 2
Flags: HW
LayerCount: 2
Fore
SplineSet
130 1547 m 256
 164 1574 218 1568 245 1533 c 256
 313 1446 386 1311 435 1203 c 256
 453 1163 432 1111 393 1093 c 256
 353 1075 302 1095 284 1135 c 256
 239 1233 166 1366 115 1431 c 256
 88 1466 95 1519 130 1547 c 256
EndSplineSet
EndChar

StartChar: greater
Encoding: 62 62 124
Width: 645
GlyphClass: 2
Flags: HW
LayerCount: 2
Fore
SplineSet
104 1138 m 256
 153 1168 222 1151 252 1102 c 256
 320 990 402 892 496 811 c 256
 543 770 535 681 494 647 c 256
 401 570 319 478 253 361 c 256
 225 310 158 291 107 320 c 256
 56 349 38 416 67 467 c 256
 124 568 192 651 267 732 c 257
 194 812 126 894 68 990 c 256
 38 1039 55 1108 104 1138 c 256
EndSplineSet
EndChar

StartChar: h
Encoding: 104 104 129
Width: 1126
GlyphClass: 2
Flags: HW
LayerCount: 2
Fore
SplineSet
308 1543 m 256
 394 1537 460 1461 454 1375 c 258
 357 -11 l 258
 351 -97 275 -163 189 -157 c 256
 103 -151 37 -75 43 11 c 258
 140 1397 l 258
 146 1483 222 1549 308 1543 c 256
188 260 m 256
 105 283 55 371 78 454 c 256
 163 759 302 1158 654 1158 c 256
 1004 1158 1072 826 1072 626 c 256
 1072 550 1066 474 1057 406 c 256
 1050 345 1044 282 1044 227 c 256
 1044 157 1054 100 1070 64 c 256
 1105 -14 1069 -109 990 -144 c 256
 911 -179 817 -142 782 -64 c 256
 740 32 730 133 730 227 c 256
 730 302 736 375 745 444 c 256
 752 504 758 568 758 626 c 256
 758 816 724 842 654 842 c 256
 600 842 479 715 382 370 c 256
 359 287 271 237 188 260 c 256
EndSplineSet
EndChar

StartChar: hyphen
Encoding: 45 45 130
Width: 1037
GlyphClass: 2
Flags: HW
LayerCount: 2
Fore
SplineSet
53 427 m 256
 48 485 92 539 150 544 c 256
 408 567 631 568 877 568 c 256
 936 568 985 519 985 461 c 256
 985 403 936 354 877 354 c 256
 633 354 418 351 170 330 c 256
 111 325 58 370 53 427 c 256
EndSplineSet
EndChar

StartChar: k
Encoding: 107 107 137
Width: 1019
GlyphClass: 2
Flags: HW
LayerCount: 2
Fore
SplineSet
995 -80 m 256
 952 -154 853 -180 779 -136 c 256
 536 7 288 230 111 433 c 256
 38 516 83 638 159 677 c 256
 345 771 530 923 652 1071 c 256
 706 1137 808 1148 874 1093 c 256
 940 1038 950 937 896 871 c 256
 784 735 639 606 480 501 c 257
 620 363 791 223 939 136 c 256
 1013 92 1038 -6 995 -80 c 256
267 1518 m 256
 353 1514 421 1440 417 1354 c 258
 357 -3 l 258
 353 -89 279 -157 193 -153 c 256
 107 -149 39 -75 43 11 c 258
 103 1368 l 258
 107 1454 181 1522 267 1518 c 256
EndSplineSet
EndChar

StartChar: l
Encoding: 108 108 138
Width: 419
GlyphClass: 2
Flags: HW
LayerCount: 2
Fore
SplineSet
226 1507 m 256
 312 1503 380 1429 376 1343 c 256
 360 1007 358 393 358 0 c 256
 358 -86 286 -157 200 -157 c 256
 114 -157 43 -86 43 0 c 256
 43 395 46 1007 62 1357 c 256
 66 1443 140 1511 226 1507 c 256
EndSplineSet
EndChar

StartChar: less
Encoding: 60 60 139
Width: 645
GlyphClass: 2
Flags: HW
LayerCount: 2
Fore
SplineSet
541 321 m 256
 492 291 423 308 393 357 c 256
 325 469 243 567 149 648 c 256
 102 689 110 778 151 812 c 256
 244 889 325 982 391 1098 c 256
 420 1148 488 1168 538 1139 c 256
 589 1110 608 1042 579 992 c 256
 521 890 452 808 378 727 c 257
 451 647 519 565 577 469 c 256
 607 420 590 351 541 321 c 256
EndSplineSet
EndChar

StartChar: logicalnot
Encoding: 172 172 140
Width: 975
GlyphClass: 2
Flags: HW
LayerCount: 2
Fore
SplineSet
-8 661 m 256
 -8 747 64 818 150 818 c 258
 795 818 l 258
 890 818 952 729 952 661 c 258
 952 388 l 258
 952 302 881 230 795 230 c 256
 709 230 638 302 638 388 c 258
 638 504 l 257
 150 504 l 258
 64 504 -8 575 -8 661 c 256
EndSplineSet
EndChar

StartChar: m
Encoding: 109 109 141
Width: 1582
GlyphClass: 2
Flags: HW
LayerCount: 2
Fore
SplineSet
186 1142 m 256
 270 1160 355 1105 373 1021 c 256
 393 928 406 811 406 678 c 256
 406 624 403 571 399 513 c 258
 357 -5 l 258
 350 -91 273 -156 187 -149 c 256
 101 -142 36 -65 43 21 c 258
 85 537 l 258
 89 585 90 634 90 678 c 256
 90 791 79 890 65 955 c 256
 47 1039 102 1124 186 1142 c 256
227 449 m 256
 142 460 80 540 91 625 c 256
 130 927 309 1158 550 1158 c 256
 953 1158 964 735 964 549 c 256
 964 374 952 159 938 -13 c 256
 931 -98 854 -164 768 -157 c 256
 682 -150 617 -72 624 13 c 256
 638 177 650 388 650 549 c 256
 650 801 619 844 550 844 c 256
 543 844 432 809 403 585 c 256
 392 500 312 438 227 449 c 256
799 365 m 256
 713 370 645 444 650 530 c 256
 664 805 828 1158 1142 1158 c 256
 1465 1158 1534 834 1534 651 c 256
 1534 579 1531 491 1527 403 c 256
 1523 316 1521 230 1521 169 c 256
 1521 118 1525 76 1535 41 c 256
 1557 -42 1507 -130 1424 -152 c 256
 1341 -174 1253 -124 1231 -41 c 256
 1212 28 1205 98 1205 169 c 256
 1205 242 1209 330 1213 417 c 256
 1217 503 1220 587 1220 651 c 256
 1220 820 1171 844 1142 844 c 256
 1114 844 976 733 964 514 c 256
 959 428 885 360 799 365 c 256
EndSplineSet
EndChar

StartChar: mu
Encoding: 181 181 143
Width: 1099
GlyphClass: 2
Flags: HW
LayerCount: 2
Fore
SplineSet
264 -604 m 256
 179 -613 100 -548 91 -463 c 256
 67 -220 42 82 42 367 c 256
 42 613 75 884 125 1058 c 256
 149 1140 236 1190 319 1166 c 256
 402 1142 452 1054 428 972 c 256
 392 844 358 583 358 367 c 256
 358 100 381 -194 405 -431 c 256
 414 -516 349 -595 264 -604 c 256
315 1168 m 256
 398 1147 450 1059 429 976 c 256
 400 864 362 667 362 535 c 256
 362 254 394 172 511 172 c 256
 667 172 727 582 728 1015 c 256
 728 1101 800 1172 886 1172 c 256
 972 1172 1043 1101 1043 1015 c 256
 1042 746 1097 -142 511 -142 c 256
 68 -142 48 312 48 535 c 256
 48 717 90 924 123 1054 c 256
 144 1137 232 1189 315 1168 c 256
895 1172 m 256
 981 1167 1047 1091 1042 1005 c 256
 1034 883 1034 710 1034 587 c 256
 1034 407 1039 231 1056 64 c 256
 1065 -21 1000 -100 915 -109 c 256
 830 -118 751 -53 742 32 c 256
 723 217 720 403 720 587 c 256
 720 710 720 887 728 1025 c 256
 733 1111 809 1177 895 1172 c 256
EndSplineSet
EndChar

StartChar: multiply
Encoding: 215 215 144
Width: 872
GlyphClass: 2
Flags: HW
LayerCount: 2
Fore
SplineSet
27 998 m 256
 73 1071 171 1093 244 1047 c 256
 383 960 533 833 651 715 c 256
 740 626 811 545 853 461 c 256
 891 384 860 288 783 249 c 256
 706 210 609 242 571 319 c 256
 559 343 504 418 429 493 c 256
 327 595 185 712 76 781 c 256
 3 827 -19 925 27 998 c 256
94 276 m 256
 27 329 15 431 68 498 c 256
 170 627 275 742 387 854 c 256
 449 916 512 976 577 1035 c 256
 641 1093 742 1088 800 1024 c 256
 858 960 853 859 789 801 c 256
 726 744 665 688 609 632 c 256
 505 528 410 421 316 302 c 256
 263 235 161 223 94 276 c 256
EndSplineSet
EndChar

StartChar: n
Encoding: 110 110 145
Width: 1126
GlyphClass: 2
Flags: HW
LayerCount: 2
Fore
SplineSet
113 1125 m 256
 179 1180 279 1170 334 1104 c 256
 406 1016 410 885 410 746 c 256
 410 516 380 211 357 -16 c 256
 348 -101 269 -166 184 -157 c 256
 99 -148 34 -69 43 16 c 256
 66 241 96 542 96 746 c 256
 96 829 93 899 76 925 c 257
 38 982 51 1074 113 1125 c 256
196 260 m 256
 113 282 62 370 85 453 c 256
 165 749 307 1158 681 1158 c 256
 1038 1158 1070 783 1070 609 c 256
 1070 544 1065 475 1057 406 c 256
 1050 344 1046 280 1046 221 c 256
 1046 153 1054 100 1070 64 c 256
 1105 -14 1069 -109 990 -144 c 256
 911 -179 817 -142 782 -64 c 256
 740 32 730 131 730 221 c 256
 730 296 736 372 745 444 c 256
 752 503 756 560 756 609 c 256
 756 821 716 842 681 842 c 256
 595 842 479 701 389 371 c 256
 366 288 279 238 196 260 c 256
EndSplineSet
EndChar

StartChar: nine
Encoding: 57 57 146
Width: 1208
GlyphClass: 2
Flags: HW
LayerCount: 2
Fore
SplineSet
556 1470 m 256
 856 1469 1116 1226 1116 795 c 256
 1116 444 938 17 552 -150 c 256
 473 -184 379 -146 345 -67 c 256
 311 12 348 106 427 140 c 256
 657 239 802 534 802 795 c 256
 802 1096 666 1155 556 1156 c 256
 410 1156 318 1042 318 886 c 256
 318 695 419 640 575 640 c 256
 729 640 867 704 939 773 c 256
 1001 833 1103 830 1162 768 c 256
 1221 706 1219 605 1157 545 c 256
 1021 414 811 324 575 324 c 256
 305 324 2 495 2 886 c 256
 2 1172 202 1470 556 1470 c 256
EndSplineSet
EndChar

StartChar: numbersign
Encoding: 35 35 148
Width: 1734
GlyphClass: 2
Flags: HW
LayerCount: 2
Fore
SplineSet
3 502 m 256
 6 588 80 656 166 653 c 258
 1516 602 l 258
 1602 599 1670 525 1667 439 c 256
 1664 353 1590 285 1504 288 c 258
 154 339 l 258
 68 342 0 416 3 502 c 256
95 917 m 256
 92 1003 161 1076 247 1079 c 258
 1569 1118 l 258
 1655 1121 1728 1052 1731 966 c 256
 1734 880 1665 807 1579 804 c 258
 257 765 l 258
 171 762 98 831 95 917 c 256
1023 -155 m 256
 939 -139 882 -54 898 30 c 258
 1158 1391 l 258
 1174 1475 1259 1532 1343 1516 c 256
 1427 1500 1484 1415 1468 1331 c 258
 1208 -30 l 258
 1192 -114 1107 -171 1023 -155 c 256
343 -151 m 256
 261 -126 212 -37 237 45 c 258
 644 1406 l 258
 669 1488 758 1537 840 1512 c 256
 922 1487 971 1398 946 1316 c 258
 539 -45 l 258
 514 -127 425 -176 343 -151 c 256
EndSplineSet
EndChar

StartChar: o
Encoding: 111 111 149
Width: 1109
GlyphClass: 2
Flags: HW
LayerCount: 2
Fore
SplineSet
567 844 m 256
 426 844 318 706 318 486 c 256
 318 288 430 172 540 172 c 256
 661 172 792 324 792 538 c 256
 792 721 690 844 567 844 c 256
567 1158 m 256
 934 1158 1106 815 1106 538 c 256
 1106 236 919 -142 540 -142 c 256
 190 -142 2 188 2 486 c 256
 2 786 174 1158 567 1158 c 256
EndSplineSet
EndChar

StartChar: one
Encoding: 49 49 155
Width: 715
GlyphClass: 2
Flags: HW
LayerCount: 2
Fore
SplineSet
505 -157 m 256
 419 -156 348 -85 349 1 c 258
 358 1317 l 258
 359 1403 430 1474 516 1473 c 256
 602 1472 673 1401 672 1315 c 258
 663 -1 l 258
 662 -87 591 -158 505 -157 c 256
622 1432 m 256
 685 1374 689 1272 631 1209 c 256
 517 1085 383 982 230 907 c 256
 153 869 57 901 19 978 c 256
 -19 1055 14 1151 91 1189 c 256
 207 1246 308 1324 399 1423 c 256
 457 1486 559 1490 622 1432 c 256
EndSplineSet
EndChar

StartChar: onehalf
Encoding: 189 189 156
Width: 2060
GlyphClass: 2
Flags: HW
LayerCount: 2
Fore
SplineSet
411 -34 m 256
 369 6 366 77 406 119 c 256
 759 493 1203 1079 1418 1466 c 256
 1447 1517 1515 1536 1565 1508 c 256
 1616 1479 1634 1413 1606 1362 c 256
 1376 949 931 361 564 -29 c 256
 524 -72 453 -74 411 -34 c 256
379 413 m 256
 320 417 275 469 279 527 c 258
 334 1368 l 257
 292 1343 252 1320 215 1298 c 256
 164 1268 95 1287 67 1335 c 256
 38 1385 56 1453 106 1482 c 256
 189 1530 275 1597 347 1665 c 256
 361 1678 396 1694 421 1694 c 258
 456 1694 l 258
 516 1694 567 1640 563 1580 c 258
 493 513 l 258
 489 454 437 409 379 413 c 256
1293 262 m 256
 1235 262 1186 311 1186 370 c 256
 1186 593 1342 812 1597 812 c 256
 1826 812 1968 627 1968 424 c 256
 1968 199 1851 43 1693 -86 c 258
 1541 -211 l 257
 1614 -210 1685 -211 1754 -213 c 256
 1805 -215 1856 -217 1906 -220 c 256
 1964 -223 2010 -274 2007 -333 c 256
 2004 -391 1953 -437 1894 -434 c 256
 1796 -429 1697 -426 1604 -426 c 256
 1487 -426 1373 -431 1260 -442 c 256
 1177 -450 1093 -332 1177 -255 c 258
 1464 6 l 258
 1632 159 1752 299 1752 424 c 256
 1752 541 1672 598 1583 598 c 256
 1467 598 1400 496 1400 370 c 256
 1400 311 1351 262 1293 262 c 256
EndSplineSet
EndChar

StartChar: onequarter
Encoding: 188 188 157
Width: 2006
GlyphClass: 2
Flags: HW
LayerCount: 2
Fore
SplineSet
379 413 m 256
 320 417 275 469 279 527 c 258
 334 1368 l 257
 292 1343 252 1320 215 1298 c 256
 164 1268 95 1287 67 1335 c 256
 38 1385 56 1453 106 1482 c 256
 189 1530 275 1597 347 1665 c 256
 361 1678 396 1694 421 1694 c 258
 456 1694 l 258
 516 1694 567 1640 563 1580 c 258
 493 513 l 258
 489 454 437 409 379 413 c 256
1561 785 m 256
 1615 763 1643 700 1621 645 c 256
 1545 456 1388 190 1264 -11 c 257
 1462 -9 1674 4 1821 41 c 256
 1877 54 1937 18 1950 -38 c 256
 1963 -94 1927 -154 1871 -167 c 256
 1639 -223 1302 -243 1056 -208 c 256
 1047 -207 1023 -200 1014 -194 c 256
 964 -163 946 -89 984 -38 c 256
 1097 114 1336 513 1421 725 c 256
 1443 779 1506 807 1561 785 c 256
1613 364 m 256
 1670 359 1715 304 1710 247 c 258
 1649 -378 l 258
 1644 -435 1589 -480 1532 -475 c 256
 1475 -470 1430 -415 1435 -358 c 258
 1496 267 l 258
 1501 324 1556 369 1613 364 c 256
411 -34 m 256
 369 6 366 77 406 119 c 256
 759 493 1203 1079 1418 1466 c 256
 1447 1517 1515 1536 1565 1508 c 256
 1616 1479 1634 1413 1606 1362 c 256
 1376 949 931 361 564 -29 c 256
 524 -72 453 -74 411 -34 c 256
EndSplineSet
EndChar

StartChar: ordfeminine
Encoding: 170 170 158
Width: 936
GlyphClass: 2
Flags: HW
LayerCount: 2
Fore
SplineSet
394 951 m 256
 521 951 583 1100 583 1247 c 256
 583 1368 528 1404 437 1404 c 256
 325 1404 235 1301 235 1156 c 256
 235 1026 306 951 394 951 c 256
394 841 m 256
 230 841 125 986 125 1156 c 256
 125 1343 249 1514 437 1514 c 256
 578 1514 693 1426 693 1247 c 256
 693 1094 627 841 394 841 c 256
721 1509 m 256
 748 1496 760 1462 747 1435 c 256
 725 1388 687 1246 687 1134 c 256
 687 1015 724 951 756 951 c 256
 786 951 811 926 811 896 c 256
 811 866 786 841 756 841 c 256
 600 841 577 1033 577 1134 c 256
 577 1268 613 1414 647 1483 c 256
 660 1510 694 1522 721 1509 c 256
EndSplineSet
EndChar

StartChar: oslash
Encoding: 248 248 160
Width: 1144
GlyphClass: 2
Flags: HW
LayerCount: 2
Fore
SplineSet
66 -189 m 256
 28 -164 17 -113 41 -76 c 256
 284 301 722 865 1008 1137 c 256
 1039 1167 1094 1165 1124 1133 c 256
 1154 1101 1152 1047 1121 1017 c 256
 843 752 410 193 179 -164 c 256
 154 -202 102 -213 66 -189 c 256
EndSplineSet
Refer: 149 111 N 1 0 0 1 26 0 2
EndChar

StartChar: p
Encoding: 112 112 162
Width: 1187
GlyphClass: 2
Flags: HW
LayerCount: 2
Fore
SplineSet
278 15 m 256
 278 101 350 172 436 172 c 256
 781 172 870 392 870 568 c 256
 870 793 765 844 698 844 c 256
 607 844 402 706 385 285 c 256
 382 199 308 131 222 134 c 256
 136 137 68 211 71 297 c 256
 90 788 347 1158 698 1158 c 256
 981 1158 1184 907 1184 568 c 256
 1184 270 981 -142 436 -142 c 256
 350 -142 278 -71 278 15 c 256
186 -590 m 256
 100 -586 32 -512 36 -426 c 258
 68 262 l 258
 76 393 82 504 82 603 c 256
 82 735 63 853 39 901 c 256
 1 978 33 1074 110 1112 c 256
 187 1150 283 1118 321 1041 c 256
 385 911 398 757 398 603 c 256
 398 491 390 374 382 244 c 258
 350 -440 l 258
 346 -526 272 -594 186 -590 c 256
EndSplineSet
EndChar

StartChar: paragraph
Encoding: 182 182 163
Width: 1319
GlyphClass: 2
Flags: HW
LayerCount: 2
Fore
SplineSet
620 1110 m 256
 670 1110 710 1070 710 1020 c 258
 710 -382 l 258
 710 -432 670 -472 620 -472 c 256
 570 -472 530 -432 530 -382 c 258
 530 1020 l 258
 530 1070 570 1110 620 1110 c 256
923 1050 m 256
 973 1050 1008 1010 1008 960 c 258
 1008 -442 l 258
 1008 -492 973 -532 923 -532 c 256
 873 -532 838 -492 838 -442 c 258
 838 960 l 258
 838 1010 873 1050 923 1050 c 256
1263 1028 m 256
 1198 972 1096 978 1040 1043 c 256
 963 1131 861 1188 715 1188 c 256
 498 1188 318 1015 318 811 c 256
 318 626 512 466 750 466 c 256
 809 466 868 476 924 497 c 256
 1004 527 1097 486 1127 406 c 256
 1157 326 1116 233 1036 203 c 256
 944 168 847 150 750 150 c 256
 398 150 2 394 2 811 c 256
 2 1203 336 1504 715 1504 c 256
 955 1504 1149 1399 1278 1251 c 256
 1334 1186 1328 1084 1263 1028 c 256
EndSplineSet
EndChar

StartChar: parenleft
Encoding: 40 40 164
Width: 606
GlyphClass: 2
Flags: HW
LayerCount: 2
Fore
SplineSet
429 1554 m 256
 506 1516 540 1420 502 1343 c 256
 383 1098 358 955 358 682 c 256
 358 429 420 286 548 23 c 256
 586 -54 552 -150 475 -188 c 256
 398 -226 303 -192 265 -115 c 256
 137 148 42 365 42 682 c 256
 42 979 81 1200 218 1481 c 256
 256 1558 352 1592 429 1554 c 256
EndSplineSet
EndChar

StartChar: parenright
Encoding: 41 41 165
Width: 606
GlyphClass: 2
Flags: HW
LayerCount: 2
Fore
SplineSet
177 -188 m 256
 100 -150 66 -54 104 23 c 256
 223 268 248 411 248 684 c 256
 248 937 186 1080 58 1343 c 256
 20 1420 54 1516 131 1554 c 256
 208 1592 304 1558 342 1481 c 256
 470 1218 564 1001 564 684 c 256
 564 387 525 166 388 -115 c 256
 350 -192 254 -226 177 -188 c 256
EndSplineSet
PairPos2: "'kern' Horizontal Kerning in Arabic lookup 2 per glyph data 0" uni0622 dx=320 dy=0 dh=320 dv=0 dx=0 dy=0 dh=0 dv=0
EndChar

StartChar: period
Encoding: 46 46 167
Width: 478
GlyphClass: 2
Flags: HW
LayerCount: 2
Fore
SplineSet
12 87 m 256
 12 182 100 278 206 278 c 256
 339 278 388 161 388 94 c 256
 388 17 324 -104 201 -104 c 256
 54 -104 12 20 12 87 c 256
EndSplineSet
EndChar

StartChar: plus
Encoding: 43 43 169
Width: 1033
GlyphClass: 2
Flags: HW
LayerCount: 2
Fore
SplineSet
432 1207 m 256
 516 1226 602 1172 621 1088 c 256
 657 929 674 733 674 566 c 256
 674 441 668 334 636 241 c 256
 608 160 516 116 435 144 c 256
 354 172 310 264 338 345 c 256
 345 366 358 459 358 566 c 256
 358 711 341 893 313 1018 c 256
 294 1102 348 1188 432 1207 c 256
4 622 m 256
 -6 707 56 787 141 797 c 256
 305 817 461 824 618 824 c 256
 705 824 792 822 880 818 c 256
 966 814 1034 740 1030 654 c 256
 1026 568 952 500 866 504 c 256
 782 508 699 510 618 510 c 256
 471 510 329 503 179 485 c 256
 94 475 14 537 4 622 c 256
EndSplineSet
EndChar

StartChar: q
Encoding: 113 113 171
Width: 1163
GlyphClass: 2
Flags: HW
LayerCount: 2
Fore
SplineSet
878 762 m 256
 811 709 710 720 657 787 c 256
 631 820 594 844 532 844 c 256
 421 844 318 708 318 484 c 256
 318 251 384 172 506 172 c 256
 637 172 722 265 780 450 c 256
 805 532 895 579 977 553 c 256
 1059 527 1105 438 1080 356 c 256
 1009 129 843 -144 506 -144 c 256
 122 -144 2 207 2 484 c 256
 2 756 139 1158 532 1158 c 256
 690 1158 821 1086 903 983 c 256
 956 916 945 815 878 762 c 256
975 1134 m 256
 1061 1128 1126 1051 1120 965 c 256
 1098 671 1086 380 1086 87 c 256
 1086 -81 1090 -249 1097 -418 c 256
 1101 -504 1033 -578 947 -582 c 256
 861 -586 787 -518 783 -432 c 256
 776 -259 772 -85 772 87 c 256
 772 388 784 689 806 989 c 256
 812 1075 889 1140 975 1134 c 256
EndSplineSet
EndChar

StartChar: question
Encoding: 63 63 172
Width: 1155
GlyphClass: 2
Flags: HW
LayerCount: 2
Fore
SplineSet
369 783 m 256
 293 744 196 775 157 851 c 256
 116 931 92 1014 92 1097 c 256
 92 1363 326 1518 581 1518 c 256
 852 1518 1062 1324 1062 1058 c 256
 1062 852 886 771 785 687 c 256
 705 620 687 588 687 539 c 256
 687 531 688 520 693 507 c 256
 715 444 667 353 585 327 c 256
 503 301 413 347 387 429 c 256
 378 459 373 503 373 539 c 256
 373 694 501 807 609 896 c 256
 730 996 748 1019 748 1086 c 256
 748 1144 700 1204 572 1204 c 256
 458 1204 408 1151 408 1097 c 256
 408 1067 414 1039 437 995 c 256
 476 919 445 822 369 783 c 256
732 89 m 256
 732 -21 641 -112 530 -112 c 256
 423 -112 328 -27 328 89 c 256
 328 201 418 292 530 292 c 256
 645 292 732 196 732 89 c 256
EndSplineSet
EndChar

StartChar: quoteleft
Encoding: 8216 8216 178
Width: 644
GlyphClass: 2
Flags: HW
LayerCount: 2
Fore
SplineSet
335 1359 m 256
 278 1359 235 1325 235 1225 c 256
 235 1087 298 952 389 864 c 256
 411 843 412 809 391 787 c 256
 370 765 335 765 313 786 c 256
 202 894 125 1055 125 1225 c 256
 125 1365 208 1469 335 1469 c 256
 464 1469 519 1356 519 1261 c 256
 519 1166 458 1047 335 1047 c 256
 294 1047 232 1063 201 1120 c 256
 187 1146 197 1180 223 1194 c 256
 249 1208 283 1198 297 1172 c 256
 300 1167 318 1157 335 1157 c 256
 372 1157 409 1200 409 1261 c 256
 409 1324 382 1359 335 1359 c 256
EndSplineSet
EndChar

StartChar: quotesingle
Encoding: 39 39 182
Width: 331
GlyphClass: 2
Flags: HW
LayerCount: 2
Fore
SplineSet
154 855 m 256
 124 858 102 886 105 916 c 256
 112 978 116 1051 116 1126 c 256
 116 1203 112 1284 105 1356 c 256
 102 1386 125 1413 155 1416 c 256
 185 1419 212 1396 215 1366 c 256
 222 1290 226 1207 226 1126 c 256
 226 1047 222 970 215 904 c 256
 212 874 184 852 154 855 c 256
EndSplineSet
EndChar

StartChar: r
Encoding: 114 114 183
Width: 905
GlyphClass: 2
Flags: HW
LayerCount: 2
Fore
SplineSet
900 1021 m 256
 916 937 859 852 775 836 c 256
 455 774 412 497 371 -13 c 256
 364 -99 287 -164 201 -157 c 256
 115 -150 50 -73 57 13 c 256
 94 469 133 1034 715 1146 c 256
 799 1162 884 1105 900 1021 c 256
198 -157 m 256
 113 -148 48 -69 57 16 c 256
 71 153 84 350 84 532 c 256
 84 699 69 859 49 926 c 256
 25 1008 74 1098 156 1122 c 256
 238 1146 327 1098 351 1016 c 256
 389 887 398 715 398 532 c 256
 398 336 387 133 371 -16 c 256
 362 -101 283 -166 198 -157 c 256
EndSplineSet
EndChar

StartChar: s
Encoding: 115 115 185
Width: 980
GlyphClass: 2
Flags: HW
LayerCount: 2
Fore
SplineSet
855 665 m 256
 773 639 685 686 658 768 c 256
 643 814 603 844 507 844 c 256
 420 844 365 798 365 762 c 257
 367 718 408 683 564 645 c 256
 686 615 978 535 978 239 c 256
 978 -45 679 -142 488 -142 c 256
 306 -142 130 -81 29 54 c 257
 -19 125 1 224 73 272 c 256
 144 319 220 280 290 230 c 256
 333 199 408 172 488 172 c 256
 633 172 662 208 662 235 c 256
 662 266 635 306 488 339 c 256
 372 365 50 439 50 760 c 256
 50 1006 291 1160 507 1160 c 256
 703 1160 897 1056 958 862 c 256
 984 780 937 691 855 665 c 256
EndSplineSet
EndChar

StartChar: section
Encoding: 167 167 186
Width: 916
GlyphClass: 2
Flags: HW
LayerCount: 2
Fore
SplineSet
626 872 m 256
 626 786 555 714 469 714 c 256
 406 714 318 695 318 666 c 257
 318 639 385 630 459 622 c 256
 608 607 924 513 924 209 c 256
 924 -75 614 -142 457 -142 c 256
 287 -142 150 -78 52 0 c 256
 -15 53 -26 154 27 221 c 256
 80 288 181 299 248 246 c 256
 304 202 367 172 457 172 c 256
 557 172 608 202 608 233 c 257
 608 269 550 295 427 308 c 256
 292 322 0 387 0 673 c 256
 0 943 298 1030 469 1030 c 256
 555 1030 626 958 626 872 c 256
794 1005 m 256
 710 987 624 1041 606 1125 c 256
 601 1149 568 1188 472 1188 c 256
 370 1188 316 1140 316 1104 c 256
 316 1080 316 1047 485 1029 c 256
 623 1015 924 951 924 662 c 256
 924 358 581 308 443 308 c 256
 357 308 286 379 286 465 c 256
 286 551 357 622 443 622 c 256
 511 622 607 638 607 666 c 257
 607 695 537 706 453 715 c 256
 312 730 2 782 2 1104 c 256
 2 1371 274 1504 472 1504 c 256
 640 1504 863 1425 914 1193 c 256
 932 1109 878 1023 794 1005 c 256
EndSplineSet
EndChar

StartChar: seven
Encoding: 55 55 188
Width: 1080
GlyphClass: 2
Flags: HW
LayerCount: 2
Fore
SplineSet
3 1255 m 256
 -3 1341 64 1416 150 1422 c 258
 904 1471 l 258
 994 1477 1072 1403 1071 1312 c 256
 1071 1288 1063 1260 1055 1244 c 256
 885 904 771 421 698 -25 c 256
 684 -110 602 -169 517 -155 c 256
 432 -141 373 -60 387 25 c 256
 447 396 533 794 666 1140 c 257
 170 1108 l 258
 84 1102 9 1169 3 1255 c 256
EndSplineSet
EndChar

StartChar: six
Encoding: 54 54 189
Width: 1099
GlyphClass: 2
Flags: HW
LayerCount: 2
Fore
SplineSet
548 172 m 256
 686 172 784 276 782 414 c 256
 779 602 682 654 576 654 c 256
 458 654 319 549 304 524 c 256
 259 451 161 427 88 472 c 256
 15 517 -9 615 36 688 c 256
 119 823 328 968 576 968 c 256
 840 968 1089 770 1096 420 c 256
 1102 114 866 -142 548 -142 c 256
 168 -142 2 173 2 475 c 256
 2 895 88 1474 619 1474 c 256
 703 1474 793 1461 889 1432 c 256
 971 1407 1019 1318 995 1236 c 256
 971 1154 881 1105 799 1130 c 256
 727 1151 667 1160 619 1160 c 256
 422 1160 318 935 318 475 c 256
 318 263 391 172 548 172 c 256
EndSplineSet
EndChar

StartChar: slash
Encoding: 47 47 190
Width: 965
GlyphClass: 2
Flags: HW
LayerCount: 2
Fore
SplineSet
119 -135 m 256
 46 -91 21 7 65 81 c 256
 330 521 518 945 611 1393 c 256
 629 1477 713 1533 797 1515 c 256
 881 1497 937 1413 919 1329 c 256
 816 837 612 379 335 -81 c 256
 291 -155 192 -179 119 -135 c 256
EndSplineSet
EndChar

StartChar: sterling
Encoding: 163 163 192
Width: 1454
GlyphClass: 2
Flags: HW
LayerCount: 2
Fore
SplineSet
196 717 m 256
 217 800 305 852 388 831 c 256
 442 817 508 810 578 810 c 256
 679 810 784 824 869 840 c 256
 953 856 1038 799 1054 715 c 256
 1070 631 1013 546 929 530 c 256
 827 510 705 496 578 496 c 256
 490 496 398 503 310 525 c 256
 227 546 175 634 196 717 c 256
1305 413 m 256
 1398 413 1462 334 1462 254 c 256
 1462 -58 1021 -142 828 -142 c 256
 659 -142 504 -100 397 -56 c 257
 349 -78 292 -90 225 -90 c 256
 112 -90 -8 -32 -8 110 c 256
 -8 244 132 302 219 302 c 256
 243 302 268 301 294 298 c 257
 319 369 342 496 342 687 c 258
 342 939 l 258
 342 1176 349 1504 622 1504 c 256
 787 1504 885 1410 885 1256 c 256
 885 1110 843 1035 779 1035 c 256
 750 1035 727 1039 711 1045 c 256
 701 1049 690 1053 676 1053 c 257
 657 1053 656 979 656 939 c 258
 656 687 l 258
 656 545 649 367 605 206 c 257
 672 187 753 172 828 172 c 256
 1053 172 1133 209 1149 284 c 256
 1165 359 1231 413 1305 413 c 256
EndSplineSet
EndChar

StartChar: t
Encoding: 116 116 193
Width: 775
GlyphClass: 2
Flags: HW
LayerCount: 2
Fore
SplineSet
771 800 m 256
 760 715 680 653 595 664 c 256
 531 672 462 676 388 676 c 256
 318 676 247 672 179 664 c 256
 94 654 14 716 4 801 c 256
 -6 886 56 966 141 976 c 256
 223 986 306 990 388 990 c 256
 472 990 555 986 635 976 c 256
 720 965 782 885 771 800 c 256
420 1372 m 256
 505 1362 568 1283 558 1198 c 256
 525 915 500 638 500 355 c 256
 500 259 506 172 538 172 c 256
 550 172 567 174 584 177 c 256
 668 193 751 135 767 51 c 256
 783 -33 725 -117 641 -133 c 256
 604 -140 570 -142 538 -142 c 256
 229 -142 186 191 186 355 c 256
 186 656 213 947 246 1234 c 256
 256 1319 335 1382 420 1372 c 256
EndSplineSet
EndChar

StartChar: thorn
Encoding: 254 254 194
Width: 1166
GlyphClass: 2
Flags: HW
LayerCount: 2
Fore
SplineSet
237 1518 m 256
 323 1516 393 1444 391 1358 c 258
 357 -368 l 258
 355 -454 283 -524 197 -522 c 256
 111 -520 41 -448 43 -362 c 258
 77 1364 l 258
 79 1450 151 1520 237 1518 c 256
EndSplineSet
Refer: 149 111 N 1 0 0 1 57 0 2
EndChar

StartChar: three
Encoding: 51 51 195
Width: 1078
GlyphClass: 2
Flags: HW
LayerCount: 2
Fore
SplineSet
191 913 m 256
 107 932 52 1017 71 1101 c 256
 126 1347 336 1504 581 1504 c 256
 814 1504 1028 1322 1028 1008 c 256
 1028 618 590 544 383 515 c 256
 298 503 217 564 205 649 c 256
 193 734 255 815 340 827 c 256
 597 862 712 917 712 1008 c 256
 712 1129 648 1188 567 1188 c 256
 470 1188 402 1135 379 1033 c 256
 360 949 275 894 191 913 c 256
38 226 m 256
 93 292 194 303 260 248 c 256
 318 201 401 172 484 172 c 256
 646 172 760 258 760 382 c 257
 756 490 689 532 531 532 c 256
 488 532 438 525 388 516 c 256
 303 501 221 560 206 644 c 256
 191 728 249 811 334 826 c 256
 386 835 456 846 533 846 c 256
 761 846 1065 753 1076 415 c 257
 1076 92 795 -142 484 -142 c 256
 335 -142 182 -97 60 4 c 256
 -6 59 -17 160 38 226 c 256
EndSplineSet
EndChar

StartChar: threequarters
Encoding: 190 190 196
Width: 2156
GlyphClass: 2
Flags: HW
LayerCount: 2
Fore
SplineSet
190 1246 m 256
 133 1259 96 1318 109 1375 c 256
 150 1560 320 1666 479 1666 c 256
 645 1666 802 1535 802 1307 c 256
 802 1015 484 943 331 909 c 256
 274 896 215 933 202 990 c 256
 189 1047 226 1106 283 1119 c 256
 472 1162 588 1221 588 1325 c 256
 588 1403 534 1452 472 1452 c 256
 391 1452 334 1393 319 1327 c 256
 306 1270 247 1233 190 1246 c 256
832 829 m 257
 831 576 618 430 402 430 c 256
 293 430 181 466 92 539 c 256
 47 575 39 646 76 690 c 256
 113 735 184 741 228 705 c 256
 274 667 339 646 402 646 c 256
 526 646 617 702 617 810 c 256
 617 881 559 932 464 932 c 256
 426 932 381 923 334 910 c 256
 278 895 218 931 203 987 c 256
 188 1043 224 1103 280 1118 c 256
 329 1131 390 1148 464 1148 c 256
 639 1148 824 1038 832 829 c 257
561 -34 m 256
 519 6 516 77 556 119 c 256
 909 493 1353 1079 1568 1466 c 256
 1597 1517 1665 1536 1715 1508 c 256
 1766 1479 1784 1413 1756 1362 c 256
 1526 949 1081 361 714 -29 c 256
 674 -72 603 -74 561 -34 c 256
1711 785 m 256
 1765 763 1793 700 1771 645 c 256
 1695 456 1538 190 1414 -11 c 257
 1612 -9 1824 4 1971 41 c 256
 2027 54 2087 18 2100 -38 c 256
 2113 -94 2077 -154 2021 -167 c 256
 1789 -223 1452 -243 1206 -208 c 256
 1197 -207 1173 -200 1164 -194 c 256
 1114 -163 1096 -89 1134 -38 c 256
 1247 114 1486 513 1571 725 c 256
 1593 779 1656 807 1711 785 c 256
1763 364 m 256
 1820 359 1865 304 1860 247 c 258
 1799 -378 l 258
 1794 -435 1739 -480 1682 -475 c 256
 1625 -470 1580 -415 1585 -358 c 258
 1646 267 l 258
 1651 324 1706 369 1763 364 c 256
EndSplineSet
EndChar

StartChar: two
Encoding: 50 50 197
Width: 1171
GlyphClass: 2
Flags: HW
LayerCount: 2
Fore
SplineSet
208 746 m 256
 122 746 50 818 50 904 c 256
 50 1203 261 1504 609 1504 c 256
 912 1504 1110 1267 1110 1021 c 256
 1110 717 872 482 643 273 c 258
 590 224 l 257
 603 224 614 224 626 224 c 256
 756 224 887 219 1018 213 c 256
 1104 209 1172 135 1168 49 c 256
 1164 -37 1090 -105 1004 -101 c 256
 875 -95 748 -90 626 -90 c 256
 472 -90 324 -97 176 -112 c 256
 133 -116 85 -101 52 -70 c 256
 -14 -8 -13 100 54 161 c 258
 431 505 l 258
 664 718 796 897 796 1021 c 256
 796 1101 736 1188 609 1188 c 256
 471 1188 366 1071 366 904 c 256
 366 818 294 746 208 746 c 256
EndSplineSet
EndChar

StartChar: u
Encoding: 117 117 198
Width: 1103
GlyphClass: 2
Flags: HW
LayerCount: 2
Fore
SplineSet
282 1125 m 256
 366 1107 420 1021 402 937 c 256
 381 843 358 616 358 392 c 256
 358 197 398 172 454 172 c 256
 574 172 646 238 698 612 c 256
 710 697 791 758 876 746 c 256
 961 734 1022 653 1010 568 c 256
 960 204 838 -142 454 -142 c 256
 110 -142 42 191 42 392 c 256
 42 638 65 871 94 1005 c 256
 112 1089 198 1143 282 1125 c 256
872 1128 m 256
 958 1123 1025 1048 1020 962 c 256
 1014 856 1012 748 1012 639 c 256
 1012 439 1014 290 1057 76 c 256
 1074 -8 1018 -92 934 -109 c 256
 850 -126 766 -70 749 14 c 256
 700 256 696 437 696 639 c 256
 696 754 700 868 706 980 c 256
 711 1066 786 1133 872 1128 c 256
EndSplineSet
EndChar

StartChar: underscore
Encoding: 95 95 203
Width: 600
GlyphClass: 2
Flags: HW
LayerCount: 2
Fore
SplineSet
758 45 m 256
 758 -41 686 -112 600 -112 c 258
 0 -112 l 258
 -86 -112 -158 -41 -158 45 c 256
 -158 131 -86 202 0 202 c 258
 600 202 l 258
 686 202 758 131 758 45 c 256
EndSplineSet
EndChar

StartChar: uni00B2
Encoding: 178 178 206
Width: 718
GlyphClass: 2
Flags: HW
LayerCount: 2
Fore
SplineSet
180 1243 m 256
 150 1243 125 1268 125 1298 c 256
 125 1416 208 1532 343 1532 c 256
 462 1532 543 1438 543 1327 c 256
 543 1193 461 1109 376 1027 c 258
 331 984 l 257
 535 995 l 258
 565 997 591 973 593 943 c 256
 595 913 571 887 541 885 c 258
 190 866 l 258
 176 865 162 870 151 880 c 256
 127 901 126 939 149 961 c 258
 300 1107 l 258
 389 1193 433 1238 433 1327 c 256
 433 1384 398 1422 343 1422 c 256
 280 1422 235 1370 235 1298 c 256
 235 1268 210 1243 180 1243 c 256
EndSplineSet
EndChar

StartChar: uni00B3
Encoding: 179 179 207
Width: 664
GlyphClass: 2
Flags: HW
LayerCount: 2
Fore
SplineSet
197 1294 m 256
 168 1300 149 1331 155 1360 c 256
 173 1440 242 1514 343 1514 c 256
 447 1514 523 1424 523 1326 c 256
 523 1178 350 1140 269 1123 c 256
 240 1117 210 1137 204 1166 c 256
 198 1195 218 1225 247 1231 c 256
 347 1252 413 1288 413 1326 c 256
 413 1370 379 1404 343 1404 c 256
 302 1404 271 1374 263 1336 c 256
 257 1307 226 1288 197 1294 c 256
205 1164 m 256
 198 1193 216 1223 245 1230 c 256
 272 1236 306 1244 343 1244 c 256
 436 1244 534 1191 539 1077 c 257
 539 941 426 865 310 865 c 256
 252 865 193 883 146 921 c 256
 123 940 118 976 137 999 c 256
 156 1022 192 1026 215 1007 c 256
 240 987 276 975 310 975 c 256
 382 975 428 1015 429 1075 c 256
 427 1109 402 1134 343 1134 c 256
 320 1134 294 1130 271 1124 c 256
 242 1117 212 1135 205 1164 c 256
EndSplineSet
EndChar

StartChar: uni00B9
Encoding: 185 185 208
Width: 526
GlyphClass: 2
Flags: HW
LayerCount: 2
Fore
SplineSet
322 778 m 256
 292 780 269 807 271 837 c 258
 303 1342 l 257
 263 1316 224 1296 180 1278 c 256
 152 1267 120 1281 109 1309 c 256
 98 1337 112 1369 140 1380 c 256
 211 1408 274 1451 329 1500 c 256
 338 1508 352 1514 365 1514 c 256
 397 1514 423 1487 421 1455 c 258
 381 829 l 258
 379 799 352 776 322 778 c 256
EndSplineSet
EndChar

StartChar: uni0237
Encoding: 567 567 209
Width: 404
GlyphClass: 2
Flags: HW
LayerCount: 2
Fore
SplineSet
201 1128 m 256
 287 1128 358 1057 358 971 c 256
 358 664 357 417 350 219 c 256
 335 -183 306 -572 -50 -572 c 256
 -136 -572 -207 -500 -207 -414 c 256
 -207 -328 -136 -256 -50 -256 c 256
 16 -256 24 -98 36 231 c 256
 43 421 44 664 44 971 c 256
 44 1057 115 1128 201 1128 c 256
EndSplineSet
EndChar

StartChar: uni060C
Encoding: 1548 1548 210
Width: 644
GlyphClass: 2
Flags: HW
LayerCount: 2
Fore
SplineSet
335 -40 m 256
 208 -40 125 64 125 204 c 256
 125 374 202 535 313 643 c 256
 335 664 370 664 391 642 c 256
 412 620 411 586 389 565 c 256
 298 477 235 342 235 204 c 256
 235 104 278 70 335 70 c 256
 382 70 409 105 409 168 c 256
 409 229 372 272 335 272 c 256
 318 272 300 262 297 257 c 256
 283 231 249 221 223 235 c 256
 197 249 187 283 201 309 c 256
 232 366 294 382 335 382 c 256
 458 382 519 263 519 168 c 256
 519 73 464 -40 335 -40 c 256
EndSplineSet
EndChar

StartChar: uni061F
Encoding: 1567 1567 213
Width: 1105
GlyphClass: 2
Flags: HW
LayerCount: 2
Fore
SplineSet
738 773 m 256
 664 817 640 915 682 988 c 256
 685 995 698 1039 698 1066 c 256
 698 1131 662 1158 617 1158 c 256
 480 1158 408 1045 408 995 c 257
 408 961 455 919 526 862 c 256
 630 779 747 668 747 480 c 256
 747 391 679 319 593 319 c 256
 500 319 434 386 432 472 c 256
 431 510 425 547 320 624 c 256
 246 679 92 792 92 983 c 256
 92 1209 292 1474 617 1474 c 256
 844 1474 1012 1287 1012 1066 c 256
 1012 978 995 898 954 828 c 256
 910 754 812 729 738 773 c 256
386 89 m 256
 386 196 471 292 587 292 c 256
 699 292 790 201 790 89 c 256
 790 -26 694 -112 587 -112 c 256
 477 -112 386 -22 386 89 c 256
EndSplineSet
EndChar

StartChar: uni0660
Encoding: 1632 1632 265
Width: 737
GlyphClass: 2
Flags: HW
LayerCount: 2
Fore
SplineSet
272 395 m 256
 272 346 322 292 380 292 c 256
 413 292 464 334 464 404 c 256
 464 460 433 486 392 486 c 256
 315 486 272 434 272 395 c 256
48 395 m 256
 48 584 217 712 392 712 c 256
 567 712 690 568 690 404 c 256
 690 236 567 68 380 68 c 256
 198 68 48 216 48 395 c 256
EndSplineSet
EndChar

StartChar: uni0661
Encoding: 1633 1633 266
Width: 580
GlyphClass: 2
Flags: HW
LayerCount: 2
Fore
SplineSet
129 1320 m 256
 210 1348 301 1303 329 1222 c 256
 475 797 558 501 558 0 c 256
 558 -86 486 -157 400 -157 c 256
 314 -157 243 -86 243 0 c 256
 243 467 175 699 31 1120 c 256
 3 1201 48 1292 129 1320 c 256
EndSplineSet
EndChar

StartChar: uni0662
Encoding: 1634 1634 267
Width: 1014
GlyphClass: 2
Flags: HW
LayerCount: 2
Fore
SplineSet
854 1354 m 256
 940 1354 1012 1282 1012 1196 c 256
 1012 914 933 512 578 512 c 256
 214 512 88 962 33 1110 c 256
 3 1190 45 1282 125 1312 c 256
 205 1342 296 1299 328 1220 c 256
 462 886 498 826 565 826 c 256
 639 826 696 892 696 1196 c 256
 696 1282 768 1354 854 1354 c 256
119 1310 m 256
 198 1343 292 1305 325 1226 c 256
 472 873 609 479 609 0 c 256
 609 -86 537 -157 451 -157 c 256
 365 -157 294 -86 294 0 c 256
 294 419 177 763 35 1104 c 256
 2 1183 40 1277 119 1310 c 256
EndSplineSet
EndChar

StartChar: uni0663
Encoding: 1635 1635 268
Width: 1285
GlyphClass: 2
Flags: HW
LayerCount: 2
Fore
SplineSet
1100 1373 m 256
 1185 1380 1263 1315 1270 1229 c 256
 1276 1162 1279 1100 1279 1040 c 256
 1279 821 1231 510 940 510 c 256
 593 510 558 898 558 1166 c 256
 558 1252 609 1323 695 1323 c 256
 781 1323 852 1252 852 1166 c 256
 852 875 873 826 914 826 c 257
 957 826 968 886 968 977 c 256
 968 1041 963 1119 956 1203 c 256
 949 1289 1015 1366 1100 1373 c 256
695 1324 m 256
 781 1324 850 1252 852 1166 c 256
 857 906 864 510 509 510 c 256
 196 510 135 807 31 1108 c 256
 3 1189 47 1281 128 1309 c 256
 209 1337 301 1293 329 1212 c 256
 456 846 472 826 502 826 c 256
 542 826 558 853 558 1166 c 256
 558 1252 609 1324 695 1324 c 256
128 1309 m 256
 209 1337 301 1293 329 1212 c 256
 469 810 567 460 567 0 c 256
 567 -86 495 -157 409 -157 c 256
 323 -157 252 -86 252 0 c 256
 252 414 168 714 31 1108 c 256
 3 1189 47 1281 128 1309 c 256
EndSplineSet
EndChar

StartChar: uni0664
Encoding: 1636 1636 269
Width: 1037
GlyphClass: 2
Flags: HW
LayerCount: 2
Fore
SplineSet
808 1182 m 256
 808 1096 736 1024 650 1024 c 256
 457 1024 342 956 342 905 c 256
 342 833 447 759 553 732 c 256
 636 711 689 624 668 541 c 256
 647 458 560 405 477 426 c 256
 311 467 26 624 26 905 c 256
 26 1272 469 1340 650 1340 c 256
 736 1340 808 1268 808 1182 c 256
661 637 m 256
 693 557 653 465 573 433 c 256
 429 376 318 296 318 242 c 256
 318 177 429 172 560 172 c 256
 659 172 761 192 815 215 c 256
 894 249 988 211 1022 132 c 256
 1056 53 1018 -41 939 -75 c 256
 828 -122 695 -142 514 -142 c 256
 325 -142 2 -98 2 211 c 256
 2 491 287 658 457 725 c 256
 537 757 629 717 661 637 c 256
EndSplineSet
EndChar

StartChar: uni0665
Encoding: 1637 1637 270
Width: 1150
GlyphClass: 2
Flags: HW
LayerCount: 2
Fore
SplineSet
583 -142 m 256
 289 -142 2 18 2 348 c 256
 2 726 347 1021 515 1157 c 256
 582 1211 682 1201 736 1134 c 256
 790 1067 781 967 714 913 c 256
 547 777 318 528 318 348 c 256
 318 246 377 172 583 172 c 256
 780 172 832 235 832 332 c 256
 832 567 495 863 221 1058 c 256
 151 1108 134 1207 184 1277 c 256
 234 1347 333 1364 403 1314 c 256
 655 1135 1148 797 1148 332 c 256
 1148 -3 854 -142 583 -142 c 256
EndSplineSet
EndChar

StartChar: uni0666
Encoding: 1638 1638 271
Width: 1136
GlyphClass: 2
Flags: HW
LayerCount: 2
Fore
SplineSet
5 1130 m 256
 -9 1215 49 1297 134 1311 c 256
 228 1327 321 1334 412 1334 c 256
 684 1334 960 1215 960 856 c 256
 960 417 974 335 1099 66 c 256
 1135 -12 1101 -107 1023 -143 c 256
 945 -179 849 -144 813 -66 c 256
 674 233 644 415 644 856 c 256
 644 999 622 1018 412 1018 c 256
 335 1018 260 1013 186 1001 c 256
 101 987 19 1045 5 1130 c 256
EndSplineSet
EndChar

StartChar: uni0667
Encoding: 1639 1639 272
Width: 1158
GlyphClass: 2
Flags: HW
LayerCount: 2
Fore
SplineSet
76 1299 m 256
 149 1345 247 1323 293 1250 c 256
 409 1066 510 896 589 704 c 257
 660 903 752 1082 861 1275 c 256
 903 1350 1001 1376 1076 1334 c 256
 1151 1292 1177 1194 1135 1119 c 256
 924 746 805 478 754 -16 c 256
 747 -84 693 -142 625 -155 c 256
 536 -171 449 -106 440 -16 c 256
 390 473 256 719 27 1082 c 256
 -19 1155 3 1253 76 1299 c 256
EndSplineSet
EndChar

StartChar: uni0668
Encoding: 1640 1640 273
Width: 1168
GlyphClass: 2
Flags: HW
LayerCount: 2
Fore
SplineSet
1091 -148 m 256
 1018 -193 919 -170 874 -97 c 256
 756 94 656 269 580 463 c 257
 506 273 411 106 294 -83 c 256
 249 -156 150 -179 77 -134 c 256
 4 -89 -19 10 26 83 c 256
 258 457 370 688 421 1182 c 256
 428 1250 482 1308 550 1321 c 256
 639 1337 726 1272 735 1182 c 256
 785 691 910 444 1142 69 c 256
 1187 -4 1164 -103 1091 -148 c 256
EndSplineSet
EndChar

StartChar: uni0669
Encoding: 1641 1641 274
Width: 1022
GlyphClass: 2
Flags: HW
LayerCount: 2
Fore
SplineSet
451 1356 m 256
 804 1356 873 1004 881 777 c 256
 893 440 918 196 982 73 c 256
 1022 -3 991 -100 915 -140 c 256
 839 -180 742 -149 703 -73 c 256
 590 148 579 430 566 766 c 256
 557 1007 508 1042 439 1042 c 256
 377 1042 318 962 318 823 c 256
 318 753 337 722 484 722 c 256
 522 722 574 727 584 728 c 256
 669 738 749 676 759 591 c 256
 769 506 707 426 622 416 c 256
 598 413 544 408 484 408 c 256
 275 408 2 511 2 823 c 256
 2 1030 122 1356 451 1356 c 256
EndSplineSet
EndChar

StartChar: uni066B
Encoding: 1643 1643 276
Width: 454
GlyphClass: 2
Flags: HW
LayerCount: 2
Fore
SplineSet
416 649 m 256
 495 615 533 521 499 442 c 258
 117 -445 l 258
 83 -524 -11 -562 -90 -528 c 256
 -169 -494 -207 -400 -173 -321 c 258
 209 566 l 258
 243 645 337 683 416 649 c 256
EndSplineSet
EndChar

StartChar: uni06F4
Encoding: 1780 1780 296
Width: 1118
GlyphClass: 2
Flags: HW
LayerCount: 2
Fore
SplineSet
974 1284 m 256
 997 1201 946 1114 863 1091 c 256
 689 1044 617 919 617 688 c 256
 617 602 545 531 459 531 c 256
 373 531 302 602 302 688 c 256
 302 995 433 1300 781 1395 c 256
 864 1418 951 1367 974 1284 c 256
1095 619 m 256
 1104 534 1039 455 954 446 c 256
 907 441 863 440 824 440 c 256
 713 440 613 456 525 482 c 257
 556 326 566 167 566 0 c 256
 566 -86 494 -157 408 -157 c 256
 322 -157 251 -86 251 0 c 256
 251 339 206 599 48 845 c 256
 12 902 15 997 79 1051 c 256
 148 1109 255 1095 308 1021 c 256
 414 872 533 756 824 756 c 256
 857 756 889 757 922 760 c 256
 1007 769 1086 704 1095 619 c 256
EndSplineSet
EndChar

StartChar: uni06F5
Encoding: 1781 1781 297
Width: 1155
GlyphClass: 2
Flags: HW
LayerCount: 2
Fore
SplineSet
235 1256 m 256
 283 1327 382 1348 453 1300 c 256
 637 1177 1152 814 1152 342 c 256
 1152 100 1023 -146 772 -146 c 256
 630 -146 524 -56 450 36 c 256
 396 103 406 203 473 257 c 256
 540 311 641 301 695 234 c 256
 728 193 760 169 782 169 c 257
 803 169 838 187 838 342 c 256
 838 584 467 913 279 1038 c 256
 208 1086 187 1185 235 1256 c 256
657 267 m 256
 729 220 751 122 704 50 c 256
 629 -66 511 -144 378 -144 c 256
 155 -144 2 58 2 317 c 256
 2 737 338 1022 574 1153 c 256
 649 1195 746 1166 788 1091 c 256
 830 1016 801 919 726 877 c 256
 532 770 318 553 318 317 c 256
 318 174 368 170 378 170 c 256
 388 170 409 172 440 220 c 256
 487 292 585 314 657 267 c 256
EndSplineSet
EndChar

StartChar: uni06F6
Encoding: 1782 1782 298
Width: 976
GlyphClass: 2
Flags: HW
LayerCount: 2
Fore
SplineSet
809 1042 m 256
 758 973 658 959 589 1010 c 256
 556 1035 527 1042 501 1042 c 256
 419 1042 318 947 318 839 c 256
 318 771 371 712 528 712 c 256
 609 712 678 732 755 765 c 256
 834 799 927 761 961 682 c 256
 995 603 957 509 878 475 c 256
 781 434 665 398 528 398 c 256
 307 398 2 515 2 839 c 256
 2 1113 225 1356 501 1356 c 256
 595 1356 692 1325 777 1262 c 256
 846 1211 860 1111 809 1042 c 256
957 691 m 256
 996 614 964 518 887 479 c 256
 619 344 458 170 324 -76 c 256
 283 -151 186 -179 111 -138 c 256
 36 -97 7 1 48 76 c 256
 205 364 419 596 745 761 c 256
 822 800 918 768 957 691 c 256
EndSplineSet
EndChar

StartChar: uniE000
Encoding: 57344 57344 304
Width: 509
GlyphClass: 2
Flags: HW
LayerCount: 2
Fore
SplineSet
54 141 m 256
 54 219 124 293 212 293 c 256
 316 293 365 178 365 141 c 256
 365 105 333 -24 209 -24 c 256
 83 -24 54 102 54 141 c 256
EndSplineSet
EndChar

StartChar: uniE001
Encoding: 57345 57345 305
Width: 660
GlyphClass: 2
Flags: HW
LayerCount: 2
Fore
SplineSet
17 25 m 256
 -25 81 -10 161 44 200 c 256
 132 265 248 308 380 308 c 256
 495 308 665 259 665 99 c 256
 665 17 607 -41 538 -41 c 256
 477 -41 431 -7 420 43 c 256
 417 54 404 58 380 58 c 256
 302 58 240 33 192 -2 c 256
 134 -44 56 -27 17 25 c 256
EndSplineSet
EndChar

StartChar: uniE002
Encoding: 57346 57346 306
Width: 696
GlyphClass: 2
Flags: HW
LayerCount: 2
Fore
SplineSet
402 589 m 256
 526 589 674 520 674 371 c 256
 674 185 493 37 356 -2 c 256
 291 -21 220 18 201 83 c 256
 182 148 219 201 287 238 c 256
 311 251 405 305 405 328 c 256
 405 341 397 344 379 344 c 256
 330 344 177 288 158 280 c 256
 91 250 25 252 -16 307 c 256
 -56 362 -44 442 11 482 c 256
 95 543 253 589 402 589 c 256
EndSplineSet
EndChar

StartChar: uniE003
Encoding: 57347 57347 307
Width: 696
GlyphClass: 2
Flags: HW
LayerCount: 2
Fore
SplineSet
406 22 m 256
 349 60 333 138 371 195 c 256
 374 200 378 210 378 230 c 256
 378 257 365 281 308 281 c 256
 270 281 247 249 247 234 c 256
 247 195 258 182 317 128 c 256
 367 82 372 2 326 -48 c 256
 280 -98 199 -102 149 -56 c 256
 94 -6 -3 83 -3 234 c 256
 -3 409 150 531 308 531 c 256
 469 531 628 417 628 230 c 256
 628 167 612 106 579 57 c 256
 541 0 463 -16 406 22 c 256
EndSplineSet
EndChar

StartChar: uniE007
Encoding: 57351 57351 311
Width: 1067
GlyphClass: 2
Flags: HW
LayerCount: 2
Fore
SplineSet
57 1354 m 256
 25 1414 48 1491 108 1523 c 258
 702 1840 l 258
 762 1872 839 1849 871 1789 c 256
 903 1729 880 1652 820 1620 c 258
 226 1303 l 258
 166 1271 89 1294 57 1354 c 256
EndSplineSet
EndChar

StartChar: uniE008
Encoding: 57352 57352 312
Width: 250
GlyphClass: 2
Flags: HW
LayerCount: 2
Fore
SplineSet
-158 45 m 256
 -158 131 -86 202 0 202 c 258
 250 202 l 258
 336 202 408 131 408 45 c 256
 408 -41 336 -112 250 -112 c 258
 0 -112 l 258
 -86 -112 -158 -41 -158 45 c 256
EndSplineSet
EndChar

StartChar: uniE009
Encoding: 57353 57353 313
Width: 150
GlyphClass: 2
Flags: HW
LayerCount: 2
Fore
SplineSet
-158 45 m 256
 -158 131 -86 202 0 202 c 258
 150 202 l 258
 236 202 308 131 308 45 c 256
 308 -41 236 -112 150 -112 c 258
 0 -112 l 258
 -86 -112 -158 -41 -158 45 c 256
EndSplineSet
EndChar

StartChar: uniE00C
Encoding: 57356 57356 316
Width: 1069
GlyphClass: 2
Flags: HW
LayerCount: 2
Fore
SplineSet
541 814 m 256
 385 814 304 709 304 508 c 256
 304 307 385 202 541 202 c 256
 697 202 778 307 778 508 c 256
 778 709 697 814 541 814 c 256
541 1128 m 256
 923 1128 1094 803 1094 508 c 256
 1094 213 923 -112 541 -112 c 256
 159 -112 -10 213 -10 508 c 256
 -10 803 159 1128 541 1128 c 256
EndSplineSet
EndChar

StartChar: uniE00D
Encoding: 57357 57357 317
Width: 950
GlyphClass: 2
Flags: HW
LayerCount: 2
Fore
SplineSet
147 -158 m 256
 61 -158 -10 -86 -10 0 c 258
 -10 584 l 258
 -10 845 142 1128 482 1128 c 256
 822 1128 974 845 974 584 c 258
 974 0 l 258
 974 -86 903 -158 817 -158 c 256
 731 -158 660 -86 660 0 c 258
 660 584 l 258
 660 747 602 814 482 814 c 256
 362 814 304 747 304 584 c 258
 304 0 l 258
 304 -86 233 -158 147 -158 c 256
EndSplineSet
EndChar

StartChar: uniE00E
Encoding: 57358 57358 318
Width: 850
GlyphClass: 2
Flags: HW
LayerCount: 2
Fore
SplineSet
147 -158 m 256
 61 -158 -10 -86 -10 0 c 258
 -10 598 l 258
 -10 845 116 1128 432 1128 c 256
 748 1128 874 845 874 598 c 258
 874 0 l 258
 874 -86 803 -158 717 -158 c 256
 631 -158 560 -86 560 0 c 258
 560 598 l 258
 560 775 504 814 432 814 c 256
 360 814 304 775 304 598 c 258
 304 0 l 258
 304 -86 233 -158 147 -158 c 256
EndSplineSet
EndChar

StartChar: uniE012
Encoding: 57362 57362 321
Width: 0
GlyphClass: 2
Flags: H
LayerCount: 2
Fore
SplineSet
435 1721 m 256
 435 1691 410 1666 380 1666 c 256
 251 1666 135 1608 135 1555 c 256
 135 1527 156 1503 236 1482 c 256
 313 1462 411 1422 411 1315 c 256
 411 1183 221 1111 14 1111 c 256
 -16 1111 -41 1136 -41 1166 c 256
 -41 1196 -16 1221 14 1221 c 256
 224 1221 301 1282 301 1315 c 256
 301 1336 285 1356 208 1376 c 256
 136 1395 25 1431 25 1542 c 256
 25 1724 237 1776 380 1776 c 256
 410 1776 435 1751 435 1721 c 256
EndSplineSet
EndChar

StartChar: uniE014
Encoding: 57364 57364 323
Width: 1693
GlyphClass: 2
Flags: HW
LayerCount: 2
Fore
SplineSet
318 616 m 256
 318 416 552 202 752 202 c 256
 1158 202 1376 408 1376 760 c 256
 1376 972 1178 1204 831 1204 c 256
 585 1204 318 991 318 616 c 256
2 616 m 256
 2 1153 403 1518 831 1518 c 256
 1322 1518 1690 1172 1690 760 c 256
 1690 222 1292 -112 752 -112 c 256
 384 -112 2 214 2 616 c 256
EndSplineSet
EndChar

StartChar: uniE015
Encoding: 57365 57365 324
Width: 1693
GlyphClass: 2
Flags: HW
LayerCount: 2
Fore
SplineSet
1059 871 m 256
 1027 834 969 830 932 862 c 256
 908 884 884 894 850 894 c 256
 749 894 660 791 660 676 c 256
 660 580 697 528 803 528 c 256
 865 528 908 545 954 572 c 256
 996 598 1051 583 1077 541 c 256
 1103 499 1090 444 1048 418 c 256
 983 378 902 349 803 349 c 256
 593 349 479 503 479 676 c 256
 479 871 628 1073 850 1073 c 256
 928 1073 997 1044 1050 998 c 256
 1087 966 1091 908 1059 871 c 256
EndSplineSet
EndChar

StartChar: uniE016
Encoding: 57366 57366 325
Width: 1667
GlyphClass: 2
Flags: HW
LayerCount: 2
Fore
SplineSet
564 805 m 256
 525 835 516 891 546 930 c 256
 606 1011 702 1058 800 1058 c 256
 939 1058 1104 960 1104 786 c 256
 1104 698 1058 620 988 576 c 257
 1022 550 1058 528 1095 508 c 256
 1138 484 1154 429 1130 386 c 256
 1106 343 1051 327 1008 351 c 256
 914 403 814 471 740 562 c 256
 730 574 722 594 720 612 c 256
 716 663 758 709 810 709 c 256
 900 709 924 748 924 786 c 256
 924 826 874 877 800 877 c 256
 758 877 715 856 690 823 c 256
 660 784 603 775 564 805 c 256
720 946 m 256
 769 944 807 902 805 853 c 256
 799 707 786 553 772 414 c 256
 767 365 722 329 673 334 c 256
 624 339 588 385 593 434 c 256
 607 570 620 720 626 861 c 256
 628 910 671 948 720 946 c 256
EndSplineSet
EndChar

StartChar: uniE01D
Encoding: 57373 57373 332
Width: 1478
GlyphClass: 2
Flags: HW
LayerCount: 2
Fore
SplineSet
1097 168 m 256
 1159 168 1206 220 1206 253 c 256
 1206 292 1171 332 1109 332 c 256
 1051 332 1036 314 1036 263 c 256
 1036 195 1079 168 1097 168 c 256
1097 -56 m 256
 919 -56 810 107 810 263 c 256
 810 436 943 556 1109 556 c 256
 1271 556 1430 438 1430 253 c 256
 1430 62 1255 -56 1097 -56 c 256
272 1188 m 256
 272 1127 323 1080 357 1080 c 256
 397 1080 434 1113 434 1175 c 256
 434 1234 417 1248 367 1248 c 256
 298 1248 272 1205 272 1188 c 256
48 1188 m 256
 48 1367 212 1474 367 1474 c 256
 541 1474 660 1340 660 1175 c 256
 660 1013 541 856 357 856 c 256
 167 856 48 1029 48 1188 c 256
EndSplineSet
EndChar

StartChar: uniE01E
Encoding: 57374 57374 333
Width: 1857
GlyphClass: 2
Flags: HW
LayerCount: 2
Fore
SplineSet
1423 1204 m 256
 1828 1204 1854 669 1854 399 c 256
 1854 -29 1431 -112 1005 -112 c 258
 775 -112 l 258
 689 -112 618 -41 618 45 c 256
 618 131 689 202 775 202 c 258
 1005 202 l 258
 1465 202 1540 285 1540 399 c 256
 1540 759 1466 888 1404 888 c 256
 1345 888 1312 798 1312 678 c 256
 1312 600 1341 572 1440 572 c 256
 1487 572 1532 583 1572 600 c 256
 1651 633 1745 593 1778 514 c 256
 1811 435 1771 341 1692 308 c 256
 1620 279 1535 258 1440 258 c 256
 1213 258 998 390 998 665 c 256
 998 846 1086 1204 1423 1204 c 256
619 64 m 256
 629 149 709 211 794 201 c 256
 1100 164 1358 28 1358 -234 c 256
 1358 -526 1041 -668 703 -668 c 256
 245 -668 22 -401 22 -62 c 256
 22 111 69 293 135 473 c 256
 164 554 256 596 337 567 c 256
 418 538 460 446 431 365 c 256
 373 205 338 53 338 -62 c 256
 338 -245 385 -352 703 -352 c 256
 1007 -352 1044 -252 1044 -234 c 257
 1044 -216 1034 -144 756 -111 c 256
 671 -101 609 -21 619 64 c 256
EndSplineSet
EndChar

StartChar: uniE021
Encoding: 57377 57377 336
Width: 2243
GlyphClass: 2
Flags: HW
LayerCount: 2
Fore
SplineSet
690 -749 m 256
 894 -749 1330 -693 1330 -325 c 256
 1330 -83 1169 -8 949 31 c 256
 865 46 801 69 801 94 c 256
 801 159 883 261 1096 324 c 257
 1188 80 1363 -112 1712 -112 c 258
 2243 -112 l 258
 2329 -112 2400 -41 2400 45 c 256
 2400 131 2329 202 2243 202 c 258
 1712 202 l 258
 1477 202 1426 285 1356 550 c 256
 1337 624 1259 678 1178 665 c 256
 884 616 486 460 486 85 c 256
 486 -178 753 -261 889 -279 c 256
 958 -288 1014 -304 1014 -325 c 256
 1014 -346 925 -434 690 -434 c 256
 411 -434 338 -368 338 -151 c 256
 338 -50 361 78 398 210 c 256
 421 293 371 381 288 404 c 256
 205 427 117 377 94 294 c 256
 53 146 22 -4 22 -151 c 256
 22 -563 315 -749 690 -749 c 256
EndSplineSet
EndChar

StartChar: uniE022
Encoding: 57378 57378 337
Width: 1712
GlyphClass: 2
Flags: HW
LayerCount: 2
Fore
SplineSet
690 -749 m 256
 894 -749 1330 -693 1330 -325 c 256
 1330 -83 1169 -8 949 31 c 256
 865 46 801 69 801 94 c 256
 801 159 883 261 1096 324 c 257
 1188 80 1363 -112 1711 -112 c 257
 1712 -112 l 257
 1798 -112 1869 -41 1869 45 c 256
 1869 131 1798 202 1712 202 c 257
 1711 202 l 257
 1477 202 1424 285 1356 550 c 256
 1337 624 1259 678 1178 665 c 256
 884 616 486 460 486 85 c 256
 486 -178 753 -261 889 -279 c 256
 958 -288 1014 -304 1014 -325 c 256
 1014 -346 925 -434 690 -434 c 256
 411 -434 338 -368 338 -151 c 256
 338 -50 361 78 398 210 c 256
 421 293 371 381 288 404 c 256
 205 427 117 377 94 294 c 256
 53 146 22 -4 22 -151 c 256
 22 -563 315 -749 690 -749 c 256
EndSplineSet
EndChar

StartChar: uniE030
Encoding: 57392 57392 345
Width: 0
GlyphClass: 2
Flags: H
LayerCount: 2
Fore
SplineSet
142 1773 m 256
 172 1778 200 1758 205 1728 c 256
 220 1635 229 1539 229 1441 c 256
 229 1431 229 1418 229 1410 c 257
 272 1450 327 1477 393 1477 c 256
 485 1477 570 1409 570 1309 c 256
 570 1133 368 1102 258 1102 c 256
 223 1102 188 1103 154 1107 c 256
 99 1113 47 1124 -6 1138 c 256
 -35 1146 -53 1176 -45 1205 c 256
 -37 1234 -7 1252 22 1244 c 256
 50 1237 77 1231 105 1226 c 257
 114 1300 119 1372 119 1441 c 256
 119 1533 112 1623 97 1710 c 256
 92 1740 112 1768 142 1773 c 256
227 1212 m 257
 237 1212 248 1212 258 1212 c 256
 378 1212 460 1249 460 1309 c 256
 460 1341 435 1367 393 1367 c 256
 324 1367 266 1305 227 1212 c 257
EndSplineSet
EndChar

StartChar: uniE031
Encoding: 57393 57393 346
Width: 883
GlyphClass: 2
Flags: HW
LayerCount: 2
Fore
SplineSet
719 543 m 256
 674 501 602 503 560 548 c 256
 528 581 500 592 457 592 c 256
 391 592 298 511 298 414 c 256
 298 359 306 314 445 314 c 256
 506 314 626 323 709 333 c 256
 770 341 827 296 835 235 c 256
 843 174 798 117 737 109 c 256
 644 97 524 88 445 88 c 256
 206 88 74 239 74 414 c 256
 74 633 255 816 457 816 c 256
 552 816 650 781 724 702 c 256
 766 657 764 585 719 543 c 256
834 242 m 256
 845 182 804 121 744 110 c 256
 564 76 390 9 219 -96 c 256
 167 -128 96 -111 64 -59 c 256
 32 -7 49 64 101 96 c 256
 294 213 494 292 702 332 c 256
 762 343 823 302 834 242 c 256
EndSplineSet
EndChar

StartChar: uniE032
Encoding: 57394 57394 347
Width: 522
GlyphClass: 2
Flags: HW
LayerCount: 2
Fore
SplineSet
-147 1290 m 256
 -227 1321 -268 1414 -237 1494 c 256
 -168 1673 -35 1838 179 1838 c 256
 277 1838 373 1804 466 1745 c 256
 518 1712 544 1696 572 1696 c 256
 600 1696 611 1711 614 1736 c 256
 626 1834 679 1893 765 1893 c 256
 851 1893 923 1822 923 1736 c 256
 923 1550 803 1380 602 1380 c 256
 468 1380 366 1436 298 1479 c 256
 239 1516 201 1524 179 1524 c 256
 137 1524 101 1494 57 1380 c 256
 26 1300 -67 1259 -147 1290 c 256
259 1302 m 256
 344 1313 425 1252 436 1167 c 256
 466 944 482 709 482 468 c 256
 482 309 474 149 461 -12 c 256
 454 -97 377 -163 291 -156 c 256
 205 -149 140 -71 147 14 c 256
 160 167 166 319 166 468 c 256
 166 695 152 916 124 1125 c 256
 113 1210 174 1291 259 1302 c 256
EndSplineSet
EndChar

StartChar: uniE033
Encoding: 57395 57395 348
Width: 445
GlyphClass: 2
Flags: HW
LayerCount: 2
Fore
SplineSet
179 1322 m 256
 264 1333 345 1272 356 1187 c 256
 388 946 402 799 402 531 c 256
 402 362 395 159 381 -12 c 256
 374 -97 297 -163 211 -156 c 256
 125 -149 60 -71 67 14 c 256
 80 173 88 370 88 531 c 256
 88 789 76 906 44 1145 c 256
 33 1230 94 1311 179 1322 c 256
EndSplineSet
EndChar

StartChar: uniE034
Encoding: 57396 57396 349
Width: 1252
GlyphClass: 2
Flags: HW
LayerCount: 2
Fore
SplineSet
693 -750 m 256
 402 -750 2 -606 2 -201 c 256
 2 209 380 428 642 537 c 257
 550 583 483 608 431 608 c 256
 386 608 363 582 340 521 c 256
 310 441 220 396 139 424 c 256
 58 452 14 544 42 625 c 256
 114 830 254 922 433 922 c 256
 642 922 1015 722 1123 660 c 256
 1185 625 1250 584 1250 508 c 256
 1250 431 1189 366 1110 349 c 256
 963 317 318 125 318 -201 c 256
 318 -334 454 -436 693 -436 c 256
 805 -436 917 -409 1014 -357 c 256
 1090 -317 1187 -346 1227 -422 c 256
 1267 -498 1238 -595 1162 -635 c 256
 1017 -711 855 -750 693 -750 c 256
EndSplineSet
EndChar

StartChar: uniE035
Encoding: 57397 57397 350
Width: 900
GlyphClass: 2
Flags: HW
LayerCount: 2
Fore
SplineSet
298 876 m 256
 355 940 457 946 521 889 c 256
 658 767 898 547 898 245 c 256
 898 -29 623 -142 397 -142 c 256
 307 -142 209 -128 110 -94 c 256
 29 -67 -16 24 11 105 c 256
 38 186 129 231 210 204 c 256
 276 182 341 172 397 172 c 256
 526 172 582 208 582 262 c 256
 582 367 446 533 311 653 c 256
 247 710 241 812 298 876 c 256
EndSplineSet
EndChar

StartChar: uniE036
Encoding: 57398 57398 351
Width: 807
GlyphClass: 2
Flags: HW
LayerCount: 2
Fore
SplineSet
502 636 m 256
 585 658 672 607 694 524 c 256
 738 358 764 209 764 71 c 256
 764 -284 571 -533 192 -611 c 256
 108 -628 23 -573 6 -489 c 256
 -11 -405 44 -320 128 -303 c 256
 387 -249 450 -156 450 71 c 256
 450 169 430 294 390 444 c 256
 368 527 419 614 502 636 c 256
EndSplineSet
EndChar

StartChar: uniE037
Encoding: 57399 57399 352
Width: 2260
GlyphClass: 2
Flags: HW
LayerCount: 2
Fore
SplineSet
316 505 m 256
 395 472 435 378 402 299 c 256
 350 174 318 44 318 -58 c 256
 318 -204 380 -316 644 -316 c 256
 885 -316 962 -202 962 -23 c 256
 962 78 938 202 891 327 c 256
 861 407 903 500 983 530 c 256
 1063 560 1156 517 1186 437 c 256
 1243 284 1278 128 1278 -23 c 256
 1278 -354 1049 -630 644 -630 c 256
 238 -630 2 -376 2 -58 c 256
 2 104 48 268 110 419 c 256
 143 498 237 538 316 505 c 256
980 529 m 256
 1060 560 1153 520 1185 440 c 256
 1279 201 1312 178 1367 178 c 256
 1422 178 1457 205 1487 441 c 256
 1498 526 1579 587 1664 576 c 256
 1749 565 1810 484 1799 399 c 256
 1761 113 1650 -138 1362 -138 c 256
 1122 -138 996 56 891 324 c 256
 860 404 900 498 980 529 c 256
1665 576 m 256
 1750 564 1811 483 1799 398 c 256
 1791 340 1788 321 1788 275 c 256
 1788 205 1806 174 1862 174 c 256
 1912 174 1942 196 1942 298 c 256
 1942 380 1927 454 1908 526 c 256
 1886 609 1936 697 2019 719 c 256
 2102 741 2190 691 2212 608 c 256
 2234 524 2258 420 2258 298 c 256
 2258 90 2134 -142 1867 -142 c 256
 1618 -142 1474 56 1474 275 c 256
 1474 337 1479 384 1487 442 c 256
 1499 527 1580 588 1665 576 c 256
EndSplineSet
EndChar

StartChar: uniE038
Encoding: 57400 57400 353
Width: 2305
GlyphClass: 2
Flags: HW
LayerCount: 2
Fore
SplineSet
2302 378 m 256
 2302 -6 1904 -142 1650 -142 c 256
 1230 -142 1012 51 906 306 c 256
 873 385 912 478 991 511 c 256
 1070 544 1164 505 1197 426 c 256
 1263 267 1383 172 1650 172 c 256
 1850 172 1988 278 1988 357 c 256
 1988 411 1948 452 1855 452 c 256
 1722 452 1591 340 1470 84 c 256
 1433 6 1339 -28 1261 9 c 256
 1183 46 1149 140 1186 218 c 256
 1321 504 1532 768 1873 768 c 256
 2077 768 2302 633 2302 378 c 256
1002 516 m 256
 1084 543 1174 497 1201 415 c 256
 1250 265 1276 124 1276 -7 c 256
 1276 -383 1018 -630 589 -630 c 256
 327 -630 2 -483 2 -117 c 256
 2 91 94 298 201 466 c 256
 247 538 347 560 419 514 c 256
 491 468 513 368 467 296 c 256
 380 160 318 -5 318 -117 c 256
 318 -245 409 -316 589 -316 c 256
 888 -316 962 -213 962 -7 c 256
 962 80 942 191 901 317 c 256
 874 399 920 489 1002 516 c 256
EndSplineSet
EndChar

StartChar: uniE039
Encoding: 57401 57401 354
Width: 1511
GlyphClass: 2
Flags: HW
LayerCount: 2
Fore
SplineSet
1508 449 m 256
 1508 6 1050 -142 574 -142 c 256
 439 -142 293 -132 139 -111 c 256
 54 -99 -7 -19 4 66 c 256
 15 151 96 213 181 201 c 256
 323 182 455 172 574 172 c 256
 1048 172 1194 310 1194 432 c 256
 1194 501 1150 546 1068 546 c 256
 914 546 662 339 510 -124 c 256
 489 -189 424 -232 358 -215 c 256
 292 -198 249 -127 266 -61 c 256
 353 286 666 860 1087 860 c 256
 1316 860 1508 688 1508 449 c 256
350 -212 m 256
 284 -191 247 -120 268 -54 c 256
 338 163 372 557 372 892 c 256
 372 992 368 1095 359 1198 c 256
 352 1283 417 1361 503 1368 c 256
 589 1375 666 1309 673 1224 c 256
 682 1111 686 1000 686 892 c 256
 686 529 587 115 508 -131 c 256
 487 -197 416 -233 350 -212 c 256
EndSplineSet
EndChar

StartChar: uniE03A
Encoding: 57402 57402 355
Width: 1275
GlyphClass: 2
Flags: HW
LayerCount: 2
Fore
SplineSet
960 886 m 256
 897 828 797 831 738 894 c 256
 713 921 680 936 632 936 c 256
 541 936 440 849 440 745 c 256
 440 671 483 614 687 614 c 256
 724 614 764 617 807 620 c 256
 831 622 855 623 879 624 c 256
 965 628 1039 560 1043 474 c 256
 1047 388 979 314 893 310 c 256
 873 309 851 308 829 306 c 256
 786 303 738 300 687 300 c 256
 441 300 126 407 126 745 c 256
 126 1039 375 1252 632 1252 c 256
 762 1252 883 1199 968 1108 c 256
 1027 1045 1023 944 960 886 c 256
1044 467 m 256
 1044 381 972 310 886 310 c 256
 628 310 318 82 318 -172 c 256
 318 -341 455 -442 717 -442 c 256
 836 -442 958 -412 1043 -369 c 256
 1119 -330 1216 -361 1255 -437 c 256
 1294 -513 1263 -610 1187 -649 c 256
 1049 -720 884 -756 717 -756 c 256
 393 -756 2 -597 2 -172 c 256
 2 322 504 624 886 624 c 256
 972 624 1044 553 1044 467 c 256
EndSplineSet
EndChar

StartChar: uniE03B
Encoding: 57403 57403 356
Width: 668
GlyphClass: 2
Flags: HW
LayerCount: 2
Fore
SplineSet
-158 45 m 256
 -158 131 -86 202 0 202 c 258
 668 202 l 258
 754 202 826 131 826 45 c 256
 826 -41 754 -112 668 -112 c 258
 0 -112 l 258
 -86 -112 -158 -41 -158 45 c 256
EndSplineSet
EndChar

StartChar: uniE03C
Encoding: 57404 57404 357
Width: 1276
GlyphClass: 2
Flags: HW
LayerCount: 2
Fore
SplineSet
1036 1368 m 256
 1122 1374 1198 1308 1204 1222 c 256
 1232 832 1254 501 1254 148 c 256
 1254 -220 1106 -582 619 -582 c 256
 260 -582 2 -349 2 -15 c 256
 2 148 54 310 114 429 c 256
 152 506 249 537 326 499 c 256
 403 461 434 364 396 287 c 256
 356 206 318 78 318 -15 c 256
 318 -165 398 -266 619 -266 c 256
 884 -266 938 -158 938 148 c 256
 938 487 918 810 890 1200 c 256
 884 1286 950 1362 1036 1368 c 256
EndSplineSet
EndChar

StartChar: uniE03D
Encoding: 57405 57405 358
Width: 1177
GlyphClass: 2
Flags: HW
LayerCount: 2
Fore
SplineSet
724 730 m 256
 985 730 1174 517 1174 221 c 256
 1174 -11 992 -142 796 -142 c 256
 680 -142 577 -129 506 -108 c 256
 430 -85 390 -74 363 -74 c 256
 330 -74 317 -95 317 -166 c 256
 317 -183 317 -197 318 -211 c 258
 348 -796 l 258
 352 -882 285 -957 199 -961 c 256
 113 -965 38 -898 34 -812 c 258
 4 -227 l 258
 3 -203 3 -183 3 -166 c 256
 3 44 103 238 332 238 c 256
 410 238 482 223 553 206 c 256
 638 186 722 172 796 172 c 256
 845 172 860 185 860 221 c 256
 860 369 793 416 737 416 c 256
 667 416 598 300 577 171 c 256
 563 86 481 27 396 41 c 256
 311 55 252 136 266 221 c 256
 283 324 359 730 724 730 c 256
EndSplineSet
EndChar

StartChar: uniE03E
Encoding: 57406 57406 359
Width: 865
GlyphClass: 2
Flags: HW
LayerCount: 2
Fore
SplineSet
429 -142 m 256
 197 -142 2 -14 2 242 c 256
 2 452 135 686 327 850 c 256
 392 906 493 897 549 832 c 256
 605 767 596 666 531 610 c 256
 395 494 318 338 318 262 c 256
 318 209 349 172 429 172 c 256
 518 172 548 206 548 265 c 256
 548 359 441 534 232 714 c 256
 167 770 160 871 216 936 c 256
 272 1001 373 1008 438 952 c 256
 675 747 862 497 862 257 c 256
 862 -11 664 -142 429 -142 c 256
EndSplineSet
EndChar

StartChar: uniE03F
Encoding: 57407 57407 360
Width: 878
GlyphClass: 2
Flags: HW
LayerCount: 2
Fore
SplineSet
444 804 m 256
 846 804 876 291 876 108 c 256
 876 -341 556 -547 189 -616 c 256
 105 -632 21 -574 5 -490 c 256
 -11 -406 47 -322 131 -306 c 256
 433 -249 560 -149 560 108 c 256
 560 416 496 488 443 488 c 257
 396 488 352 430 352 296 c 256
 352 209 390 172 452 172 c 256
 481 172 519 177 567 189 c 256
 650 209 738 157 758 74 c 256
 778 -9 726 -97 643 -117 c 256
 577 -133 513 -142 452 -142 c 256
 214 -142 56 26 56 260 c 256
 56 493 155 804 444 804 c 256
EndSplineSet
EndChar

StartChar: uniE040
Encoding: 57408 57408 361
Width: 0
GlyphClass: 2
Flags: H
LayerCount: 2
Fore
SplineSet
187 1892 m 256
 189 1862 166 1835 136 1833 c 256
 34 1825 -100 1698 -100 1561 c 256
 -100 1535 -96 1509 -85 1482 c 256
 -74 1454 -88 1422 -116 1411 c 256
 -144 1400 -176 1414 -187 1442 c 256
 -203 1481 -210 1521 -210 1561 c 256
 -210 1758 -38 1931 128 1943 c 256
 158 1945 185 1922 187 1892 c 256
191 1733 m 256
 335 1733 335 1552 335 1488 c 256
 335 1264 179 1185 -32 1173 c 256
 -62 1171 -88 1195 -90 1225 c 256
 -92 1255 -68 1281 -38 1283 c 256
 154 1293 225 1338 225 1488 c 256
 225 1590 217 1623 186 1623 c 256
 153 1623 112 1568 112 1514 c 256
 112 1458 226 1438 355 1438 c 256
 385 1438 410 1413 410 1383 c 256
 410 1353 385 1328 355 1328 c 256
 268 1328 2 1329 2 1510 c 256
 2 1598 59 1733 191 1733 c 256
EndSplineSet
EndChar

StartChar: uniE041
Encoding: 57409 57409 362
Width: 0
GlyphClass: 2
Flags: H
LayerCount: 2
Fore
SplineSet
-37 1323 m 256
 -47 1351 -31 1383 -3 1393 c 258
 402 1537 l 258
 430 1547 462 1531 472 1503 c 256
 482 1475 466 1443 438 1433 c 258
 33 1289 l 258
 5 1279 -27 1295 -37 1323 c 256
EndSplineSet
EndChar

StartChar: uniE042
Encoding: 57410 57410 363
Width: 0
GlyphClass: 2
Flags: H
LayerCount: 2
Fore
SplineSet
191 1733 m 256
 335 1733 335 1552 335 1488 c 256
 335 1264 179 1185 -32 1173 c 256
 -62 1171 -88 1195 -90 1225 c 256
 -92 1255 -68 1281 -38 1283 c 256
 154 1293 225 1338 225 1488 c 256
 225 1590 217 1623 186 1623 c 256
 153 1623 112 1568 112 1514 c 256
 112 1458 226 1438 355 1438 c 256
 385 1438 410 1413 410 1383 c 256
 410 1353 385 1328 355 1328 c 256
 268 1328 2 1329 2 1510 c 256
 2 1598 59 1733 191 1733 c 256
EndSplineSet
EndChar

StartChar: uniE043
Encoding: 57411 57411 364
Width: 0
GlyphClass: 2
Flags: H
LayerCount: 2
Fore
SplineSet
396 1610 m 256
 423 1622 456 1609 468 1582 c 256
 490 1532 518 1452 518 1374 c 256
 518 1272 451 1208 364 1208 c 256
 312 1208 268 1235 238 1273 c 257
 206 1233 161 1209 110 1209 c 256
 33 1209 -39 1264 -39 1360 c 256
 -39 1431 -6 1501 33 1552 c 256
 51 1576 86 1580 110 1562 c 256
 134 1544 138 1508 120 1484 c 256
 93 1449 71 1395 71 1360 c 256
 71 1333 81 1319 110 1319 c 256
 136 1319 180 1347 184 1444 c 256
 185 1469 205 1493 232 1497 c 256
 263 1501 292 1477 294 1445 c 256
 299 1344 340 1318 367 1318 c 256
 393 1318 408 1332 408 1374 c 256
 408 1426 386 1498 368 1538 c 256
 356 1565 369 1598 396 1610 c 256
EndSplineSet
EndChar

StartChar: uniE044
Encoding: 57412 57412 365
Width: 0
GlyphClass: 2
Flags: H
LayerCount: 2
Fore
SplineSet
176 1534 m 256
 138 1534 92 1496 92 1434 c 256
 92 1394 128 1352 175 1352 c 256
 215 1352 258 1386 258 1452 c 256
 258 1494 226 1534 176 1534 c 256
176 1644 m 256
 292 1644 368 1548 368 1452 c 256
 368 1334 283 1242 175 1242 c 256
 62 1242 -18 1336 -18 1434 c 256
 -18 1550 70 1644 176 1644 c 256
EndSplineSet
EndChar

StartChar: uniE045
Encoding: 57413 57413 366
Width: 0
GlyphClass: 2
Flags: H
LayerCount: 2
Fore
SplineSet
595 1466 m 256
 622 1453 634 1419 621 1392 c 256
 586 1319 525 1233 419 1233 c 256
 373 1233 325 1250 275 1284 c 256
 242 1307 216 1314 194 1314 c 256
 152 1314 109 1286 77 1231 c 256
 62 1205 28 1195 2 1210 c 256
 -24 1225 -34 1259 -19 1285 c 256
 25 1362 100 1424 194 1424 c 256
 244 1424 292 1405 337 1374 c 256
 373 1350 401 1343 419 1343 c 256
 455 1343 490 1375 521 1440 c 256
 534 1467 568 1479 595 1466 c 256
EndSplineSet
EndChar

StartChar: uniE046
Encoding: 57414 57414 367
Width: 0
GlyphClass: 2
Flags: H
LayerCount: 2
Fore
SplineSet
385 1543 m 256
 361 1525 326 1530 308 1554 c 256
 282 1589 256 1599 228 1599 c 256
 171 1599 105 1542 105 1463 c 256
 105 1401 136 1378 221 1378 c 256
 274 1378 336 1390 401 1413 c 256
 431 1423 464 1406 472 1375 c 256
 479 1348 464 1318 437 1309 c 258
 32 1168 l 258
 4 1158 -28 1174 -38 1202 c 256
 -48 1230 -32 1262 -4 1272 c 258
 80 1301 l 257
 27 1333 -5 1391 -5 1463 c 256
 -5 1600 105 1709 228 1709 c 256
 290 1709 352 1679 396 1620 c 256
 414 1596 409 1561 385 1543 c 256
EndSplineSet
EndChar

StartChar: uniE047
Encoding: 57415 57415 368
Width: 0
GlyphClass: 2
Flags: H
LayerCount: 2
Fore
SplineSet
188 1004 m 257
 188 1117 103 1373 -12 1484 c 256
 -34 1505 -35 1540 -14 1562 c 256
 7 1584 42 1585 64 1564 c 256
 144 1487 203 1375 243 1264 c 257
 283 1373 342 1487 422 1564 c 256
 444 1585 479 1584 500 1562 c 256
 521 1540 520 1505 498 1484 c 256
 383 1373 298 1117 298 1004 c 257
 298 966 271 948 243 948 c 256
 215 948 188 966 188 1004 c 257
EndSplineSet
EndChar

StartChar: uniE048
Encoding: 57416 57416 369
Width: 1726
GlyphClass: 2
Flags: HW
LayerCount: 2
Fore
SplineSet
1430 764 m 256
 1504 807 1602 780 1645 705 c 256
 1696 616 1724 500 1724 383 c 256
 1724 -120 1091 -142 843 -142 c 256
 569 -142 2 -117 2 373 c 256
 2 467 15 570 59 657 c 256
 97 734 194 766 271 727 c 256
 347 689 371 613 341 515 c 256
 338 506 318 419 318 373 c 256
 318 239 495 172 843 172 c 256
 1173 172 1408 254 1408 383 c 256
 1408 442 1381 525 1371 549 c 256
 1335 635 1356 721 1430 764 c 256
EndSplineSet
EndChar

StartChar: uniE049
Encoding: 57417 57417 370
Width: 1439
GlyphClass: 2
Flags: HW
LayerCount: 2
Fore
SplineSet
998 800 m 256
 1416 800 1436 277 1436 91 c 256
 1436 -326 1183 -624 717 -624 c 256
 282 -624 2 -397 2 -40 c 256
 2 141 64 332 164 527 c 256
 203 603 300 634 376 595 c 256
 452 556 483 459 444 383 c 256
 358 216 318 67 318 -40 c 256
 318 -193 384 -308 717 -308 c 256
 1023 -308 1122 -184 1122 91 c 256
 1122 351 1061 486 990 486 c 256
 932 486 880 421 880 272 c 256
 880 195 922 172 996 172 c 256
 1077 172 1126 185 1170 209 c 256
 1246 250 1342 220 1383 144 c 256
 1424 68 1394 -28 1318 -69 c 256
 1224 -119 1117 -144 996 -144 c 256
 767 -144 566 -6 566 260 c 256
 566 491 697 800 998 800 c 256
EndSplineSet
EndChar

StartChar: uniE04A
Encoding: 57418 57418 371
Width: 0
GlyphClass: 2
Flags: H
LayerCount: 2
Fore
SplineSet
8 1678 m 256
 38 1681 66 1659 69 1629 c 256
 77 1551 81 1479 81 1409 c 256
 81 1334 73 1258 48 1182 c 256
 39 1154 7 1138 -21 1147 c 256
 -49 1156 -65 1188 -56 1216 c 256
 -36 1278 -29 1342 -29 1409 c 256
 -29 1475 -33 1541 -41 1617 c 256
 -44 1647 -22 1675 8 1678 c 256
EndSplineSet
EndChar

StartChar: uniE04B
Encoding: 57419 57419 372
Width: 1719
GlyphClass: 2
Flags: HW
LayerCount: 2
Fore
SplineSet
1280 1190 m 256
 1665 1190 1716 723 1716 406 c 256
 1716 -97 1160 -146 829 -146 c 256
 536 -146 2 -106 2 367 c 256
 2 461 22 543 42 613 c 256
 66 695 154 745 237 721 c 256
 320 697 368 609 344 527 c 256
 328 471 318 417 318 367 c 256
 318 242 476 168 829 168 c 256
 1216 168 1402 245 1402 406 c 256
 1402 787 1325 874 1260 874 c 256
 1197 874 1152 804 1152 670 c 256
 1152 591 1174 550 1259 550 c 256
 1336 550 1429 573 1484 597 c 256
 1563 632 1657 595 1692 517 c 256
 1727 439 1691 344 1612 309 c 256
 1513 265 1388 236 1259 236 c 256
 972 236 836 440 836 658 c 256
 836 876 963 1190 1280 1190 c 256
EndSplineSet
EndChar

StartChar: uniE04C
Encoding: 57420 57420 373
Width: 1870
GlyphClass: 2
Flags: HW
LayerCount: 2
Fore
SplineSet
1851 1380 m 256
 1889 1303 1856 1208 1779 1170 c 258
 1238 904 l 257
 1383 743 1546 544 1546 303 c 256
 1546 -63 1171 -142 768 -142 c 256
 420 -142 2 -81 2 340 c 256
 2 411 14 488 39 571 c 256
 63 653 153 701 235 677 c 256
 317 653 365 563 341 481 c 256
 324 422 318 375 318 340 c 256
 318 233 380 172 768 172 c 256
 1209 172 1230 257 1230 303 c 256
 1230 425 1057 643 863 841 c 256
 863 841 846 861 840 871 c 256
 794 949 826 1052 907 1092 c 258
 1641 1452 l 258
 1718 1490 1813 1457 1851 1380 c 256
EndSplineSet
EndChar

StartChar: uniE04D
Encoding: 57421 57421 374
Width: 1384
GlyphClass: 2
Flags: HW
LayerCount: 2
Fore
SplineSet
290 551 m 256
 370 520 412 428 381 348 c 256
 341 244 318 106 318 16 c 256
 318 -164 386 -268 697 -268 c 256
 1006 -268 1066 -156 1066 23 c 256
 1066 131 1035 276 983 397 c 256
 949 476 987 570 1066 604 c 256
 1145 638 1239 600 1273 521 c 256
 1341 362 1382 185 1382 23 c 256
 1382 -324 1140 -582 697 -582 c 256
 272 -582 2 -352 2 16 c 256
 2 152 31 314 87 460 c 256
 118 540 210 582 290 551 c 256
EndSplineSet
EndChar

StartChar: uniE04E
Encoding: 57422 57422 375
Width: 1347
GlyphClass: 2
Flags: HW
LayerCount: 2
Fore
SplineSet
1265 549 m 256
 1216 478 1117 459 1046 508 c 256
 1012 532 978 540 944 540 c 256
 839 540 730 439 730 324 c 256
 730 257 771 240 930 237 c 256
 1158 233 1354 137 1354 -116 c 256
 1354 -439 1012 -582 671 -582 c 256
 280 -582 -18 -401 -18 -13 c 256
 -18 84 -5 191 19 309 c 256
 36 393 120 449 204 432 c 256
 288 415 345 331 328 247 c 256
 307 143 298 56 298 -13 c 256
 298 -211 370 -268 671 -268 c 256
 978 -268 1040 -161 1040 -122 c 256
 1040 -86 998 -78 926 -77 c 256
 749 -74 416 -29 416 324 c 256
 416 619 663 856 944 856 c 256
 1038 856 1136 828 1224 768 c 256
 1295 719 1314 620 1265 549 c 256
EndSplineSet
EndChar

StartChar: uniE04F
Encoding: 57423 57423 376
Width: 1959
GlyphClass: 2
Flags: HW
LayerCount: 2
Fore
SplineSet
2116 45 m 256
 2116 -41 2045 -112 1959 -112 c 258
 1958 -112 l 257
 1771 -112 1592 -58 1491 103 c 257
 1300 -73 1029 -142 711 -142 c 256
 319 -142 2 44 2 414 c 256
 2 496 18 581 46 670 c 256
 72 752 161 799 243 773 c 256
 325 747 372 658 346 576 c 256
 326 511 318 456 318 414 c 256
 318 278 395 172 711 172 c 256
 1157 172 1357 318 1412 587 c 256
 1426 658 1490 712 1563 713 c 256
 1654 714 1729 636 1723 546 c 256
 1721 517 1720 490 1720 465 c 256
 1720 230 1762 202 1958 202 c 257
 1959 202 l 258
 2045 202 2116 131 2116 45 c 256
EndSplineSet
EndChar

StartChar: uniE050
Encoding: 57424 57424 377
Width: 852
GlyphClass: 2
Flags: HW
LayerCount: 2
Fore
SplineSet
418 1204 m 256
 823 1204 850 669 850 399 c 256
 850 -29 426 -112 0 -112 c 256
 -86 -112 -157 -41 -157 45 c 256
 -157 131 -86 202 0 202 c 256
 460 202 534 285 534 399 c 256
 534 759 458 888 405 888 c 256
 361 888 308 814 308 665 c 256
 308 598 345 572 435 572 c 256
 482 572 527 583 567 600 c 256
 646 633 740 593 773 514 c 256
 806 435 766 341 687 308 c 256
 615 279 530 258 435 258 c 256
 208 258 -8 390 -8 665 c 256
 -8 846 81 1204 418 1204 c 256
EndSplineSet
EndChar

StartChar: uniE051
Encoding: 57425 57425 378
Width: 945
GlyphClass: 2
Flags: HW
LayerCount: 2
Fore
SplineSet
483 966 m 256
 757 965 910 729 910 499 c 256
 910 26 348 -112 0 -112 c 256
 -86 -112 -157 -41 -157 45 c 256
 -157 131 -86 202 0 202 c 256
 346 202 594 354 594 499 c 256
 594 611 543 649 483 650 c 256
 410 650 350 595 350 504 c 256
 350 351 581 202 944 202 c 257
 945 202 l 258
 1031 202 1102 131 1102 45 c 256
 1102 -41 1031 -112 945 -112 c 258
 944 -112 l 257
 572 -112 36 33 36 504 c 256
 36 749 222 966 483 966 c 256
EndSplineSet
EndChar

StartChar: uniE052
Encoding: 57426 57426 379
Width: 645
GlyphClass: 2
Flags: HW
LayerCount: 2
Fore
SplineSet
936 1867 m 256
 999 1849 1049 1786 1033 1684 c 256
 1011 1543 913 1397 712 1397 c 256
 620 1397 559 1435 504 1469 c 256
 459 1497 419 1521 369 1521 c 256
 329 1521 311 1508 277 1417 c 256
 247 1337 153 1296 73 1327 c 256
 -7 1358 -41 1448 -17 1531 c 256
 36 1717 168 1835 330 1835 c 256
 413 1835 483 1799 546 1765 c 256
 598 1737 645 1713 690 1713 c 256
 725 1713 735 1728 747 1760 c 256
 782 1852 867 1886 936 1867 c 256
379 1322 m 256
 464 1333 545 1272 556 1187 c 256
 588 946 602 799 602 531 c 256
 602 362 595 159 581 -12 c 256
 574 -97 497 -163 411 -156 c 256
 325 -149 260 -71 267 14 c 256
 280 173 288 370 288 531 c 256
 288 789 276 906 244 1145 c 256
 233 1230 294 1311 379 1322 c 256
EndSplineSet
EndChar

StartChar: uniE053
Encoding: 57427 57427 380
Width: 1383
GlyphClass: 2
Flags: HW
LayerCount: 2
Fore
SplineSet
939 888 m 256
 892 888 838 814 838 686 c 256
 838 609 869 572 966 572 c 256
 1013 572 1058 583 1098 600 c 256
 1177 633 1271 593 1304 514 c 256
 1337 435 1297 341 1218 308 c 256
 1146 279 1061 258 966 258 c 256
 739 258 524 390 524 665 c 256
 524 846 612 1204 949 1204 c 256
 1354 1204 1380 669 1380 398 c 256
 1380 233 1305 95 1188 12 c 256
 1046 -89 867 -112 698 -112 c 258
 697 -112 l 257
 458 -112 276 -101 150 32 c 256
 51 139 42 272 42 398 c 256
 42 659 45 936 55 1217 c 256
 58 1303 132 1371 218 1368 c 256
 304 1365 372 1291 369 1205 c 256
 359 930 358 657 358 398 c 256
 358 323 363 276 394 247 c 256
 435 209 520 202 697 202 c 257
 698 202 l 258
 837 202 950 231 1006 270 c 256
 1045 297 1066 325 1066 398 c 256
 1066 759 1012 888 939 888 c 256
EndSplineSet
EndChar

StartChar: uniE054
Encoding: 57428 57428 381
Width: 1921
GlyphClass: 2
Flags: HW
LayerCount: 2
Fore
SplineSet
1851 1380 m 256
 1889 1303 1856 1208 1779 1170 c 258
 1045 810 l 258
 968 772 873 805 835 882 c 256
 797 959 830 1054 907 1092 c 258
 1641 1452 l 258
 1718 1490 1813 1457 1851 1380 c 256
768 -142 m 256
 420 -142 2 -81 2 340 c 256
 2 411 14 488 39 571 c 256
 63 653 153 701 235 677 c 256
 317 653 365 563 341 481 c 256
 324 422 318 375 318 340 c 256
 318 233 380 172 768 172 c 256
 1209 172 1230 257 1230 303 c 256
 1230 388 1185 464 1111 563 c 256
 1037 663 949 753 863 841 c 256
 800 905 806 1014 875 1072 c 256
 937 1124 1032 1119 1088 1062 c 256
 1144 1005 1199 948 1251 889 c 256
 1364 758 1464 618 1530 448 c 256
 1624 204 1626 202 1920 202 c 257
 1921 202 l 258
 2007 202 2079 131 2079 45 c 256
 2079 -41 2007 -112 1921 -112 c 258
 1920 -112 l 257
 1731 -112 1562 -110 1424 18 c 257
 1275 -117 1051 -142 768 -142 c 256
EndSplineSet
EndChar

StartChar: uniE055
Encoding: 57429 57429 382
Width: 532
GlyphClass: 2
Flags: HW
LayerCount: 2
Fore
SplineSet
245 816 m 256
 327 842 416 795 442 713 c 256
 483 583 510 464 510 349 c 256
 510 237 486 116 396 22 c 256
 298 -79 158 -112 0 -112 c 256
 -86 -112 -157 -41 -157 45 c 256
 -157 131 -86 202 0 202 c 256
 120 202 159 229 170 240 c 256
 180 250 194 275 194 349 c 256
 194 412 177 507 142 619 c 256
 116 701 163 790 245 816 c 256
EndSplineSet
EndChar

StartChar: uniE056
Encoding: 57430 57430 383
Width: 811
GlyphClass: 2
Flags: HW
LayerCount: 2
Fore
SplineSet
-158 45 m 256
 -158 131 -86 202 0 202 c 256
 28 202 54 204 76 206 c 256
 240 221 264 232 238 518 c 256
 230 608 302 688 393 689 c 256
 475 690 544 626 552 548 c 256
 587 204 559 202 810 202 c 257
 811 202 l 258
 897 202 969 131 969 45 c 256
 969 -41 897 -112 811 -112 c 258
 810 -112 l 257
 651 -112 515 -89 410 6 c 257
 302 -88 159 -112 0 -112 c 256
 -86 -112 -158 -41 -158 45 c 256
EndSplineSet
EndChar

StartChar: uniE057
Encoding: 57431 57431 384
Width: 1382
GlyphClass: 2
Flags: HW
LayerCount: 2
Fore
SplineSet
1540 45 m 256
 1540 -41 1468 -112 1382 -112 c 258
 1336 -112 l 257
 1351 -152 1358 -193 1358 -234 c 256
 1358 -526 1041 -668 703 -668 c 256
 245 -668 22 -401 22 -62 c 256
 22 111 69 293 135 473 c 256
 164 554 256 596 337 567 c 256
 418 538 460 446 431 365 c 256
 373 205 338 53 338 -62 c 256
 338 -245 385 -352 703 -352 c 256
 1007 -352 1044 -234 1044 -234 c 257
 1044 -234 1034 -144 756 -111 c 256
 683 -102 624 -41 618 33 c 256
 611 123 684 202 775 202 c 258
 1382 202 l 258
 1468 202 1540 131 1540 45 c 256
EndSplineSet
EndChar

StartChar: uniE058
Encoding: 57432 57432 385
Width: 1586
GlyphClass: 2
Flags: HW
LayerCount: 2
Fore
SplineSet
218 1368 m 256
 304 1365 372 1291 369 1205 c 256
 359 930 358 657 358 398 c 256
 358 322 362 275 390 246 c 256
 426 209 501 202 657 202 c 257
 658 202 l 258
 768 202 864 209 913 246 c 256
 934 262 946 283 946 312 c 256
 946 423 773 643 579 841 c 256
 516 906 522 1014 591 1072 c 256
 604 1083 623 1092 623 1092 c 257
 1357 1452 l 258
 1434 1490 1529 1457 1567 1380 c 256
 1605 1303 1572 1208 1495 1170 c 258
 954 904 l 257
 1097 745 1262 548 1262 312 c 256
 1262 178 1195 58 1090 -11 c 256
 970 -91 820 -112 658 -112 c 258
 657 -112 l 257
 454 -112 273 -99 150 32 c 256
 50 138 42 273 42 398 c 256
 42 659 45 936 55 1217 c 256
 58 1303 132 1371 218 1368 c 256
EndSplineSet
EndChar

StartChar: uniE059
Encoding: 57433 57433 386
Width: 2206
GlyphClass: 2
Flags: HW
LayerCount: 2
Fore
SplineSet
337 567 m 256
 418 538 460 446 431 365 c 256
 373 205 338 53 338 -62 c 256
 338 -245 385 -352 703 -352 c 256
 1007 -352 1044 -234 1044 -234 c 257
 1044 -234 1034 -144 756 -111 c 256
 671 -101 609 -21 619 64 c 256
 629 149 709 211 794 201 c 256
 1100 164 1358 28 1358 -234 c 256
 1358 -526 1041 -668 703 -668 c 256
 245 -668 22 -401 22 -62 c 256
 22 111 69 293 135 473 c 256
 164 554 256 596 337 567 c 256
618 45 m 256
 618 131 689 202 775 202 c 258
 1152 202 l 258
 1565 202 1566 281 1566 312 c 256
 1566 423 1393 643 1199 841 c 256
 1136 906 1142 1014 1211 1072 c 256
 1224 1083 1243 1092 1243 1092 c 257
 1977 1452 l 258
 2054 1490 2149 1457 2187 1380 c 256
 2225 1303 2192 1208 2115 1170 c 258
 1574 904 l 257
 1717 745 1882 548 1882 312 c 256
 1882 -35 1531 -112 1152 -112 c 258
 775 -112 l 258
 689 -112 618 -41 618 45 c 256
EndSplineSet
EndChar

StartChar: uniE05A
Encoding: 57434 57434 387
Width: 1645
GlyphClass: 2
Flags: HW
LayerCount: 2
Fore
SplineSet
218 1368 m 256
 304 1365 372 1291 369 1205 c 256
 359 930 358 657 358 398 c 256
 358 322 362 275 390 246 c 256
 426 209 501 202 657 202 c 257
 658 202 l 258
 768 202 864 209 913 246 c 256
 934 262 946 283 946 312 c 256
 946 423 773 643 579 841 c 256
 516 906 522 1014 591 1072 c 256
 604 1083 623 1092 623 1092 c 257
 1357 1452 l 258
 1434 1490 1529 1457 1567 1380 c 256
 1605 1303 1572 1208 1495 1170 c 258
 954 904 l 257
 1097 745 1262 548 1262 312 c 256
 1262 178 1195 58 1090 -11 c 256
 970 -91 820 -112 658 -112 c 258
 657 -112 l 257
 454 -112 273 -99 150 32 c 256
 50 138 42 273 42 398 c 256
 42 659 45 936 55 1217 c 256
 58 1303 132 1371 218 1368 c 256
582 1063 m 256
 643 1123 744 1122 804 1061 c 256
 974 888 1144 714 1235 490 c 256
 1348 212 1368 202 1644 202 c 257
 1645 202 l 258
 1731 202 1803 131 1803 45 c 256
 1803 -41 1731 -112 1645 -112 c 258
 1644 -112 l 257
 1287 -112 1088 -26 939 372 c 256
 887 510 748 670 580 841 c 256
 520 902 521 1003 582 1063 c 256
EndSplineSet
EndChar

StartChar: uniE05B
Encoding: 57435 57435 388
Width: 2265
GlyphClass: 2
Flags: HW
LayerCount: 2
Fore
SplineSet
1202 1063 m 256
 1263 1123 1364 1122 1424 1061 c 256
 1594 888 1769 706 1853 482 c 256
 1970 172 1959 202 2264 202 c 257
 2265 202 l 258
 2351 202 2423 131 2423 45 c 256
 2423 -41 2351 -112 2265 -112 c 258
 2264 -112 l 257
 1907 -112 1708 -26 1559 372 c 256
 1507 510 1368 670 1200 841 c 256
 1140 902 1141 1003 1202 1063 c 256
337 567 m 256
 418 538 460 446 431 365 c 256
 373 205 338 53 338 -62 c 256
 338 -245 385 -352 703 -352 c 256
 1007 -352 1044 -234 1044 -234 c 257
 1044 -234 1034 -144 756 -111 c 256
 671 -101 609 -21 619 64 c 256
 629 149 709 211 794 201 c 256
 1100 164 1358 28 1358 -234 c 256
 1358 -526 1041 -668 703 -668 c 256
 245 -668 22 -401 22 -62 c 256
 22 111 69 293 135 473 c 256
 164 554 256 596 337 567 c 256
618 45 m 256
 618 131 689 202 775 202 c 258
 1102 202 l 258
 1528 202 1566 298 1566 312 c 256
 1566 423 1393 643 1199 841 c 256
 1136 906 1142 1014 1211 1072 c 256
 1224 1083 1243 1092 1243 1092 c 257
 1977 1452 l 258
 2054 1490 2149 1457 2187 1380 c 256
 2225 1303 2192 1208 2115 1170 c 258
 1574 904 l 257
 1717 745 1882 548 1882 312 c 256
 1882 -52 1468 -112 1102 -112 c 258
 775 -112 l 258
 689 -112 618 -41 618 45 c 256
EndSplineSet
EndChar

StartChar: uniE05C
Encoding: 57436 57436 389
Width: 2443
GlyphClass: 2
Flags: HW
LayerCount: 2
Fore
SplineSet
690 -724 m 256
 315 -724 22 -538 22 -126 c 256
 22 21 53 171 94 319 c 256
 117 402 205 452 288 429 c 256
 371 406 421 318 398 235 c 256
 361 103 338 -25 338 -126 c 256
 338 -343 411 -409 690 -409 c 256
 925 -409 1014 -321 1014 -300 c 256
 1014 -279 958 -263 889 -254 c 256
 753 -236 486 -153 486 110 c 256
 486 485 884 641 1178 690 c 256
 1259 703 1337 649 1356 575 c 257
 1441 253 1490 182 1542 182 c 256
 1607 182 1624 266 1656 510 c 256
 1667 595 1749 656 1834 644 c 256
 1919 632 1976 554 1968 466 c 256
 1950 269 1884 -132 1542 -132 c 256
 1255 -132 1154 146 1093 348 c 257
 880 285 801 188 801 119 c 256
 801 94 865 71 949 56 c 256
 1169 17 1330 -58 1330 -300 c 256
 1330 -668 894 -724 690 -724 c 256
1838 644 m 256
 1923 631 1976 554 1968 466 c 256
 1965 433 1961 368 1961 312 c 256
 1961 206 1998 184 2043 184 c 256
 2113 184 2126 224 2126 286 c 256
 2126 377 2103 467 2071 575 c 256
 2047 657 2096 746 2178 770 c 256
 2260 794 2349 745 2373 663 c 256
 2405 553 2440 429 2440 286 c 256
 2440 72 2310 -130 2046 -130 c 256
 1740 -130 1646 163 1646 368 c 256
 1646 416 1649 465 1657 513 c 256
 1670 598 1753 657 1838 644 c 256
EndSplineSet
EndChar

StartChar: uniE05D
Encoding: 57437 57437 390
Width: 2538
GlyphClass: 2
Flags: HW
LayerCount: 2
Fore
SplineSet
690 -724 m 256
 315 -724 22 -538 22 -126 c 256
 22 21 53 171 94 319 c 256
 117 402 205 452 288 429 c 256
 371 406 421 318 398 235 c 256
 361 103 338 -25 338 -126 c 256
 338 -343 411 -409 690 -409 c 256
 925 -409 1014 -321 1014 -300 c 256
 1014 -279 958 -263 889 -254 c 256
 753 -236 486 -153 486 110 c 256
 486 485 884 641 1178 690 c 256
 1259 703 1337 649 1356 575 c 257
 1417 342 1577 182 1832 182 c 256
 2098 182 2220 287 2220 414 c 256
 2220 490 2179 532 2098 532 c 256
 1938 532 1691 197 1598 -53 c 256
 1568 -133 1476 -176 1395 -146 c 256
 1314 -116 1272 -23 1302 57 c 256
 1393 303 1658 848 2098 848 c 256
 2341 848 2536 662 2536 414 c 256
 2536 17 2148 -132 1832 -132 c 256
 1477 -132 1222 79 1102 351 c 257
 889 288 801 188 801 119 c 256
 801 94 865 71 949 56 c 256
 1169 17 1330 -58 1330 -300 c 256
 1330 -668 894 -724 690 -724 c 256
EndSplineSet
EndChar

StartChar: uniE05E
Encoding: 57438 57438 391
Width: 2690
GlyphClass: 2
Flags: HW
LayerCount: 2
Fore
SplineSet
2220 414 m 256
 2220 490 2179 532 2098 532 c 256
 1934 532 1690 189 1644 65 c 256
 1614 -15 1522 -58 1441 -28 c 256
 1360 2 1318 95 1348 175 c 256
 1401 317 1662 848 2098 848 c 256
 2341 848 2536 662 2536 414 c 256
 2536 17 2148 -132 1832 -132 c 256
 1477 -132 1222 79 1102 351 c 257
 880 286 801 188 801 119 c 256
 801 94 865 71 949 56 c 256
 1169 17 1330 -58 1330 -300 c 256
 1330 -668 894 -724 690 -724 c 256
 315 -724 22 -538 22 -126 c 256
 22 21 53 171 94 319 c 256
 117 402 205 452 288 429 c 256
 371 406 421 318 398 235 c 256
 361 103 338 -25 338 -126 c 256
 338 -343 411 -409 690 -409 c 256
 925 -409 1014 -321 1014 -300 c 256
 1014 -279 958 -263 889 -254 c 256
 753 -236 486 -153 486 110 c 256
 486 485 884 641 1178 690 c 256
 1259 703 1337 649 1356 575 c 256
 1417 342 1577 182 1832 182 c 256
 2098 182 2220 287 2220 414 c 256
2285 405 m 256
 2365 435 2458 393 2488 312 c 256
 2519 227 2529 202 2689 202 c 257
 2690 202 l 258
 2776 202 2848 131 2848 45 c 256
 2848 -41 2776 -112 2690 -112 c 258
 2689 -112 l 257
 2441 -112 2267 1 2192 202 c 256
 2162 283 2205 375 2285 405 c 256
EndSplineSet
EndChar

StartChar: uniE05F
Encoding: 57439 57439 392
Width: 531
GlyphClass: 2
Flags: HW
LayerCount: 2
Fore
SplineSet
219 1368 m 256
 305 1365 373 1291 370 1205 c 256
 362 995 358 787 358 587 c 256
 358 225 372 202 530 202 c 257
 531 202 l 258
 617 202 688 131 688 45 c 256
 688 -41 617 -112 531 -112 c 258
 530 -112 l 257
 133 -112 42 142 42 587 c 256
 42 793 48 1005 56 1217 c 256
 59 1303 133 1371 219 1368 c 256
EndSplineSet
EndChar

StartChar: uniE060
Encoding: 57440 57440 393
Width: 1332
GlyphClass: 2
Flags: HW
LayerCount: 2
Fore
SplineSet
693 -750 m 256
 402 -750 2 -606 2 -201 c 256
 2 209 380 428 642 537 c 257
 550 583 483 608 431 608 c 256
 386 608 363 582 340 521 c 256
 310 441 220 396 139 424 c 256
 58 452 14 544 42 625 c 256
 114 830 254 922 433 922 c 256
 642 922 1015 722 1123 660 c 256
 1185 625 1250 584 1250 508 c 256
 1250 431 1189 366 1110 349 c 256
 963 317 318 125 318 -201 c 256
 318 -334 454 -436 693 -436 c 256
 805 -436 917 -409 1014 -357 c 256
 1090 -317 1187 -346 1227 -422 c 256
 1267 -498 1238 -595 1162 -635 c 256
 1017 -711 855 -750 693 -750 c 256
1490 45 m 256
 1490 -41 1418 -112 1332 -112 c 258
 1331 -112 l 257
 1012 -112 735 92 735 458 c 256
 735 544 806 615 892 615 c 256
 978 615 1050 544 1050 458 c 256
 1050 280 1141 202 1331 202 c 257
 1332 202 l 258
 1418 202 1490 131 1490 45 c 256
EndSplineSet
EndChar

StartChar: uniE061
Encoding: 57441 57441 394
Width: 1332
GlyphClass: 2
Flags: HW
LayerCount: 2
Fore
SplineSet
110 380 m 256
 27 402 -24 489 -2 572 c 256
 55 791 229 924 415 924 c 256
 591 924 746 821 893 738 c 256
 1003 676 1110 618 1191 591 c 256
 1277 563 1322 463 1287 380 c 256
 1266 330 1217 294 1170 286 c 256
 1081 270 979 216 852 144 c 256
 648 28 372 -112 0 -112 c 256
 -86 -112 -157 -41 -157 45 c 256
 -157 131 -86 202 0 202 c 256
 290 202 504 308 696 418 c 256
 716 430 736 441 757 453 c 257
 751 457 744 460 737 464 c 256
 584 551 451 610 415 610 c 256
 385 610 327 589 302 492 c 256
 280 409 193 358 110 380 c 256
EndSplineSet
EndChar

StartChar: uniE062
Encoding: 57442 57442 395
Width: 1351
GlyphClass: 2
Flags: HW
LayerCount: 2
Fore
SplineSet
953 534 m 256
 1039 534 1110 463 1110 377 c 256
 1110 277 1174 202 1350 202 c 257
 1351 202 l 258
 1437 202 1509 131 1509 45 c 256
 1509 -41 1437 -112 1351 -112 c 258
 1350 -112 l 257
 1065 -112 796 61 796 377 c 256
 796 463 867 534 953 534 c 256
110 380 m 256
 27 402 -24 489 -2 572 c 256
 55 791 229 924 415 924 c 256
 591 924 746 821 893 738 c 256
 1003 676 1110 618 1191 591 c 256
 1277 563 1322 463 1287 380 c 256
 1266 330 1217 294 1170 286 c 256
 1081 270 979 216 852 144 c 256
 648 28 372 -112 0 -112 c 256
 -86 -112 -157 -41 -157 45 c 256
 -157 131 -86 202 0 202 c 256
 290 202 504 308 696 418 c 256
 716 430 736 441 757 453 c 257
 751 457 744 460 737 464 c 256
 584 551 451 610 415 610 c 256
 385 610 327 589 302 492 c 256
 280 409 193 358 110 380 c 256
EndSplineSet
EndChar

StartChar: uniE063
Encoding: 57443 57443 396
Width: 1120
GlyphClass: 2
Flags: HW
LayerCount: 2
Fore
SplineSet
1278 45 m 256
 1278 -41 1206 -112 1120 -112 c 258
 1119 -112 l 257
 764 -111 653 195 592 369 c 256
 545 507 512 574 444 711 c 256
 406 788 438 884 515 922 c 256
 592 960 688 928 726 851 c 256
 794 715 838 623 890 471 c 256
 959 276 996 202 1119 202 c 257
 1120 202 l 258
 1206 202 1278 131 1278 45 c 256
694 548 m 256
 775 577 864 535 893 454 c 256
 911 404 926 351 926 297 c 256
 926 -37 618 -142 389 -142 c 256
 295 -142 226 -134 131 -101 c 256
 50 -73 10 22 40 102 c 256
 70 182 157 218 243 192 c 256
 298 175 331 172 389 172 c 256
 570 172 610 223 610 297 c 256
 610 315 606 330 600 346 c 256
 571 427 613 519 694 548 c 256
EndSplineSet
EndChar

StartChar: uniE064
Encoding: 57444 57444 397
Width: 917
GlyphClass: 2
Flags: HW
LayerCount: 2
Fore
SplineSet
1074 45 m 256
 1074 -41 1003 -112 917 -112 c 258
 916 -112 l 257
 763 -112 632 -71 539 25 c 256
 424 145 395 296 359 448 c 256
 339 531 392 617 476 637 c 256
 560 657 645 603 665 520 c 256
 703 362 735 274 765 243 c 256
 784 223 812 202 916 202 c 257
 917 202 l 258
 1003 202 1074 131 1074 45 c 256
472 636 m 256
 555 658 642 607 664 524 c 256
 708 358 734 209 734 71 c 256
 734 -243 535 -481 217 -604 c 256
 137 -635 44 -594 13 -514 c 256
 -18 -434 23 -341 103 -310 c 256
 339 -219 420 -95 420 71 c 256
 420 169 400 294 360 444 c 256
 338 527 389 614 472 636 c 256
EndSplineSet
EndChar

StartChar: uniE065
Encoding: 57445 57445 398
Width: 2402
GlyphClass: 2
Flags: HW
LayerCount: 2
Fore
SplineSet
316 505 m 256
 395 472 435 378 402 299 c 256
 350 174 318 44 318 -58 c 256
 318 -204 380 -316 644 -316 c 256
 885 -316 962 -202 962 -23 c 256
 962 78 938 202 891 327 c 256
 861 407 903 500 983 530 c 256
 1063 560 1156 517 1186 437 c 256
 1243 284 1278 128 1278 -23 c 256
 1278 -354 1049 -630 644 -630 c 256
 238 -630 2 -376 2 -58 c 256
 2 104 48 268 110 419 c 256
 143 498 237 538 316 505 c 256
983 529 m 256
 1063 559 1155 517 1185 437 c 256
 1268 216 1307 178 1370 178 c 256
 1448 178 1480 207 1506 438 c 256
 1516 523 1595 586 1680 576 c 256
 1765 566 1829 487 1819 402 c 256
 1781 73 1639 -138 1382 -138 c 256
 1127 -138 984 79 891 327 c 256
 861 407 903 499 983 529 c 256
1684 576 m 256
 1769 564 1830 483 1818 398 c 256
 1810 343 1808 311 1808 265 c 256
 1808 196 1828 174 1862 174 c 256
 1896 174 1916 196 1916 309 c 256
 1916 362 1909 424 1898 484 c 256
 1882 568 1940 652 2024 668 c 256
 2108 684 2192 626 2208 542 c 256
 2222 466 2232 388 2232 309 c 256
 2232 125 2142 -142 1866 -142 c 256
 1642 -142 1492 43 1492 265 c 256
 1492 327 1498 381 1506 442 c 256
 1518 527 1599 588 1684 576 c 256
2027 668 m 256
 2112 682 2194 624 2208 539 c 256
 2263 218 2273 202 2401 202 c 257
 2402 202 l 258
 2488 202 2560 131 2560 45 c 256
 2560 -41 2488 -112 2402 -112 c 258
 2401 -112 l 257
 2024 -111 1947 199 1898 487 c 256
 1884 572 1942 654 2027 668 c 256
EndSplineSet
EndChar

StartChar: uniE066
Encoding: 57446 57446 399
Width: 1545
GlyphClass: 2
Flags: HW
LayerCount: 2
Fore
SplineSet
1265 766 m 256
 1345 797 1437 755 1468 675 c 256
 1505 578 1542 439 1542 295 c 256
 1542 132 1454 -130 1171 -130 c 256
 868 -130 750 161 750 387 c 256
 750 430 753 471 759 511 c 256
 772 596 853 657 938 644 c 256
 1023 631 1084 550 1071 465 c 256
 1067 437 1064 410 1064 387 c 256
 1064 210 1111 184 1154 184 c 256
 1198 184 1228 202 1228 295 c 256
 1228 381 1199 498 1174 563 c 256
 1143 643 1185 735 1265 766 c 256
930 645 m 256
 1015 637 1080 559 1072 473 c 256
 1053 275 969 -132 583 -132 c 256
 336 -132 216 87 216 275 c 256
 216 363 222 417 235 505 c 256
 248 590 329 651 414 638 c 256
 499 625 560 544 547 459 c 256
 534 371 530 332 530 275 c 256
 530 205 566 182 614 182 c 256
 685 182 732 231 758 503 c 256
 766 589 845 653 930 645 c 256
405 639 m 256
 490 632 554 554 547 468 c 256
 522 185 379 -112 0 -112 c 256
 -86 -112 -157 -41 -157 45 c 256
 -157 131 -86 202 0 202 c 256
 163 202 215 273 234 496 c 256
 241 582 320 646 405 639 c 256
EndSplineSet
EndChar

StartChar: uniE067
Encoding: 57447 57447 400
Width: 1767
GlyphClass: 2
Flags: HW
LayerCount: 2
Fore
SplineSet
1924 45 m 256
 1924 -41 1853 -112 1767 -112 c 258
 1766 -112 l 257
 1425 -112 1321 137 1277 552 c 256
 1268 637 1332 717 1417 726 c 256
 1502 735 1582 671 1591 586 c 256
 1630 217 1636 202 1766 202 c 257
 1767 202 l 258
 1853 202 1924 131 1924 45 c 256
1425 726 m 256
 1511 731 1586 664 1591 578 c 256
 1594 527 1596 475 1596 419 c 256
 1596 223 1530 -128 1189 -128 c 256
 855 -128 782 202 782 399 c 256
 782 433 784 467 786 501 c 256
 792 587 868 653 954 647 c 256
 1040 641 1106 565 1100 479 c 256
 1098 453 1098 427 1098 399 c 256
 1098 215 1136 188 1189 188 c 256
 1250 188 1282 224 1282 419 c 256
 1282 466 1280 512 1277 560 c 256
 1272 646 1339 721 1425 726 c 256
965 646 m 256
 1050 634 1111 553 1099 468 c 256
 1071 268 998 -132 612 -132 c 256
 330 -132 242 128 242 344 c 256
 242 390 244 459 248 505 c 256
 255 591 331 657 417 650 c 256
 503 643 569 567 562 481 c 256
 559 447 556 376 556 344 c 256
 556 209 578 184 632 184 c 256
 706 184 753 272 787 512 c 256
 799 597 880 658 965 646 c 256
419 650 m 256
 504 642 570 565 562 479 c 256
 532 141 379 -112 0 -112 c 256
 -86 -112 -157 -41 -157 45 c 256
 -157 131 -86 202 0 202 c 256
 193 202 224 235 248 507 c 256
 256 593 334 658 419 650 c 256
EndSplineSet
EndChar

StartChar: uniE068
Encoding: 57448 57448 401
Width: 2424
GlyphClass: 2
Flags: HW
LayerCount: 2
Fore
SplineSet
2302 408 m 256
 2302 24 1904 -112 1650 -112 c 256
 1244 -112 1016 40 906 306 c 256
 873 385 912 478 991 511 c 256
 1070 544 1164 505 1197 426 c 256
 1258 278 1388 202 1650 202 c 256
 1850 202 1988 325 1988 393 c 256
 1988 441 1956 482 1867 482 c 256
 1738 482 1591 370 1470 114 c 256
 1433 36 1339 2 1261 39 c 256
 1183 76 1149 170 1186 248 c 256
 1321 534 1532 798 1873 798 c 256
 2077 798 2302 663 2302 408 c 256
1002 516 m 256
 1084 543 1174 497 1201 415 c 256
 1250 265 1276 124 1276 -7 c 256
 1276 -383 1018 -630 589 -630 c 256
 327 -630 2 -483 2 -117 c 256
 2 91 94 298 201 466 c 256
 247 538 347 560 419 514 c 256
 491 468 513 368 467 296 c 256
 380 160 318 -5 318 -117 c 256
 318 -245 409 -316 589 -316 c 256
 888 -316 962 -213 962 -7 c 256
 962 80 942 191 901 317 c 256
 874 399 920 489 1002 516 c 256
2009 364 m 256
 2085 405 2181 376 2222 300 c 256
 2257 235 2284 202 2423 202 c 257
 2424 202 l 258
 2510 202 2582 131 2582 45 c 256
 2582 -41 2510 -112 2424 -112 c 258
 2423 -112 l 257
 2194 -112 2031 -9 1945 151 c 256
 1904 227 1933 323 2009 364 c 256
EndSplineSet
EndChar

StartChar: uniE069
Encoding: 57449 57449 402
Width: 1546
GlyphClass: 2
Flags: HW
LayerCount: 2
Fore
SplineSet
1229 434 m 256
 1229 510 1187 552 1106 552 c 256
 948 552 716 292 552 -106 c 256
 526 -170 454 -205 390 -181 c 256
 326 -157 292 -83 316 -18 c 256
 406 227 664 868 1106 868 c 256
 1349 868 1544 682 1544 434 c 256
 1544 20 1087 -112 809 -112 c 256
 385 -112 196 78 196 485 c 256
 196 571 267 642 353 642 c 256
 439 642 511 571 511 485 c 256
 511 227 530 202 809 202 c 256
 1057 202 1229 324 1229 434 c 256
353 642 m 256
 439 642 510 571 510 485 c 256
 510 95 345 -112 0 -112 c 256
 -86 -112 -157 -41 -157 45 c 256
 -157 131 -86 202 0 202 c 256
 179 202 196 208 196 485 c 256
 196 571 267 642 353 642 c 256
EndSplineSet
EndChar

StartChar: uniE06A
Encoding: 57450 57450 403
Width: 1671
GlyphClass: 2
Flags: HW
LayerCount: 2
Fore
SplineSet
1536 434 m 256
 1536 14 1052 -112 780 -112 c 256
 364 -112 195 120 195 485 c 256
 195 571 266 642 352 642 c 256
 438 642 510 571 510 485 c 256
 510 226 515 202 780 202 c 256
 1034 202 1222 330 1222 434 c 256
 1222 503 1185 552 1103 552 c 256
 993 552 806 384 642 51 c 256
 604 -26 508 -58 431 -20 c 256
 354 18 322 114 360 191 c 256
 524 522 757 868 1103 868 c 256
 1326 868 1536 689 1536 434 c 256
364 642 m 256
 450 635 516 559 509 473 c 256
 484 149 364 -112 0 -112 c 256
 -86 -112 -157 -41 -157 45 c 256
 -157 131 -86 202 0 202 c 256
 155 202 172 207 195 497 c 256
 202 583 278 649 364 642 c 256
1266 405 m 256
 1346 435 1439 393 1469 312 c 256
 1500 227 1510 202 1670 202 c 257
 1671 202 l 258
 1757 202 1829 131 1829 45 c 256
 1829 -41 1757 -112 1671 -112 c 258
 1670 -112 l 257
 1422 -112 1248 1 1173 202 c 256
 1143 283 1186 375 1266 405 c 256
EndSplineSet
EndChar

StartChar: uniE06B
Encoding: 57451 57451 404
Width: 1656
GlyphClass: 2
Flags: HW
LayerCount: 2
Fore
SplineSet
1197 449 m 256
 1197 513 1155 556 1090 556 c 256
 922 556 702 285 595 2 c 256
 565 -78 473 -119 393 -89 c 256
 313 -59 271 34 301 114 c 256
 410 403 664 870 1090 870 c 256
 1327 870 1512 683 1512 449 c 256
 1512 -172 560 -112 160 -112 c 256
 74 -112 2 -41 2 45 c 256
 2 131 74 202 160 202 c 256
 732 202 1197 262 1197 449 c 256
390 -89 m 256
 310 -58 269 36 301 116 c 256
 358 260 384 474 384 716 c 256
 384 868 375 1032 359 1196 c 256
 351 1281 415 1360 501 1368 c 256
 587 1376 665 1311 673 1226 c 256
 689 1054 700 882 700 716 c 256
 700 454 676 206 595 0 c 256
 563 -80 470 -120 390 -89 c 256
1228 411 m 256
 1307 445 1401 407 1435 328 c 256
 1471 243 1536 202 1655 202 c 257
 1656 202 l 258
 1742 202 1814 131 1814 45 c 256
 1814 -41 1742 -112 1656 -112 c 258
 1655 -112 l 257
 1447 -112 1239 -17 1145 204 c 256
 1111 283 1149 377 1228 411 c 256
EndSplineSet
EndChar

StartChar: uniE06C
Encoding: 57452 57452 405
Width: 1250
GlyphClass: 2
Flags: HW
LayerCount: 2
Fore
SplineSet
230 1367 m 256
 315 1377 394 1314 404 1229 c 256
 420 1092 428 949 428 747 c 256
 428 453 327 72 211 -134 c 256
 177 -194 99 -216 39 -182 c 256
 -21 -148 -43 -71 -9 -11 c 256
 73 135 114 485 114 747 c 256
 114 941 106 1068 92 1193 c 256
 82 1278 145 1357 230 1367 c 256
933 466 m 256
 933 516 896 562 816 562 c 256
 610 562 362 226 216 -123 c 256
 189 -186 114 -215 51 -188 c 256
 -12 -161 -38 -87 -14 -22 c 256
 55 166 322 876 816 876 c 256
 1038 876 1248 714 1248 466 c 256
 1248 -123 318 -108 20 -108 c 256
 -49 -108 -157 -41 -157 45 c 256
 -157 131 -86 202 0 202 c 256
 511 202 933 295 933 466 c 256
EndSplineSet
EndChar

StartChar: uniE06D
Encoding: 57453 57453 406
Width: 1338
GlyphClass: 2
Flags: HW
LayerCount: 2
Fore
SplineSet
311 1368 m 256
 396 1376 475 1312 483 1226 c 256
 499 1054 510 882 510 716 c 256
 510 454 486 206 405 0 c 256
 374 -80 280 -120 200 -89 c 256
 120 -58 81 36 112 116 c 256
 169 260 194 474 194 716 c 256
 194 868 185 1032 169 1196 c 256
 161 1282 226 1360 311 1368 c 256
1314 444 m 256
 1314 -101 497 -112 0 -112 c 256
 -86 -112 -157 -41 -157 45 c 256
 -157 131 -86 202 0 202 c 256
 649 202 1000 278 1000 453 c 256
 1000 506 970 554 892 554 c 256
 718 554 503 254 405 0 c 256
 374 -80 280 -120 200 -89 c 256
 120 -58 80 36 111 116 c 256
 203 351 440 868 872 868 c 256
 1166 868 1314 640 1314 444 c 256
972 348 m 256
 1050 385 1144 351 1181 273 c 256
 1208 215 1217 202 1337 202 c 257
 1338 202 l 258
 1424 202 1496 131 1496 45 c 256
 1496 -41 1424 -112 1338 -112 c 258
 1337 -112 l 257
 1156 -112 984 -45 897 139 c 256
 860 217 894 311 972 348 c 256
EndSplineSet
EndChar

StartChar: uniE06E
Encoding: 57454 57454 407
Width: 1092
GlyphClass: 2
Flags: HW
LayerCount: 2
Fore
SplineSet
1250 45 m 256
 1250 -41 1178 -112 1092 -112 c 258
 1091 -112 l 257
 652 -111 256 258 60 545 c 256
 12 616 30 716 101 764 c 256
 172 812 272 794 320 723 c 256
 486 480 832 203 1091 202 c 257
 1092 202 l 258
 1178 202 1250 131 1250 45 c 256
79 523 m 256
 18 584 18 684 79 745 c 256
 191 857 385 934 575 934 c 256
 742 934 1008 849 1008 586 c 256
 1008 364 831 252 668 161 c 256
 481 57 318 -95 318 -285 c 256
 318 -406 417 -488 674 -488 c 256
 739 -488 808 -481 877 -468 c 256
 961 -453 1045 -510 1060 -595 c 256
 1075 -680 1017 -763 933 -778 c 256
 848 -793 761 -802 674 -802 c 256
 383 -802 2 -682 2 -285 c 256
 2 95 306 320 514 436 c 256
 688 533 693 558 693 578 c 257
 693 604 639 618 575 618 c 256
 473 618 366 571 301 523 c 256
 232 472 140 462 79 523 c 256
EndSplineSet
EndChar

StartChar: uniE06F
Encoding: 57455 57455 408
Width: 1020
GlyphClass: 2
Flags: HW
LayerCount: 2
Fore
SplineSet
849 608 m 256
 791 545 691 540 627 598 c 256
 603 620 565 634 525 634 c 256
 433 634 334 543 334 437 c 256
 334 362 382 306 510 306 c 256
 563 306 618 313 675 322 c 256
 732 331 790 338 854 340 c 256
 940 343 1014 275 1017 189 c 256
 1020 103 952 29 866 26 c 256
 821 24 775 18 723 10 c 256
 658 -1 585 -8 510 -8 c 256
 270 -8 20 146 20 437 c 256
 20 719 253 950 525 950 c 256
 637 950 751 910 839 830 c 256
 903 772 907 671 849 608 c 256
1018 183 m 256
 1018 97 946 26 860 26 c 256
 761 26 697 6 596 -24 c 256
 464 -64 288 -112 0 -112 c 256
 -86 -112 -157 -41 -157 45 c 256
 -157 131 -86 202 0 202 c 256
 256 202 378 240 506 278 c 256
 605 308 715 340 860 340 c 256
 946 340 1018 269 1018 183 c 256
EndSplineSet
EndChar

StartChar: uniE070
Encoding: 57456 57456 409
Width: 1040
GlyphClass: 2
Flags: HW
LayerCount: 2
Fore
SplineSet
521 870 m 256
 703 870 1000 773 1000 483 c 256
 1000 22 288 -112 0 -112 c 256
 -86 -112 -157 -41 -157 45 c 256
 -157 131 -86 202 0 202 c 256
 317 202 684 406 684 494 c 256
 684 530 637 554 548 554 c 256
 490 554 427 545 368 524 c 257
 526 361 766 202 1039 202 c 257
 1040 202 l 258
 1126 202 1198 131 1198 45 c 256
 1198 -41 1126 -112 1040 -112 c 258
 1039 -112 l 257
 535 -112 169 240 6 468 c 256
 -39 532 -30 621 25 673 c 256
 147 789 342 870 521 870 c 256
EndSplineSet
EndChar

StartChar: uniE071
Encoding: 57457 57457 410
Width: 1829
GlyphClass: 2
Flags: HW
LayerCount: 2
Fore
SplineSet
1399 940 m 256
 1673 940 1822 720 1822 484 c 256
 1822 -52 1240 -142 840 -142 c 256
 512 -142 2 -127 2 336 c 256
 2 427 23 525 63 632 c 256
 93 712 185 755 266 725 c 256
 347 695 389 602 359 522 c 256
 328 439 318 377 318 336 c 256
 318 227 426 172 840 172 c 256
 1274 172 1506 276 1506 484 c 256
 1506 592 1454 624 1407 624 c 256
 1350 624 1292 593 1292 472 c 256
 1292 311 1459 202 1828 202 c 257
 1829 202 l 258
 1915 202 1986 131 1986 45 c 256
 1986 -41 1915 -112 1829 -112 c 258
 1828 -112 l 257
 1458 -112 978 7 978 472 c 256
 978 721 1146 940 1399 940 c 256
EndSplineSet
EndChar

StartChar: uniE072
Encoding: 57458 57458 411
Width: 1461
GlyphClass: 2
Flags: HW
LayerCount: 2
Fore
SplineSet
968 512 m 256
 912 512 866 443 866 316 c 256
 866 217 907 202 998 202 c 258
 1461 202 l 258
 1547 202 1618 131 1618 45 c 256
 1618 -41 1547 -112 1461 -112 c 258
 1018 -114 l 258
 769 -114 550 17 550 316 c 256
 550 519 675 828 977 828 c 256
 1387 828 1418 342 1418 121 c 256
 1418 -336 1124 -620 704 -620 c 256
 266 -620 2 -371 2 -17 c 256
 2 136 46 297 117 458 c 256
 152 537 247 573 325 538 c 256
 403 503 440 409 405 330 c 256
 346 197 318 76 318 -17 c 256
 318 -187 388 -304 704 -304 c 256
 964 -304 1104 -184 1104 121 c 256
 1104 404 1029 512 968 512 c 256
EndSplineSet
EndChar

StartChar: uniE073
Encoding: 57459 57459 412
Width: 1772
GlyphClass: 2
Flags: HW
LayerCount: 2
Fore
SplineSet
1930 45 m 256
 1930 -41 1858 -112 1772 -112 c 258
 1771 -112 l 257
 1488 -112 1233 74 1233 431 c 256
 1233 517 1304 588 1390 588 c 256
 1476 588 1548 517 1548 431 c 256
 1548 252 1625 202 1771 202 c 257
 1772 202 l 258
 1858 202 1930 131 1930 45 c 256
1326 1367 m 256
 1411 1378 1491 1316 1502 1231 c 256
 1532 1004 1548 675 1548 431 c 256
 1548 -13 1095 -142 786 -142 c 256
 511 -142 2 -111 2 363 c 256
 2 461 30 554 68 639 c 256
 103 717 198 753 276 718 c 256
 354 683 390 587 355 509 c 256
 331 456 318 399 318 363 c 256
 318 227 451 174 786 174 c 256
 1069 174 1232 279 1232 431 c 256
 1232 661 1216 988 1190 1191 c 256
 1179 1276 1241 1356 1326 1367 c 256
EndSplineSet
EndChar

StartChar: uniE074
Encoding: 57460 57460 413
Width: 1054
GlyphClass: 2
Flags: HW
LayerCount: 2
Fore
SplineSet
-158 45 m 256
 -158 131 -86 202 0 202 c 256
 413 202 414 281 414 312 c 256
 414 423 241 643 47 841 c 256
 -16 906 -10 1014 59 1072 c 256
 72 1083 91 1092 91 1092 c 257
 825 1452 l 258
 902 1490 997 1457 1035 1380 c 256
 1073 1303 1040 1208 963 1170 c 258
 422 904 l 257
 565 745 730 548 730 312 c 256
 730 -35 379 -112 0 -112 c 256
 -86 -112 -158 -41 -158 45 c 256
EndSplineSet
EndChar

StartChar: uniE075
Encoding: 57461 57461 414
Width: 1113
GlyphClass: 2
Flags: HW
LayerCount: 2
Fore
SplineSet
19 882 m 256
 -19 959 14 1054 91 1092 c 258
 825 1452 l 258
 902 1490 997 1457 1035 1380 c 256
 1073 1303 1040 1208 963 1170 c 258
 229 810 l 258
 152 772 57 805 19 882 c 256
-158 45 m 256
 -158 131 -86 202 0 202 c 256
 387 202 414 242 414 312 c 256
 414 421 236 652 47 841 c 256
 -16 906 -10 1014 59 1072 c 256
 121 1124 216 1118 272 1061 c 256
 442 888 622 704 702 481 c 256
 799 212 805 202 1112 202 c 257
 1113 202 l 258
 1199 202 1271 131 1271 45 c 256
 1271 -41 1199 -112 1113 -112 c 258
 1112 -112 l 257
 917 -112 742 -110 600 27 c 257
 460 -90 258 -112 0 -112 c 256
 -86 -112 -158 -41 -158 45 c 256
EndSplineSet
EndChar

StartChar: uniE076
Encoding: 57462 57462 415
Width: 1450
GlyphClass: 2
Flags: HW
LayerCount: 2
Fore
SplineSet
1082 529 m 256
 1168 534 1244 468 1249 382 c 256
 1261 188 1265 202 1449 202 c 257
 1450 202 l 258
 1536 202 1608 131 1608 45 c 256
 1608 -41 1536 -112 1450 -112 c 258
 1449 -112 l 257
 1176 -112 957 12 935 362 c 256
 930 448 996 524 1082 529 c 256
1036 1368 m 256
 1122 1374 1198 1308 1204 1222 c 256
 1232 832 1254 501 1254 148 c 256
 1254 -225 1093 -582 609 -582 c 256
 247 -582 2 -344 2 -15 c 256
 2 148 54 310 114 429 c 256
 152 506 249 537 326 499 c 256
 403 461 434 364 396 287 c 256
 356 206 318 78 318 -15 c 256
 318 -170 391 -266 609 -266 c 256
 877 -266 938 -153 938 148 c 256
 938 487 918 810 890 1200 c 256
 884 1286 950 1362 1036 1368 c 256
EndSplineSet
EndChar

StartChar: uniE077
Encoding: 57463 57463 416
Width: 494
GlyphClass: 2
Flags: HW
LayerCount: 2
Fore
SplineSet
224 1367 m 256
 309 1378 390 1317 401 1232 c 256
 439 940 452 763 452 444 c 256
 452 309 438 183 370 73 c 256
 292 -52 153 -112 0 -112 c 256
 -86 -112 -157 -41 -157 45 c 256
 -157 131 -86 202 0 202 c 256
 80 202 89 219 102 239 c 256
 118 265 136 333 136 444 c 256
 136 757 127 904 89 1190 c 256
 78 1275 139 1356 224 1367 c 256
EndSplineSet
EndChar

StartChar: uniE078
Encoding: 57464 57464 417
Width: 674
GlyphClass: 2
Flags: HW
LayerCount: 2
Fore
SplineSet
832 45 m 256
 832 -41 760 -112 674 -112 c 258
 673 -112 l 257
 414 -112 180 50 180 369 c 256
 180 455 251 526 337 526 c 256
 423 526 495 455 495 369 c 256
 495 234 537 202 673 202 c 257
 674 202 l 258
 760 202 832 131 832 45 c 256
278 1368 m 256
 363 1376 442 1312 450 1226 c 256
 477 936 494 685 494 369 c 256
 494 59 283 -112 0 -112 c 256
 -86 -112 -157 -41 -157 45 c 256
 -157 131 -86 202 0 202 c 256
 155 202 180 225 180 369 c 256
 180 673 163 910 136 1196 c 256
 128 1282 193 1360 278 1368 c 256
EndSplineSet
EndChar

StartChar: uniE079
Encoding: 57465 57465 418
Width: 1365
GlyphClass: 2
Flags: HW
LayerCount: 2
Fore
SplineSet
973 474 m 256
 1057 493 1142 440 1161 356 c 256
 1188 239 1209 202 1364 202 c 257
 1365 202 l 258
 1451 202 1523 131 1523 45 c 256
 1523 -41 1451 -112 1365 -112 c 258
 1364 -112 l 257
 1071 -112 906 65 855 286 c 256
 836 370 889 455 973 474 c 256
EndSplineSet
EndChar

StartChar: uniE07A
Encoding: 57466 57466 419
Width: 996
GlyphClass: 2
Flags: HW
LayerCount: 2
Fore
SplineSet
561 460 m 256
 511 460 489 432 443 289 c 256
 394 138 304 -112 0 -112 c 256
 -86 -112 -157 -41 -157 45 c 256
 -157 131 -86 202 0 202 c 256
 84 202 91 215 143 385 c 256
 210 604 333 776 573 776 c 256
 823 776 994 537 994 278 c 256
 994 -6 775 -142 576 -142 c 256
 450 -142 325 -101 225 -24 c 256
 157 28 144 129 196 197 c 256
 248 265 349 278 417 226 c 256
 457 195 522 172 576 172 c 256
 638 172 678 193 678 278 c 256
 678 419 593 460 561 460 c 256
EndSplineSet
EndChar

StartChar: uniE07B
Encoding: 57467 57467 420
Width: 1199
GlyphClass: 2
Flags: HW
LayerCount: 2
Fore
SplineSet
1356 45 m 256
 1356 -41 1285 -112 1199 -112 c 258
 1198 -112 l 257
 887 -112 771 88 726 233 c 256
 707 294 680 375 560 488 c 256
 498 547 501 651 563 711 c 256
 625 771 726 769 786 708 c 256
 912 578 979 466 1024 337 c 256
 1066 218 1074 202 1198 202 c 257
 1199 202 l 258
 1285 202 1356 131 1356 45 c 256
569 -142 m 256
 351 -142 208 2 208 216 c 256
 208 379 250 532 379 702 c 256
 431 770 536 774 601 718 c 256
 666 662 673 561 617 496 c 256
 508 370 493 288 493 240 c 256
 493 190 537 172 593 172 c 256
 660 172 701 194 701 246 c 256
 701 293 682 373 565 484 c 256
 503 543 500 644 559 706 c 256
 618 768 719 771 781 712 c 256
 932 568 1016 401 1016 226 c 256
 1016 -6 814 -142 569 -142 c 256
599 720 m 256
 665 665 675 563 619 498 c 256
 579 451 530 382 506 328 c 256
 442 186 305 -112 0 -112 c 256
 -86 -112 -157 -41 -157 45 c 256
 -157 131 -86 202 0 202 c 256
 67 202 150 296 236 464 c 256
 282 554 327 639 377 700 c 256
 432 766 533 775 599 720 c 256
EndSplineSet
EndChar

StartChar: uniE07C
Encoding: 57468 57468 421
Width: 1504
GlyphClass: 2
Flags: HW
LayerCount: 2
Fore
SplineSet
1124 500 m 256
 1206 525 1295 476 1320 394 c 256
 1352 288 1375 240 1388 227 c 256
 1394 220 1409 202 1503 202 c 257
 1504 202 l 258
 1590 202 1662 131 1662 45 c 256
 1662 -41 1590 -112 1504 -112 c 258
 1503 -112 l 257
 1370 -112 1250 -84 1162 7 c 256
 1075 96 1048 204 1018 304 c 256
 993 386 1042 475 1124 500 c 256
EndSplineSet
EndChar

StartChar: uniE07D
Encoding: 57469 57469 422
Width: 1081
GlyphClass: 2
Flags: HW
LayerCount: 2
Fore
SplineSet
759 226 m 256
 771 141 710 60 625 48 c 256
 594 44 558 40 518 40 c 256
 308 40 22 137 22 414 c 256
 22 633 193 766 365 847 c 256
 477 899 519 951 525 971 c 256
 549 1053 636 1103 719 1079 c 256
 802 1055 852 967 828 885 c 256
 779 715 631 623 499 561 c 256
 357 494 338 443 338 414 c 257
 338 414 350 354 518 354 c 256
 536 354 554 356 581 360 c 256
 666 372 747 311 759 226 c 256
660 1110 m 256
 745 1118 823 1053 831 967 c 258
 881 420 l 258
 902 188 922 202 1080 202 c 257
 1081 202 l 258
 1167 202 1239 131 1239 45 c 256
 1239 -41 1167 -112 1081 -112 c 258
 1080 -112 l 257
 800 -112 600 38 567 392 c 258
 517 939 l 258
 509 1025 575 1102 660 1110 c 256
EndSplineSet
EndChar

StartChar: uniE07E
Encoding: 57470 57470 423
Width: 1283
GlyphClass: 2
Flags: HW
LayerCount: 2
Fore
SplineSet
-15 430 m 256
 -15 678 174 914 436 914 c 256
 715 914 800 628 800 430 c 256
 800 20 352 -112 0 -112 c 256
 -86 -112 -157 -41 -157 45 c 256
 -157 131 -86 202 0 202 c 256
 372 202 556 288 556 450 c 256
 556 556 467 598 436 598 c 256
 380 598 300 530 300 430 c 256
 300 320 515 202 800 202 c 256
 928 202 976 231 976 278 c 256
 976 374 862 474 607 556 c 256
 459 604 281 674 124 759 c 256
 48 800 19 897 60 973 c 256
 101 1049 198 1078 274 1037 c 256
 403 968 571 905 715 852 c 256
 951 766 1260 616 1260 286 c 256
 1260 30 1032 -112 800 -112 c 256
 515 -112 -15 12 -15 430 c 256
EndSplineSet
EndChar

StartChar: uniE07F
Encoding: 57471 57471 424
Width: 930
GlyphClass: 2
Flags: HW
LayerCount: 2
Fore
SplineSet
534 894 m 256
 741 894 862 717 862 546 c 256
 862 210 527 -112 0 -112 c 256
 -86 -112 -157 -41 -157 45 c 256
 -157 131 -86 202 0 202 c 256
 409 202 559 396 559 520 c 256
 559 565 541 586 501 586 c 256
 416 586 338 437 338 136 c 256
 338 -119 482 -314 533 -314 c 256
 556 -314 566 -296 566 -232 c 256
 566 -160 541 -75 521 -23 c 256
 517 -11 506 21 506 45 c 256
 506 130 576 202 663 202 c 258
 930 202 l 258
 1016 202 1088 131 1088 45 c 256
 1088 -41 1016 -112 930 -112 c 258
 871 -112 l 257
 877 -152 880 -191 880 -232 c 256
 880 -396 792 -630 554 -630 c 256
 186 -630 23 -161 23 136 c 256
 23 437 132 894 534 894 c 256
EndSplineSet
EndChar

StartChar: uniE080
Encoding: 57472 57472 425
Width: 931
GlyphClass: 2
Flags: HW
LayerCount: 2
Fore
SplineSet
460 814 m 256
 789 814 888 443 888 134 c 256
 888 -262 640 -512 248 -608 c 256
 165 -628 76 -579 54 -496 c 256
 32 -413 82 -321 166 -303 c 256
 474 -237 574 -86 574 134 c 256
 574 449 508 498 464 498 c 257
 424 498 368 482 368 310 c 256
 368 268 375 242 389 226 c 256
 406 207 433 202 470 202 c 258
 931 202 l 258
 1017 202 1088 131 1088 45 c 256
 1088 -41 1017 -112 931 -112 c 258
 470 -112 l 258
 357 -112 244 -92 157 -7 c 256
 74 76 52 185 52 287 c 256
 52 522 164 814 460 814 c 256
EndSplineSet
EndChar

StartChar: uniE081
Encoding: 57473 57473 426
Width: 1231
GlyphClass: 2
Flags: HW
LayerCount: 2
Fore
SplineSet
1009 1360 m 256
 1094 1368 1172 1303 1180 1217 c 256
 1199 1004 1208 840 1208 520 c 256
 1208 106 1027 -112 593 -112 c 256
 436 -112 300 -103 157 -82 c 256
 72 -70 11 12 24 97 c 256
 37 182 118 242 203 230 c 256
 332 211 448 202 593 202 c 256
 889 202 894 214 894 520 c 256
 894 836 885 980 866 1189 c 256
 858 1275 924 1352 1009 1360 c 256
331 1296 m 256
 412 1325 503 1282 532 1201 c 256
 617 963 654 777 654 423 c 256
 654 337 582 266 496 266 c 256
 410 266 339 337 339 423 c 256
 339 757 307 897 236 1095 c 256
 207 1176 250 1267 331 1296 c 256
EndSplineSet
EndChar

StartChar: uniE082
Encoding: 57474 57474 427
Width: 1282
GlyphClass: 2
Flags: HW
LayerCount: 2
Fore
SplineSet
906 1322 m 256
 991 1332 1071 1270 1081 1185 c 256
 1111 933 1126 759 1126 514 c 256
 1126 22 792 -112 446 -112 c 256
 355 -112 261 -105 165 -96 c 256
 80 -88 15 -10 23 76 c 256
 31 162 110 226 195 218 c 256
 287 209 373 202 446 202 c 256
 726 202 810 226 810 514 c 256
 810 747 799 899 769 1147 c 256
 759 1232 821 1312 906 1322 c 256
381 292 m 256
 297 309 239 393 256 477 c 256
 266 526 270 570 270 627 c 256
 270 807 226 944 174 1059 c 256
 139 1137 174 1233 252 1268 c 256
 330 1303 426 1267 461 1189 c 256
 525 1048 586 861 586 627 c 256
 586 554 580 490 566 417 c 256
 549 333 465 275 381 292 c 256
968 672 m 256
 1054 672 1126 600 1126 514 c 256
 1126 215 1179 202 1281 202 c 257
 1282 202 l 258
 1368 202 1440 131 1440 45 c 256
 1440 -41 1368 -112 1282 -112 c 258
 1281 -112 l 257
 940 -111 810 170 810 514 c 256
 810 600 882 672 968 672 c 256
EndSplineSet
EndChar

StartChar: uniE083
Encoding: 57475 57475 428
Width: 1610
GlyphClass: 2
Flags: HW
LayerCount: 2
Fore
SplineSet
1345 1293 m 256
 1430 1303 1510 1239 1520 1154 c 256
 1547 913 1568 712 1568 441 c 256
 1568 -13 1202 -142 823 -142 c 256
 503 -142 2 -100 2 382 c 256
 2 463 16 548 42 641 c 256
 65 724 153 774 236 751 c 256
 319 728 369 640 346 557 c 256
 326 484 318 425 318 382 c 256
 318 230 449 172 823 172 c 256
 1166 172 1252 233 1252 441 c 256
 1252 696 1233 877 1206 1118 c 256
 1196 1203 1260 1283 1345 1293 c 256
EndSplineSet
EndChar

StartChar: uniE084
Encoding: 57476 57476 429
Width: 2681
GlyphClass: 2
Flags: HW
LayerCount: 2
Fore
SplineSet
690 -724 m 256
 315 -724 22 -538 22 -126 c 256
 22 21 53 171 94 319 c 256
 117 402 205 452 288 429 c 256
 371 406 421 318 398 235 c 256
 361 103 338 -25 338 -126 c 256
 338 -343 411 -409 690 -409 c 256
 925 -409 1014 -321 1014 -300 c 256
 1014 -279 958 -263 889 -254 c 256
 753 -236 486 -153 486 110 c 256
 486 485 884 641 1178 690 c 256
 1259 703 1337 649 1356 575 c 257
 1441 253 1493 182 1551 182 c 256
 1607 182 1667 267 1701 511 c 256
 1713 596 1794 657 1879 645 c 256
 1964 633 2025 552 2013 467 c 256
 1985 271 1917 -132 1542 -132 c 256
 1255 -132 1154 146 1093 348 c 257
 880 285 801 188 801 119 c 256
 801 94 865 71 949 56 c 256
 1169 17 1330 -58 1330 -300 c 256
 1330 -668 894 -724 690 -724 c 256
1867 646 m 256
 1953 640 2020 565 2014 479 c 256
 2012 452 2012 426 2012 398 c 256
 2012 218 2052 186 2104 186 c 256
 2155 186 2200 212 2200 411 c 256
 2200 456 2196 506 2191 553 c 256
 2183 638 2248 717 2333 725 c 256
 2418 733 2497 668 2505 583 c 256
 2510 530 2514 472 2514 411 c 256
 2514 224 2461 -128 2115 -128 c 256
 1774 -128 1696 198 1696 398 c 256
 1696 432 1698 466 1700 499 c 256
 1706 585 1781 652 1867 646 c 256
2330 724 m 256
 2415 734 2494 671 2504 586 c 256
 2555 152 2567 202 2680 202 c 257
 2681 202 l 258
 2767 202 2839 130 2839 44 c 256
 2839 -42 2767 -114 2681 -114 c 258
 2680 -114 l 257
 2340 -114 2241 131 2192 550 c 256
 2182 635 2245 714 2330 724 c 256
EndSplineSet
EndChar

StartChar: uniE085
Encoding: 57477 57477 430
Width: 435
GlyphClass: 2
Flags: HW
LayerCount: 2
Fore
SplineSet
274 637 m 256
 217 675 201 753 239 810 c 256
 242 815 246 823 246 845 c 256
 246 872 233 896 176 896 c 256
 138 896 115 864 115 849 c 256
 115 810 126 797 185 743 c 256
 235 697 240 617 194 567 c 256
 148 517 67 513 17 559 c 256
 -38 609 -135 698 -135 849 c 256
 -135 1024 18 1146 176 1146 c 256
 337 1146 496 1032 496 845 c 256
 496 782 480 721 447 672 c 256
 409 615 331 599 274 637 c 256
-406 -479 m 256
 -418 -394 -357 -313 -272 -301 c 256
 0 -263 128 -145 128 181 c 256
 128 232 123 286 114 337 c 256
 99 421 157 504 242 519 c 256
 327 534 409 475 424 391 c 256
 436 321 442 250 442 181 c 256
 442 -283 178 -557 -228 -613 c 256
 -313 -625 -394 -564 -406 -479 c 256
EndSplineSet
EndChar

StartChar: uniE086
Encoding: 57478 57478 431
Width: 593
GlyphClass: 2
Flags: HW
LayerCount: 2
Fore
SplineSet
133 535 m 256
 215 559 304 511 328 428 c 256
 359 321 374 246 374 137 c 256
 374 -235 179 -513 -212 -610 c 256
 -295 -631 -382 -578 -403 -495 c 256
 -424 -412 -371 -325 -288 -304 c 256
 -24 -239 60 -117 60 137 c 256
 60 226 57 233 26 340 c 256
 2 423 51 511 133 535 c 256
154 637 m 256
 97 675 81 753 119 810 c 256
 122 815 126 823 126 845 c 256
 126 872 113 896 56 896 c 256
 18 896 -5 864 -5 849 c 256
 -5 810 6 797 65 743 c 256
 115 697 120 617 74 567 c 256
 28 517 -53 513 -103 559 c 256
 -158 609 -255 698 -255 849 c 256
 -255 1024 -102 1146 56 1146 c 256
 217 1146 376 1032 376 845 c 256
 376 782 360 721 327 672 c 256
 289 615 211 599 154 637 c 256
750 45 m 256
 750 -41 679 -112 593 -112 c 258
 592 -112 l 257
 218 -112 90 142 27 336 c 256
 1 418 47 508 129 534 c 256
 211 560 301 514 327 432 c 256
 382 262 396 202 592 202 c 257
 593 202 l 258
 679 202 750 131 750 45 c 256
EndSplineSet
EndChar

StartChar: uniE087
Encoding: 57479 57479 432
Width: 1465
GlyphClass: 2
Flags: HW
LayerCount: 2
Fore
SplineSet
815 172 m 256
 900 172 932 183 932 238 c 256
 932 305 808 494 651 556 c 256
 571 588 532 681 564 761 c 256
 596 841 689 880 769 848 c 256
 995 756 1246 496 1246 210 c 256
 1246 -45 1013 -142 815 -142 c 256
 527 -142 392 60 392 264 c 256
 392 306 394 347 400 392 c 257
 337 362 318 334 318 156 c 256
 318 -204 325 -372 347 -687 c 256
 353 -773 287 -849 201 -855 c 256
 115 -861 39 -795 33 -709 c 256
 11 -392 2 -208 2 156 c 256
 2 464 163 748 581 748 c 257
 685 748 766 697 766 589 c 256
 766 572 761 531 745 483 c 256
 720 408 706 340 706 264 c 256
 706 198 741 172 815 172 c 256
566 765 m 256
 600 844 694 881 773 846 c 256
 1032 732 1147 535 1224 399 c 256
 1310 246 1344 202 1464 202 c 257
 1465 202 l 258
 1551 202 1623 131 1623 45 c 256
 1623 -41 1551 -112 1465 -112 c 258
 1464 -112 l 257
 1161 -112 1032 100 950 245 c 256
 874 379 812 486 647 558 c 256
 568 593 532 686 566 765 c 256
EndSplineSet
EndChar

StartChar: uniFB00
Encoding: 64256 64256 433
Width: 1386
GlyphClass: 3
Flags: HW
LayerCount: 2
Fore
SplineSet
3 818 m 256
 -3 904 62 981 148 987 c 256
 314 999 479 1006 643 1006 c 256
 843 1006 1044 995 1244 972 c 256
 1329 962 1393 883 1383 798 c 256
 1373 713 1293 650 1208 660 c 256
 1021 681 833 690 643 690 c 256
 487 690 330 685 172 673 c 256
 86 667 9 732 3 818 c 256
1330 1437 m 256
 1282 1394 1212 1385 1155 1413 c 257
 1144 1380 1137 1339 1133 1295 c 256
 1103 960 1094 345 1094 -4 c 256
 1094 -90 1022 -161 936 -161 c 256
 850 -161 779 -90 779 -4 c 256
 779 351 787 964 819 1322 c 256
 831 1464 862 1666 1035 1745 c 256
 1064 1758 1097 1766 1132 1766 c 256
 1227 1766 1295 1712 1342 1659 c 256
 1399 1595 1394 1494 1330 1437 c 256
717 1437 m 256
 669 1394 599 1385 542 1413 c 257
 531 1380 524 1339 520 1295 c 256
 490 960 481 345 481 -4 c 256
 481 -90 409 -161 323 -161 c 256
 237 -161 166 -90 166 -4 c 256
 166 351 174 964 206 1322 c 256
 218 1464 249 1666 422 1745 c 256
 451 1758 484 1766 519 1766 c 256
 614 1766 682 1712 729 1659 c 256
 786 1595 781 1494 717 1437 c 256
EndSplineSet
Ligature2: "'rlig' Required Ligatures in Latin lookup 8 subtable" f f
EndChar

StartChar: uniFB05
Encoding: 64261 64261 434
Width: 1325
GlyphClass: 3
Flags: HW
LayerCount: 2
Fore
SplineSet
1321 800 m 256
 1310 715 1230 653 1145 664 c 256
 994 683 823 690 651 690 c 256
 487 690 323 684 171 673 c 256
 85 667 9 733 3 819 c 256
 -3 905 63 981 149 987 c 256
 307 998 479 1006 651 1006 c 256
 833 1006 1016 997 1185 976 c 256
 1270 965 1332 885 1321 800 c 256
970 1372 m 256
 1055 1362 1118 1283 1108 1198 c 256
 1075 915 1050 638 1050 355 c 256
 1050 218 1056 172 1088 172 c 256
 1100 172 1117 174 1134 177 c 256
 1218 193 1301 135 1317 51 c 256
 1333 -33 1275 -117 1191 -133 c 256
 1154 -140 1120 -142 1088 -142 c 256
 779 -142 736 191 736 355 c 256
 736 656 763 947 796 1234 c 256
 806 1319 885 1382 970 1372 c 256
717 1437 m 256
 686 1407 654 1399 625 1399 c 256
 588 1399 569 1413 542 1413 c 257
 529 1413 523 1342 520 1295 c 256
 499 959 481 345 481 -4 c 256
 481 -90 409 -161 323 -161 c 256
 237 -161 166 -90 166 -4 c 256
 166 351 174 964 206 1322 c 256
 219 1475 272 1766 519 1766 c 256
 614 1766 682 1712 729 1659 c 256
 786 1595 779 1496 717 1437 c 256
EndSplineSet
Ligature2: "'rlig' Required Ligatures in Latin lookup 8 subtable" f t
EndChar

StartChar: uniFD3E
Encoding: 64830 64830 492
Width: 866
GlyphClass: 2
Flags: HW
LayerCount: 2
Fore
SplineSet
637 1509 m 256
 714 1471 747 1376 709 1299 c 256
 602 1081 556 908 556 681 c 256
 556 472 607 221 709 14 c 256
 747 -63 715 -159 638 -197 c 256
 561 -235 465 -203 427 -126 c 256
 301 131 240 424 240 681 c 256
 240 958 306 1191 427 1437 c 256
 465 1514 560 1547 637 1509 c 256
874 774 m 256
 874 697 827 635 779 599 c 257
 787 576 792 550 792 524 c 256
 792 313 572 310 554 310 c 256
 504 310 464 320 430 336 c 257
 384 301 316 272 237 272 c 256
 132 272 32 363 32 476 c 256
 32 533 47 585 70 629 c 257
 27 675 -8 744 -8 819 c 256
 -8 1002 181 1036 234 1036 c 256
 323 1036 388 1007 435 968 c 257
 491 1001 557 1020 629 1020 c 256
 781 1020 874 898 874 774 c 256
EndSplineSet
EndChar

StartChar: uniFD3F
Encoding: 64831 64831 493
Width: 861
GlyphClass: 2
Flags: HW
LayerCount: 2
Fore
SplineSet
221 1509 m 256
 298 1547 393 1514 431 1437 c 256
 552 1191 618 958 618 681 c 256
 618 406 556 129 431 -125 c 256
 393 -202 298 -235 221 -197 c 256
 144 -159 111 -64 149 13 c 256
 252 223 302 452 302 681 c 256
 302 908 256 1081 149 1299 c 256
 111 1376 144 1471 221 1509 c 256
72 526 m 256
 72 554 77 580 85 603 c 257
 37 640 -8 703 -8 781 c 256
 -8 932 119 1032 247 1032 c 256
 329 1032 395 1006 449 967 c 257
 495 998 554 1020 630 1020 c 256
 722 1020 869 954 869 792 c 256
 869 721 839 658 798 615 c 257
 815 577 825 535 825 493 c 256
 825 319 656 274 593 274 c 256
 534 274 479 293 441 316 c 257
 405 298 355 284 305 284 c 256
 190 284 72 375 72 526 c 256
EndSplineSet
EndChar

StartChar: v
Encoding: 118 118 589
Width: 1084
GlyphClass: 2
Flags: HW
LayerCount: 2
Fore
SplineSet
93 1114 m 256
 171 1150 266 1116 303 1038 c 256
 383 868 476 664 550 454 c 257
 639 633 717 822 773 1015 c 256
 797 1097 886 1146 968 1122 c 256
 1050 1098 1099 1009 1075 927 c 256
 973 575 810 244 636 -38 c 256
 616 -71 582 -96 544 -107 c 256
 457 -131 364 -74 347 15 c 256
 289 309 142 638 17 904 c 256
 -20 982 15 1078 93 1114 c 256
EndSplineSet
EndChar

StartChar: w
Encoding: 119 119 590
Width: 1501
GlyphClass: 2
Flags: HW
LayerCount: 2
Fore
SplineSet
379 1091 m 256
 454 1049 481 952 439 877 c 256
 399 806 318 551 318 374 c 256
 318 203 366 172 431 172 c 256
 509 172 591 262 632 681 c 256
 641 772 701 845 791 838 c 256
 873 832 936 761 936 684 c 256
 936 257 968 172 1038 172 c 256
 1102 172 1184 263 1184 513 c 256
 1184 652 1149 804 1110 881 c 256
 1072 958 1104 1054 1181 1092 c 256
 1258 1130 1354 1098 1392 1021 c 256
 1461 882 1498 698 1498 513 c 256
 1498 269 1420 -142 1038 -142 c 256
 896 -142 790 -56 734 40 c 257
 664 -52 555 -142 406 -142 c 256
 76 -142 2 185 2 374 c 256
 2 627 89 896 165 1031 c 256
 207 1106 304 1133 379 1091 c 256
EndSplineSet
EndChar

StartChar: x
Encoding: 120 120 591
Width: 1137
GlyphClass: 2
Flags: HW
LayerCount: 2
Fore
SplineSet
60 -122 m 256
 -6 -68 -16 34 38 100 c 258
 833 1071 l 258
 887 1137 989 1147 1055 1093 c 256
 1121 1039 1131 937 1077 871 c 258
 282 -100 l 258
 228 -166 126 -176 60 -122 c 256
165 1098 m 256
 242 1136 338 1104 376 1027 c 256
 525 725 839 360 1088 111 c 256
 1149 50 1149 -50 1088 -111 c 256
 1027 -172 927 -172 866 -111 c 256
 603 152 273 527 94 887 c 256
 56 964 88 1060 165 1098 c 256
EndSplineSet
EndChar

StartChar: y
Encoding: 121 121 592
Width: 1127
GlyphClass: 2
Flags: HW
LayerCount: 2
Fore
SplineSet
243 1128 m 256
 328 1119 392 1039 383 954 c 256
 370 834 362 709 362 589 c 256
 362 282 409 172 526 172 c 256
 644 172 716 240 765 408 c 256
 789 490 878 539 960 515 c 256
 1042 491 1091 402 1067 320 c 256
 1000 92 834 -142 526 -142 c 256
 71 -142 48 344 48 589 c 256
 48 721 54 856 69 988 c 256
 78 1073 158 1137 243 1128 c 256
915 1121 m 256
 1001 1125 1075 1056 1079 970 c 256
 1084 864 1084 698 1084 546 c 256
 1084 140 1108 -592 462 -592 c 256
 280 -592 122 -518 30 -383 c 256
 -18 -312 0 -212 71 -164 c 256
 142 -116 242 -134 290 -205 c 256
 317 -244 360 -276 462 -276 c 256
 740 -276 770 25 770 546 c 256
 770 696 769 863 765 957 c 256
 761 1043 829 1117 915 1121 c 256
EndSplineSet
EndChar

StartChar: z
Encoding: 122 122 596
Width: 1054
GlyphClass: 2
Flags: HW
LayerCount: 2
Fore
SplineSet
5 856 m 256
 -9 941 49 1023 134 1037 c 256
 225 1052 373 1072 538 1072 c 256
 715 1072 846 1031 931 978 c 256
 1020 922 1028 791 948 724 c 256
 837 631 621 391 465 177 c 257
 615 183 773 186 894 186 c 256
 980 186 1052 115 1052 29 c 256
 1052 -57 980 -128 894 -128 c 256
 690 -128 364 -139 180 -155 c 256
 46 -167 -26 -24 26 75 c 256
 137 287 346 552 533 756 c 257
 462 756 393 752 332 746 c 256
 274 740 224 733 186 727 c 256
 101 713 19 771 5 856 c 256
EndSplineSet
EndChar

StartChar: zero
Encoding: 48 48 597
Width: 1141
GlyphClass: 2
Flags: HW
LayerCount: 2
Fore
SplineSet
318 486 m 256
 318 263 387 172 510 172 c 256
 722 172 824 450 824 843 c 256
 824 1055 711 1188 580 1188 c 256
 429 1188 318 856 318 486 c 256
2 486 m 256
 2 774 43 1504 580 1504 c 256
 959 1504 1138 1143 1138 843 c 256
 1138 494 1064 -142 510 -142 c 256
 121 -142 2 219 2 486 c 256
EndSplineSet
EndChar

